Space-Mono-Bold-Italic.ufo
<glyph name="parenleft" format="1">
  <advance width="612"/>
  <unicode hex="0028"/>
  <outline>
    <contour>
      <point x="388" y="-30" type="line" smooth="yes"/>
      <point x="307" y="-30"/>
      <point x="204" y="6"/>
      <point x="204" y="149" type="curve" smooth="yes"/>
      <point x="204" y="172"/>
      <point x="207" y="199"/>
      <point x="213" y="228" type="curve" smooth="yes"/>
      <point x="264" y="472" type="line" smooth="yes"/>
      <point x="301" y="650"/>
      <point x="392" y="730"/>
      <point x="554" y="730" type="curve" smooth="yes"/>
      <point x="612" y="730" type="line"/>
      <point x="612" y="856" type="line"/>
      <point x="568" y="856" type="line" smooth="yes"/>
      <point x="346" y="856"/>
      <point x="195" y="758"/>
      <point x="139" y="494" type="curve" smooth="yes"/>
      <point x="84" y="236" type="line" smooth="yes"/>
      <point x="76" y="199"/>
      <point x="72" y="165"/>
      <point x="72" y="133" type="curve" smooth="yes"/>
      <point x="72" y="-51"/>
      <point x="195" y="-156"/>
      <point x="355" y="-156" type="curve" smooth="yes"/>
      <point x="436" y="-156" type="line"/>
      <point x="436" y="-30" type="line"/>
    </contour>
  </outline>
</glyph>
<glyph name="comma" format="1">
  <advance width="612"/>
  <unicode hex="002C"/>
  <outline>
    <contour>
      <point x="174" y="82" type="curve" smooth="yes"/>
      <point x="174" y="22"/>
      <point x="221" y="-8"/>
      <point x="266" y="-8" type="curve"/>
      <point x="263" y="-25" type="line" smooth="yes"/>
      <point x="259" y="-45"/>
      <point x="248" y="-53"/>
      <point x="226" y="-53" type="curve" smooth="yes"/>
      <point x="150" y="-53" type="line"/>
      <point x="150" y="-131" type="line"/>
      <point x="232" y="-131" type="line" smooth="yes"/>
      <point x="286" y="-131"/>
      <point x="326" y="-108"/>
      <point x="337" y="-58" type="curve" smooth="yes"/>
      <point x="362" y="61" type="line" smooth="yes"/>
      <point x="363" y="68"/>
      <point x="364" y="75"/>
      <point x="364" y="81" type="curve" smooth="yes"/>
      <point x="364" y="134"/>
      <point x="321" y="176"/>
      <point x="269" y="176" type="curve" smooth="yes"/>
      <point x="217" y="176"/>
      <point x="174" y="136"/>
    </contour>
  </outline>
</glyph>
<glyph name="one" format="1">
  <advance width="612"/>
  <unicode hex="0031"/>
  <outline>
    <contour>
      <point x="14" y="126" type="line"/>
      <point x="14" y="0" type="line"/>
      <point x="517" y="0" type="line"/>
      <point x="517" y="126" type="line"/>
      <point x="344" y="126" type="line"/>
      <point x="466" y="700" type="line"/>
      <point x="208" y="700" type="line"/>
      <point x="53" y="406" type="line"/>
      <point x="53" y="394" type="line"/>
      <point x="185" y="394" type="line"/>
      <point x="302" y="634" type="line"/>
      <point x="320" y="634" type="line"/>
      <point x="212" y="126" type="line"/>
    </contour>
  </outline>
</glyph>
<glyph name="two" format="1">
  <advance width="612"/>
  <unicode hex="0032"/>
  <outline>
    <contour>
      <point x="152" y="126" type="line"/>
      <point x="155" y="138" type="line" smooth="yes"/>
      <point x="170" y="198"/>
      <point x="198" y="228"/>
      <point x="342" y="258" type="curve" smooth="yes"/>
      <point x="504" y="292"/>
      <point x="599" y="378"/>
      <point x="599" y="522" type="curve" smooth="yes"/>
      <point x="599" y="624"/>
      <point x="518" y="714"/>
      <point x="384" y="714" type="curve" smooth="yes"/>
      <point x="222" y="714"/>
      <point x="119" y="624"/>
      <point x="86" y="470" type="curve" smooth="yes"/>
      <point x="74" y="414" type="line"/>
      <point x="206" y="414" type="line"/>
      <point x="215" y="458" type="line" smooth="yes"/>
      <point x="232" y="539"/>
      <point x="288" y="588"/>
      <point x="366" y="588" type="curve" smooth="yes"/>
      <point x="430" y="588"/>
      <point x="464" y="554"/>
      <point x="464" y="504" type="curve" smooth="yes"/>
      <point x="464" y="418"/>
      <point x="384" y="386"/>
      <point x="305" y="372" type="curve" smooth="yes"/>
      <point x="150" y="345"/>
      <point x="54" y="296"/>
      <point x="21" y="138" type="curve" smooth="yes"/>
      <point x="-8" y="0" type="line"/>
      <point x="498" y="0" type="line"/>
      <point x="498" y="126" type="line"/>
    </contour>
  </outline>
</glyph>
<glyph name="four" format="1">
  <advance width="612"/>
  <unicode hex="0034"/>
  <outline>
    <contour>
      <point x="314" y="700" type="line"/>
      <point x="314" y="700"/>
      <point x="568" y="700"/>
      <point x="568" y="700" type="curve"/>
      <point x="568" y="700"/>
      <point x="474" y="258"/>
      <point x="474" y="258" type="curve"/>
      <point x="474" y="258"/>
      <point x="562" y="258"/>
      <point x="562" y="258" type="curve"/>
      <point x="562" y="258"/>
      <point x="562" y="132"/>
      <point x="562" y="132" type="curve"/>
      <point x="562" y="132"/>
      <point x="447" y="132"/>
      <point x="447" y="132" type="curve"/>
      <point x="447" y="132"/>
      <point x="419" y="0"/>
      <point x="419" y="0" type="curve"/>
      <point x="419" y="0"/>
      <point x="287" y="0"/>
      <point x="287" y="0" type="curve"/>
      <point x="287" y="0"/>
      <point x="315" y="132"/>
      <point x="315" y="132" type="curve"/>
      <point x="315" y="132"/>
      <point x="11" y="132"/>
      <point x="11" y="132" type="curve"/>
      <point x="11" y="318" type="line"/>
    </contour>
    <contour>
      <point x="122" y="276" type="line"/>
      <point x="122" y="258" type="line"/>
      <point x="122" y="258"/>
      <point x="342" y="258"/>
      <point x="342" y="258" type="curve"/>
      <point x="342" y="258"/>
      <point x="422" y="634"/>
      <point x="422" y="634" type="curve"/>
      <point x="422" y="634"/>
      <point x="404" y="634"/>
      <point x="404" y="634" type="curve"/>
    </contour>
  </outline>
</glyph>
<glyph name="six" format="1">
  <advance width="612"/>
  <unicode hex="0036"/>
  <outline>
    <contour>
      <point x="578" y="502" type="line"/>
      <point x="580" y="514"/>
      <point x="581" y="525"/>
      <point x="581" y="536" type="curve" smooth="yes"/>
      <point x="581" y="633"/>
      <point x="507" y="714"/>
      <point x="366" y="714" type="curve" smooth="yes"/>
      <point x="223" y="714"/>
      <point x="117" y="624"/>
      <point x="89" y="491" type="curve" smooth="yes"/>
      <point x="37" y="241" type="line" smooth="yes"/>
      <point x="33" y="220"/>
      <point x="31" y="201"/>
      <point x="31" y="182" type="curve" smooth="yes"/>
      <point x="31" y="59"/>
      <point x="122" y="-14"/>
      <point x="249" y="-14" type="curve" smooth="yes"/>
      <point x="439" y="-14"/>
      <point x="540" y="114"/>
      <point x="540" y="272" type="curve" smooth="yes"/>
      <point x="540" y="392"/>
      <point x="459" y="462"/>
      <point x="361" y="462" type="curve" smooth="yes"/>
      <point x="303" y="462"/>
      <point x="247" y="436"/>
      <point x="217" y="384" type="curve"/>
      <point x="199" y="384" type="line"/>
      <point x="218" y="474" type="line" smooth="yes"/>
      <point x="232" y="542"/>
      <point x="280" y="588"/>
      <point x="359" y="588" type="curve" smooth="yes"/>
      <point x="421" y="588"/>
      <point x="447" y="553"/>
      <point x="447" y="516" type="curve" smooth="yes"/>
      <point x="447" y="511"/>
      <point x="447" y="509"/>
      <point x="446" y="502" type="curve"/>
    </contour>
    <contour>
      <point x="269" y="112" type="curve" smooth="yes"/>
      <point x="207" y="112"/>
      <point x="162" y="146"/>
      <point x="162" y="205" type="curve" smooth="yes"/>
      <point x="162" y="288"/>
      <point x="221" y="336"/>
      <point x="297" y="336" type="curve" smooth="yes"/>
      <point x="365" y="336"/>
      <point x="402" y="294"/>
      <point x="402" y="242" type="curve" smooth="yes"/>
      <point x="402" y="154"/>
      <point x="331" y="112"/>
    </contour>
  </outline>
</glyph>
<glyph name="seven" format="1">
  <advance width="612"/>
  <unicode hex="0037"/>
  <outline>
    <contour>
      <point x="107" y="574" type="line"/>
      <point x="476" y="574" type="line"/>
      <point x="476" y="556" type="line"/>
      <point x="133" y="174" type="line" smooth="yes"/>
      <point x="70" y="104"/>
      <point x="55" y="78"/>
      <point x="45" y="30" type="curve" smooth="yes"/>
      <point x="39" y="0" type="line"/>
      <point x="197" y="0" type="line"/>
      <point x="202" y="24" type="line" smooth="yes"/>
      <point x="210" y="60"/>
      <point x="230" y="85"/>
      <point x="266" y="124" type="curve" smooth="yes"/>
      <point x="606" y="501" type="line"/>
      <point x="606" y="700" type="line"/>
      <point x="107" y="700" type="line"/>
    </contour>
  </outline>
</glyph>
<glyph name="nine" format="1">
  <advance width="612"/>
  <unicode hex="0039"/>
  <outline>
    <contour>
      <point x="34" y="198" type="line"/>
      <point x="32" y="186"/>
      <point x="31" y="174"/>
      <point x="31" y="162" type="curve" smooth="yes"/>
      <point x="31" y="64"/>
      <point x="106" y="-14"/>
      <point x="246" y="-14" type="curve" smooth="yes"/>
      <point x="393" y="-14"/>
      <point x="495" y="72"/>
      <point x="523" y="209" type="curve" smooth="yes"/>
      <point x="575" y="459" type="line" smooth="yes"/>
      <point x="579" y="480"/>
      <point x="581" y="495"/>
      <point x="581" y="512" type="curve" smooth="yes"/>
      <point x="581" y="633"/>
      <point x="487" y="714"/>
      <point x="361" y="714" type="curve" smooth="yes"/>
      <point x="179" y="714"/>
      <point x="72" y="594"/>
      <point x="72" y="432" type="curve" smooth="yes"/>
      <point x="72" y="304"/>
      <point x="163" y="238"/>
      <point x="253" y="238" type="curve" smooth="yes"/>
      <point x="323" y="238"/>
      <point x="371" y="264"/>
      <point x="395" y="316" type="curve"/>
      <point x="413" y="316" type="line"/>
      <point x="394" y="226" type="line" smooth="yes"/>
      <point x="380" y="158"/>
      <point x="332" y="112"/>
      <point x="253" y="112" type="curve" smooth="yes"/>
      <point x="189" y="112"/>
      <point x="164" y="144"/>
      <point x="164" y="181" type="curve" smooth="yes"/>
      <point x="164" y="187"/>
      <point x="165" y="194"/>
      <point x="166" y="198" type="curve"/>
    </contour>
    <contour>
      <point x="345" y="588" type="curve" smooth="yes"/>
      <point x="405" y="588"/>
      <point x="450" y="556"/>
      <point x="450" y="495" type="curve" smooth="yes"/>
      <point x="450" y="418"/>
      <point x="388" y="364"/>
      <point x="313" y="364" type="curve" smooth="yes"/>
      <point x="247" y="364"/>
      <point x="210" y="405"/>
      <point x="210" y="458" type="curve" smooth="yes"/>
      <point x="210" y="545"/>
      <point x="277" y="588"/>
    </contour>
  </outline>
</glyph>
<glyph name="colon" format="1">
  <advance width="612"/>
  <unicode hex="003A"/>
  <outline>
    <contour>
      <point x="354" y="81" type="curve" smooth="yes"/>
      <point x="354" y="134"/>
      <point x="311" y="176"/>
      <point x="259" y="176" type="curve" smooth="yes"/>
      <point x="207" y="176"/>
      <point x="164" y="134"/>
      <point x="164" y="81" type="curve" smooth="yes"/>
      <point x="164" y="28"/>
      <point x="207" y="-14"/>
      <point x="259" y="-14" type="curve" smooth="yes"/>
      <point x="311" y="-14"/>
      <point x="354" y="28"/>
    </contour>
    <contour>
      <point x="420" y="415" type="curve" smooth="yes"/>
      <point x="420" y="468"/>
      <point x="377" y="510"/>
      <point x="325" y="510" type="curve" smooth="yes"/>
      <point x="273" y="510"/>
      <point x="230" y="468"/>
      <point x="230" y="415" type="curve" smooth="yes"/>
      <point x="230" y="362"/>
      <point x="273" y="320"/>
      <point x="325" y="320" type="curve" smooth="yes"/>
      <point x="377" y="320"/>
      <point x="420" y="362"/>
    </contour>
  </outline>
</glyph>
<glyph name="equal" format="1">
  <advance width="612"/>
  <unicode hex="003D"/>
  <outline>
    <contour>
      <point x="121" y="380" type="line"/>
      <point x="539" y="380" type="line"/>
      <point x="539" y="494" type="line"/>
      <point x="121" y="494" type="line"/>
    </contour>
    <contour>
      <point x="73" y="206" type="line"/>
      <point x="491" y="206" type="line"/>
      <point x="491" y="320" type="line"/>
      <point x="73" y="320" type="line"/>
    </contour>
  </outline>
</glyph>
<glyph name="greater" format="1">
  <advance width="612"/>
  <unicode hex="003E"/>
  <outline>
    <contour>
      <point x="144" y="570" type="line"/>
      <point x="144" y="450" type="line"/>
      <point x="439" y="366" type="line"/>
      <point x="439" y="349" type="line"/>
      <point x="51" y="251" type="line"/>
      <point x="51" y="130" type="line"/>
      <point x="517" y="252" type="line"/>
      <point x="517" y="460" type="line"/>
    </contour>
  </outline>
</glyph>
<glyph name="at" format="1">
  <advance width="612"/>
  <unicode hex="0040"/>
  <outline>
    <contour>
      <point x="374" y="510" type="line" smooth="yes"/>
      <point x="442" y="510"/>
      <point x="473" y="481"/>
      <point x="473" y="427" type="curve" smooth="yes"/>
      <point x="473" y="415"/>
      <point x="471" y="401"/>
      <point x="468" y="386" type="curve" smooth="yes"/>
      <point x="413" y="128" type="line" smooth="yes"/>
      <point x="409" y="110"/>
      <point x="400" y="100"/>
      <point x="384" y="100" type="curve" smooth="yes"/>
      <point x="368" y="100"/>
      <point x="359" y="110"/>
      <point x="359" y="124" type="curve" smooth="yes"/>
      <point x="359" y="125"/>
      <point x="359" y="127"/>
      <point x="360" y="132" type="curve" smooth="yes"/>
      <point x="422" y="424" type="line"/>
      <point x="302" y="424" type="line"/>
      <point x="295" y="388" type="line"/>
      <point x="277" y="388" type="line"/>
      <point x="272" y="412"/>
      <point x="252" y="438"/>
      <point x="198" y="438" type="curve" smooth="yes"/>
      <point x="54" y="438"/>
      <point x="-2" y="278"/>
      <point x="-2" y="148" type="curve" smooth="yes"/>
      <point x="-2" y="40"/>
      <point x="50" y="-14"/>
      <point x="118" y="-14" type="curve" smooth="yes"/>
      <point x="174" y="-14"/>
      <point x="202" y="14"/>
      <point x="216" y="48" type="curve"/>
      <point x="234" y="48" type="line"/>
      <point x="234" y="14"/>
      <point x="254" y="-14"/>
      <point x="298" y="-14" type="curve" smooth="yes"/>
      <point x="408" y="-14" type="line" smooth="yes"/>
      <point x="466" y="-14"/>
      <point x="510" y="20"/>
      <point x="523" y="82" type="curve" smooth="yes"/>
      <point x="590" y="396" type="line" smooth="yes"/>
      <point x="594" y="417"/>
      <point x="596" y="436"/>
      <point x="596" y="454" type="curve" smooth="yes"/>
      <point x="596" y="568"/>
      <point x="514" y="630"/>
      <point x="398" y="630" type="curve" smooth="yes"/>
      <point x="112" y="630" type="line"/>
      <point x="112" y="510" type="line"/>
    </contour>
    <contour>
      <point x="174" y="100" type="curve" smooth="yes"/>
      <point x="140" y="100"/>
      <point x="122" y="126"/>
      <point x="122" y="172" type="curve" smooth="yes"/>
      <point x="122" y="246"/>
      <point x="148" y="324"/>
      <point x="214" y="324" type="curve" smooth="yes"/>
      <point x="248" y="324"/>
      <point x="263" y="292"/>
      <point x="263" y="254" type="curve" smooth="yes"/>
      <point x="263" y="186"/>
      <point x="240" y="100"/>
    </contour>
  </outline>
</glyph>
<glyph name="H" format="1">
  <advance width="612"/>
  <unicode hex="0048"/>
  <outline>
    <contour>
      <point x="0" y="0" type="line"/>
      <point x="131" y="0" type="line"/>
      <point x="192" y="288" type="line"/>
      <point x="392" y="288" type="line"/>
      <point x="331" y="0" type="line"/>
      <point x="463" y="0" type="line"/>
      <point x="612" y="700" type="line"/>
      <point x="480" y="700" type="line"/>
      <point x="419" y="414" type="line"/>
      <point x="219" y="414" type="line"/>
      <point x="280" y="700" type="line"/>
      <point x="148" y="700" type="line"/>
    </contour>
  </outline>
</glyph>
<glyph name="T" format="1">
  <advance width="612"/>
  <unicode hex="0054"/>
  <outline>
    <contour>
      <point x="100" y="574" type="line"/>
      <point x="286" y="574" type="line"/>
      <point x="164" y="0" type="line"/>
      <point x="296" y="0" type="line"/>
      <point x="418" y="574" type="line"/>
      <point x="604" y="574" type="line"/>
      <point x="604" y="700" type="line"/>
      <point x="100" y="700" type="line"/>
    </contour>
  </outline>
</glyph>
<glyph name="U" format="1">
  <advance width="612"/>
  <unicode hex="0055"/>
  <outline>
    <contour>
      <point x="494" y="700" type="line"/>
      <point x="397" y="242" type="line" smooth="yes"/>
      <point x="378" y="152"/>
      <point x="338" y="110"/>
      <point x="258" y="110" type="curve" smooth="yes"/>
      <point x="196" y="110"/>
      <point x="164" y="144"/>
      <point x="164" y="201" type="curve" smooth="yes"/>
      <point x="164" y="214"/>
      <point x="166" y="227"/>
      <point x="169" y="242" type="curve" smooth="yes"/>
      <point x="266" y="700" type="line"/>
      <point x="134" y="700" type="line"/>
      <point x="40" y="254" type="line" smooth="yes"/>
      <point x="34" y="227"/>
      <point x="33" y="208"/>
      <point x="33" y="187" type="curve" smooth="yes"/>
      <point x="33" y="59"/>
      <point x="123" y="-14"/>
      <point x="244" y="-14" type="curve" smooth="yes"/>
      <point x="406" y="-14"/>
      <point x="491" y="62"/>
      <point x="529" y="242" type="curve" smooth="yes"/>
      <point x="626" y="700" type="line"/>
    </contour>
  </outline>
</glyph>
<glyph name="bracketright" format="1">
  <advance width="612"/>
  <unicode hex="005D"/>
  <outline>
    <contour>
      <point x="461" y="739" type="line" smooth="yes"/>
      <point x="463" y="748"/>
      <point x="465" y="760"/>
      <point x="465" y="770" type="curve" smooth="yes"/>
      <point x="465" y="825"/>
      <point x="427" y="856"/>
      <point x="367" y="856" type="curve" smooth="yes"/>
      <point x="234" y="856" type="line"/>
      <point x="234" y="736" type="line"/>
      <point x="306" y="736" type="line" smooth="yes"/>
      <point x="322" y="736"/>
      <point x="329" y="728"/>
      <point x="329" y="716" type="curve" smooth="yes"/>
      <point x="329" y="716"/>
      <point x="329" y="711"/>
      <point x="328" y="706" type="curve" smooth="yes"/>
      <point x="177" y="-6" type="line" smooth="yes"/>
      <point x="173" y="-25"/>
      <point x="162" y="-36"/>
      <point x="143" y="-36" type="curve" smooth="yes"/>
      <point x="50" y="-36" type="line"/>
      <point x="50" y="-156" type="line"/>
      <point x="169" y="-156" type="line" smooth="yes"/>
      <point x="229" y="-156"/>
      <point x="280" y="-114"/>
      <point x="293" y="-54" type="curve" smooth="yes"/>
    </contour>
  </outline>
</glyph>
<glyph name="e" format="1">
  <advance width="612"/>
  <unicode hex="0065"/>
  <outline>
    <contour>
      <point x="529" y="207" type="line"/>
      <point x="540" y="258" type="line" smooth="yes"/>
      <point x="545" y="284"/>
      <point x="547" y="299"/>
      <point x="547" y="315" type="curve" smooth="yes"/>
      <point x="547" y="413"/>
      <point x="482" y="510"/>
      <point x="343" y="510" type="curve" smooth="yes"/>
      <point x="147" y="510"/>
      <point x="36" y="362"/>
      <point x="36" y="180" type="curve" smooth="yes"/>
      <point x="36" y="66"/>
      <point x="123" y="-14"/>
      <point x="245" y="-14" type="curve" smooth="yes"/>
      <point x="381" y="-14"/>
      <point x="449" y="48"/>
      <point x="481" y="100" type="curve"/>
      <point x="381" y="163" type="line"/>
      <point x="361" y="133"/>
      <point x="325" y="106"/>
      <point x="263" y="106" type="curve" smooth="yes"/>
      <point x="204" y="106"/>
      <point x="163" y="142"/>
      <point x="163" y="190" type="curve" smooth="yes"/>
      <point x="163" y="196"/>
      <point x="164" y="203"/>
      <point x="165" y="207" type="curve"/>
    </contour>
    <contour>
      <point x="323" y="396" type="curve" smooth="yes"/>
      <point x="394" y="396"/>
      <point x="424" y="366"/>
      <point x="424" y="315" type="curve"/>
      <point x="190" y="315" type="line"/>
      <point x="212" y="360"/>
      <point x="261" y="396"/>
    </contour>
  </outline>
</glyph>
<glyph name="h" format="1">
  <advance width="612"/>
  <unicode hex="0068"/>
  <outline>
    <contour>
      <point x="350" y="126" type="line" smooth="yes"/>
      <point x="347" y="112"/>
      <point x="346" y="104"/>
      <point x="346" y="94" type="curve" smooth="yes"/>
      <point x="346" y="27"/>
      <point x="397" y="-14"/>
      <point x="456" y="-14" type="curve" smooth="yes"/>
      <point x="483" y="-14"/>
      <point x="511" y="-6"/>
      <point x="537" y="12" type="curve" smooth="yes"/>
      <point x="612" y="62" type="line"/>
      <point x="549" y="156" type="line"/>
      <point x="485" y="112" type="line"/>
      <point x="475" y="119" type="line"/>
      <point x="515" y="306" type="line" smooth="yes"/>
      <point x="519" y="327"/>
      <point x="522" y="347"/>
      <point x="522" y="365" type="curve" smooth="yes"/>
      <point x="522" y="459"/>
      <point x="463" y="510"/>
      <point x="381" y="510" type="curve" smooth="yes"/>
      <point x="319" y="510"/>
      <point x="270" y="484"/>
      <point x="235" y="428" type="curve"/>
      <point x="217" y="428" type="line"/>
      <point x="278" y="714" type="line"/>
      <point x="152" y="714" type="line"/>
      <point x="0" y="0" type="line"/>
      <point x="126" y="0" type="line"/>
      <point x="182" y="264" type="line" smooth="yes"/>
      <point x="199" y="344"/>
      <point x="243" y="396"/>
      <point x="311" y="396" type="curve" smooth="yes"/>
      <point x="359" y="396"/>
      <point x="389" y="368"/>
      <point x="389" y="320" type="curve" smooth="yes"/>
      <point x="389" y="310"/>
      <point x="388" y="303"/>
      <point x="385" y="288" type="curve" smooth="yes"/>
    </contour>
  </outline>
</glyph>
<glyph name="i" format="1">
  <advance width="612"/>
  <unicode hex="0069"/>
  <outline>
    <contour>
      <point x="380" y="12" type="curve"/>
      <point x="525" y="110" type="line"/>
      <point x="462" y="204" type="line"/>
      <point x="328" y="112" type="line"/>
      <point x="318" y="119" type="line"/>
      <point x="378" y="370" type="line" smooth="yes"/>
      <point x="381" y="382"/>
      <point x="382" y="394"/>
      <point x="382" y="405" type="curve" smooth="yes"/>
      <point x="382" y="470"/>
      <point x="332" y="510"/>
      <point x="273" y="510" type="curve" smooth="yes"/>
      <point x="246" y="510"/>
      <point x="217" y="502"/>
      <point x="191" y="484" type="curve" smooth="yes"/>
      <point x="46" y="386" type="line"/>
      <point x="109" y="292" type="line"/>
      <point x="243" y="384" type="line"/>
      <point x="253" y="377" type="line"/>
      <point x="193" y="126" type="line" smooth="yes"/>
      <point x="190" y="114"/>
      <point x="189" y="102"/>
      <point x="189" y="91" type="curve" smooth="yes"/>
      <point x="189" y="26"/>
      <point x="239" y="-14"/>
      <point x="298" y="-14" type="curve" smooth="yes"/>
      <point x="325" y="-14"/>
      <point x="354" y="-6"/>
    </contour>
    <contour>
      <point x="467" y="643" type="curve" smooth="yes"/>
      <point x="467" y="696"/>
      <point x="424" y="738"/>
      <point x="372" y="738" type="curve" smooth="yes"/>
      <point x="320" y="738"/>
      <point x="277" y="696"/>
      <point x="277" y="643" type="curve" smooth="yes"/>
      <point x="277" y="590"/>
      <point x="320" y="548"/>
      <point x="372" y="548" type="curve" smooth="yes"/>
      <point x="424" y="548"/>
      <point x="467" y="590"/>
    </contour>
  </outline>
</glyph>
<glyph name="j" format="1">
  <advance width="612"/>
  <unicode hex="006A"/>
  <outline>
    <contour>
      <point x="549" y="643" type="curve" smooth="yes"/>
      <point x="549" y="696"/>
      <point x="506" y="738"/>
      <point x="454" y="738" type="curve" smooth="yes"/>
      <point x="402" y="738"/>
      <point x="359" y="696"/>
      <point x="359" y="643" type="curve" smooth="yes"/>
      <point x="359" y="590"/>
      <point x="402" y="548"/>
      <point x="454" y="548" type="curve" smooth="yes"/>
      <point x="506" y="548"/>
      <point x="549" y="590"/>
    </contour>
    <contour>
      <point x="461" y="370" type="line" smooth="yes"/>
      <point x="463" y="380"/>
      <point x="464" y="392"/>
      <point x="464" y="402" type="curve" smooth="yes"/>
      <point x="464" y="470"/>
      <point x="415" y="510"/>
      <point x="356" y="510" type="curve" smooth="yes"/>
      <point x="329" y="510"/>
      <point x="301" y="502"/>
      <point x="274" y="484" type="curve" smooth="yes"/>
      <point x="129" y="386" type="line"/>
      <point x="192" y="292" type="line"/>
      <point x="326" y="384" type="line"/>
      <point x="336" y="377" type="line"/>
      <point x="242" y="-47" type="line" smooth="yes"/>
      <point x="237" y="-68"/>
      <point x="226" y="-80"/>
      <point x="205" y="-80" type="curve" smooth="yes"/>
      <point x="0" y="-80" type="line"/>
      <point x="0" y="-200" type="line"/>
      <point x="235" y="-200" type="line" smooth="yes"/>
      <point x="295" y="-200"/>
      <point x="342" y="-167"/>
      <point x="357" y="-98" type="curve" smooth="yes"/>
    </contour>
  </outline>
</glyph>
<glyph name="n" format="1">
  <advance width="612"/>
  <unicode hex="006E"/>
  <outline>
    <contour>
      <point x="343" y="122" type="line" smooth="yes"/>
      <point x="341" y="111"/>
      <point x="340" y="102"/>
      <point x="340" y="92" type="curve" smooth="yes"/>
      <point x="340" y="26"/>
      <point x="391" y="-14"/>
      <point x="450" y="-14" type="curve" smooth="yes"/>
      <point x="477" y="-14"/>
      <point x="505" y="-6"/>
      <point x="531" y="12" type="curve" smooth="yes"/>
      <point x="585" y="48" type="line"/>
      <point x="522" y="142" type="line"/>
      <point x="479" y="112" type="line"/>
      <point x="469" y="119" type="line"/>
      <point x="509" y="306" type="line" smooth="yes"/>
      <point x="513" y="327"/>
      <point x="516" y="344"/>
      <point x="516" y="365" type="curve" smooth="yes"/>
      <point x="516" y="457"/>
      <point x="461" y="510"/>
      <point x="378" y="510" type="curve" smooth="yes"/>
      <point x="314" y="510"/>
      <point x="259" y="482"/>
      <point x="227" y="416" type="curve"/>
      <point x="209" y="416" type="line"/>
      <point x="226" y="496" type="line"/>
      <point x="105" y="496" type="line"/>
      <point x="0" y="0" type="line"/>
      <point x="126" y="0" type="line"/>
      <point x="185" y="278" type="line" smooth="yes"/>
      <point x="200" y="350"/>
      <point x="245" y="396"/>
      <point x="305" y="396" type="curve" smooth="yes"/>
      <point x="353" y="396"/>
      <point x="383" y="368"/>
      <point x="383" y="320" type="curve" smooth="yes"/>
      <point x="383" y="310"/>
      <point x="382" y="302"/>
      <point x="379" y="288" type="curve" smooth="yes"/>
    </contour>
  </outline>
</glyph>
<glyph name="o" format="1">
  <advance width="612"/>
  <unicode hex="006F"/>
  <outline>
    <contour>
      <point x="558" y="310" type="curve"/>
      <point x="558" y="430"/>
      <point x="468" y="510"/>
      <point x="342" y="510" type="curve" smooth="yes"/>
      <point x="168" y="510"/>
      <point x="33" y="390"/>
      <point x="33" y="184" type="curve" smooth="yes"/>
      <point x="33" y="58"/>
      <point x="130" y="-14"/>
      <point x="246" y="-14" type="curve" smooth="yes"/>
      <point x="452" y="-14"/>
      <point x="558" y="123"/>
    </contour>
    <contour>
      <point x="265" y="104" type="curve"/>
      <point x="203" y="104"/>
      <point x="162" y="140"/>
      <point x="162" y="208" type="curve" smooth="yes"/>
      <point x="162" y="303"/>
      <point x="230" y="392"/>
      <point x="326" y="392" type="curve" smooth="yes"/>
      <point x="388" y="392"/>
      <point x="429" y="356"/>
      <point x="429" y="287" type="curve" smooth="yes"/>
      <point x="429" y="189"/>
      <point x="362" y="106"/>
    </contour>
  </outline>
</glyph>
<glyph name="p" format="1">
  <advance width="612"/>
  <unicode hex="0070"/>
  <outline>
    <contour>
      <point x="179" y="72" type="line"/>
      <point x="197" y="72" type="line"/>
      <point x="209" y="30"/>
      <point x="253" y="-14"/>
      <point x="337" y="-14" type="curve" smooth="yes"/>
      <point x="519" y="-14"/>
      <point x="593" y="156"/>
      <point x="593" y="314" type="curve" smooth="yes"/>
      <point x="593" y="440"/>
      <point x="515" y="510"/>
      <point x="423" y="510" type="curve" smooth="yes"/>
      <point x="349" y="510"/>
      <point x="295" y="480"/>
      <point x="263" y="424" type="curve"/>
      <point x="245" y="424" type="line"/>
      <point x="236" y="477"/>
      <point x="191" y="510"/>
      <point x="138" y="510" type="curve" smooth="yes"/>
      <point x="110" y="510"/>
      <point x="79" y="500"/>
      <point x="51" y="480" type="curve" smooth="yes"/>
      <point x="-3" y="440" type="line"/>
      <point x="62" y="350" type="line"/>
      <point x="108" y="384" type="line"/>
      <point x="118" y="377" type="line"/>
      <point x="-5" y="-200" type="line"/>
      <point x="121" y="-200" type="line"/>
    </contour>
    <contour>
      <point x="313" y="106" type="curve" smooth="yes"/>
      <point x="251" y="106"/>
      <point x="212" y="148"/>
      <point x="212" y="210" type="curve" smooth="yes"/>
      <point x="212" y="314"/>
      <point x="269" y="390"/>
      <point x="359" y="390" type="curve" smooth="yes"/>
      <point x="423" y="390"/>
      <point x="461" y="342"/>
      <point x="461" y="286" type="curve" smooth="yes"/>
      <point x="461" y="182"/>
      <point x="413" y="106"/>
    </contour>
  </outline>
</glyph>
<glyph name="q" format="1">
  <advance width="612"/>
  <unicode hex="0071"/>
  <outline>
    <contour>
      <point x="256" y="106" type="curve" smooth="yes"/>
      <point x="191" y="106"/>
      <point x="152" y="141"/>
      <point x="152" y="206" type="curve" smooth="yes"/>
      <point x="152" y="302"/>
      <point x="219" y="390"/>
      <point x="316" y="390" type="curve" smooth="yes"/>
      <point x="381" y="390"/>
      <point x="420" y="353"/>
      <point x="420" y="289" type="curve" smooth="yes"/>
      <point x="420" y="194"/>
      <point x="352" y="106"/>
    </contour>
    <contour>
      <point x="346" y="-72" type="line" smooth="yes"/>
      <point x="343" y="-86"/>
      <point x="342" y="-95"/>
      <point x="342" y="-105" type="curve" smooth="yes"/>
      <point x="342" y="-171"/>
      <point x="391" y="-212"/>
      <point x="450" y="-212" type="curve" smooth="yes"/>
      <point x="477" y="-212"/>
      <point x="506" y="-204"/>
      <point x="533" y="-186" type="curve" smooth="yes"/>
      <point x="600" y="-142" type="line"/>
      <point x="537" y="-48" type="line"/>
      <point x="481" y="-86" type="line"/>
      <point x="471" y="-79" type="line"/>
      <point x="594" y="496" type="line"/>
      <point x="468" y="496" type="line"/>
      <point x="453" y="424" type="line"/>
      <point x="435" y="424" type="line"/>
      <point x="420" y="472"/>
      <point x="384" y="510"/>
      <point x="302" y="510" type="curve" smooth="yes"/>
      <point x="124" y="510"/>
      <point x="22" y="348"/>
      <point x="22" y="170" type="curve" smooth="yes"/>
      <point x="22" y="58"/>
      <point x="100" y="-14"/>
      <point x="192" y="-14" type="curve" smooth="yes"/>
      <point x="288" y="-14"/>
      <point x="332" y="28"/>
      <point x="360" y="72" type="curve"/>
      <point x="378" y="72" type="line"/>
    </contour>
  </outline>
</glyph>
<glyph name="s" format="1">
  <advance width="612"/>
  <unicode hex="0073"/>
  <outline>
    <contour>
      <point x="322" y="396" type="curve" smooth="yes"/>
      <point x="373" y="396"/>
      <point x="401" y="374"/>
      <point x="406" y="338" type="curve"/>
      <point x="528" y="370" type="line"/>
      <point x="520" y="427"/>
      <point x="476" y="510"/>
      <point x="338" y="510" type="curve" smooth="yes"/>
      <point x="226" y="510"/>
      <point x="126" y="448"/>
      <point x="126" y="335" type="curve" smooth="yes"/>
      <point x="126" y="258"/>
      <point x="187" y="209"/>
      <point x="283" y="201" type="curve" smooth="yes"/>
      <point x="354" y="195"/>
      <point x="377" y="178"/>
      <point x="377" y="150" type="curve" smooth="yes"/>
      <point x="377" y="113"/>
      <point x="336" y="100"/>
      <point x="290" y="100" type="curve" smooth="yes"/>
      <point x="222" y="100"/>
      <point x="190" y="136"/>
      <point x="186" y="180" type="curve"/>
      <point x="62" y="150" type="line"/>
      <point x="66" y="80"/>
      <point x="128" y="-14"/>
      <point x="274" y="-14" type="curve" smooth="yes"/>
      <point x="418" y="-14"/>
      <point x="506" y="58"/>
      <point x="506" y="174" type="curve" smooth="yes"/>
      <point x="506" y="252"/>
      <point x="447" y="294"/>
      <point x="361" y="304" type="curve" smooth="yes"/>
      <point x="284" y="313"/>
      <point x="255" y="324"/>
      <point x="255" y="352" type="curve" smooth="yes"/>
      <point x="255" y="384"/>
      <point x="294" y="396"/>
    </contour>
  </outline>
</glyph>
<glyph name="t" format="1">
  <advance width="612"/>
  <unicode hex="0074"/>
  <outline>
    <contour>
      <point x="163" y="126" type="line" smooth="yes"/>
      <point x="160" y="111"/>
      <point x="159" y="104"/>
      <point x="159" y="94" type="curve" smooth="yes"/>
      <point x="159" y="27"/>
      <point x="210" y="-14"/>
      <point x="269" y="-14" type="curve" smooth="yes"/>
      <point x="296" y="-14"/>
      <point x="324" y="-6"/>
      <point x="350" y="12" type="curve" smooth="yes"/>
      <point x="495" y="110" type="line"/>
      <point x="432" y="204" type="line"/>
      <point x="298" y="112" type="line"/>
      <point x="288" y="119" type="line"/>
      <point x="344" y="376" type="line"/>
      <point x="542" y="376" type="line"/>
      <point x="542" y="496" type="line"/>
      <point x="370" y="496" type="line"/>
      <point x="416" y="714" type="line"/>
      <point x="290" y="714" type="line"/>
      <point x="244" y="496" type="line"/>
      <point x="78" y="496" type="line"/>
      <point x="78" y="376" type="line"/>
      <point x="218" y="376" type="line"/>
    </contour>
  </outline>
</glyph>
<glyph name="u" format="1">
  <advance width="612"/>
  <unicode hex="0075"/>
  <outline>
    <contour>
      <point x="97" y="496" type="line"/>
      <point x="31" y="190" type="line" smooth="yes"/>
      <point x="27" y="171"/>
      <point x="25" y="153"/>
      <point x="25" y="136" type="curve" smooth="yes"/>
      <point x="25" y="42"/>
      <point x="86" y="-14"/>
      <point x="172" y="-14" type="curve" smooth="yes"/>
      <point x="234" y="-14"/>
      <point x="287" y="10"/>
      <point x="316" y="78" type="curve"/>
      <point x="334" y="78" type="line"/>
      <point x="339" y="19"/>
      <point x="387" y="-14"/>
      <point x="441" y="-14" type="curve" smooth="yes"/>
      <point x="468" y="-14"/>
      <point x="496" y="-6"/>
      <point x="521" y="12" type="curve" smooth="yes"/>
      <point x="568" y="46" type="line"/>
      <point x="505" y="138" type="line"/>
      <point x="469" y="112" type="line"/>
      <point x="458" y="118" type="line"/>
      <point x="540" y="496" type="line"/>
      <point x="414" y="496" type="line"/>
      <point x="358" y="232" type="line" smooth="yes"/>
      <point x="340" y="148"/>
      <point x="304" y="100"/>
      <point x="234" y="100" type="curve" smooth="yes"/>
      <point x="187" y="100"/>
      <point x="157" y="125"/>
      <point x="157" y="175" type="curve" smooth="yes"/>
      <point x="157" y="185"/>
      <point x="158" y="195"/>
      <point x="161" y="208" type="curve" smooth="yes"/>
      <point x="223" y="496" type="line"/>
    </contour>
  </outline>
</glyph>
<glyph name="braceright" format="1">
  <advance width="612"/>
  <unicode hex="007D"/>
  <outline>
    <contour>
      <point x="439" y="739" type="line" smooth="yes"/>
      <point x="441" y="749"/>
      <point x="443" y="760"/>
      <point x="443" y="770" type="curve" smooth="yes"/>
      <point x="443" y="825"/>
      <point x="405" y="856"/>
      <point x="345" y="856" type="curve" smooth="yes"/>
      <point x="212" y="856" type="line"/>
      <point x="212" y="736" type="line"/>
      <point x="284" y="736" type="line" smooth="yes"/>
      <point x="300" y="736"/>
      <point x="307" y="728"/>
      <point x="307" y="716" type="curve" smooth="yes"/>
      <point x="307" y="713"/>
      <point x="307" y="712"/>
      <point x="306" y="706" type="curve" smooth="yes"/>
      <point x="249" y="437" type="line" smooth="yes"/>
      <point x="248" y="431"/>
      <point x="247" y="425"/>
      <point x="247" y="419" type="curve" smooth="yes"/>
      <point x="247" y="385"/>
      <point x="270" y="359"/>
      <point x="310" y="359" type="curve" smooth="yes"/>
      <point x="316" y="359" type="line"/>
      <point x="316" y="341" type="line"/>
      <point x="307" y="341" type="line" smooth="yes"/>
      <point x="260" y="341"/>
      <point x="222" y="308"/>
      <point x="212" y="263" type="curve" smooth="yes"/>
      <point x="155" y="-6" type="line" smooth="yes"/>
      <point x="151" y="-25"/>
      <point x="140" y="-36"/>
      <point x="121" y="-36" type="curve" smooth="yes"/>
      <point x="28" y="-36" type="line"/>
      <point x="28" y="-156" type="line"/>
      <point x="147" y="-156" type="line" smooth="yes"/>
      <point x="207" y="-156"/>
      <point x="258" y="-114"/>
      <point x="271" y="-54" type="curve" smooth="yes"/>
      <point x="335" y="249" type="line" smooth="yes"/>
      <point x="339" y="268"/>
      <point x="349" y="278"/>
      <point x="368" y="278" type="curve" smooth="yes"/>
      <point x="450" y="278" type="line"/>
      <point x="450" y="422" type="line"/>
      <point x="400" y="422" type="line" smooth="yes"/>
      <point x="384" y="422"/>
      <point x="377" y="430"/>
      <point x="377" y="442" type="curve" smooth="yes"/>
      <point x="377" y="444"/>
      <point x="377" y="445"/>
      <point x="378" y="451" type="curve" smooth="yes"/>
    </contour>
  </outline>
</glyph>
<glyph name="sterling" format="1">
  <advance width="612"/>
  <unicode hex="00A3"/>
  <outline>
    <contour>
      <point x="133" y="210" type="line"/>
      <point x="60" y="210" type="line"/>
      <point x="60" y="102" type="line"/>
      <point x="452" y="102" type="line"/>
      <point x="452" y="210" type="line"/>
      <point x="247" y="210" type="line"/>
      <point x="262" y="282" type="line"/>
      <point x="344" y="282" type="line"/>
      <point x="344" y="378" type="line"/>
      <point x="283" y="378" type="line"/>
      <point x="297" y="442" type="line" smooth="yes"/>
      <point x="305" y="478"/>
      <point x="326" y="504"/>
      <point x="366" y="504" type="curve" smooth="yes"/>
      <point x="401" y="504"/>
      <point x="415" y="481"/>
      <point x="415" y="457" type="curve" smooth="yes"/>
      <point x="415" y="452"/>
      <point x="414" y="446"/>
      <point x="413" y="442" type="curve" smooth="yes"/>
      <point x="408" y="422" type="line"/>
      <point x="520" y="422" type="line"/>
      <point x="524" y="440" type="line" smooth="yes"/>
      <point x="527" y="455"/>
      <point x="528" y="464"/>
      <point x="528" y="475" type="curve" smooth="yes"/>
      <point x="528" y="551"/>
      <point x="472" y="612"/>
      <point x="384" y="612" type="curve" smooth="yes"/>
      <point x="277" y="612"/>
      <point x="209" y="564"/>
      <point x="182" y="438" type="curve" smooth="yes"/>
      <point x="169" y="378" type="line"/>
      <point x="98" y="378" type="line"/>
      <point x="98" y="282" type="line"/>
      <point x="148" y="282" type="line"/>
    </contour>
  </outline>
</glyph>
<glyph name="currency" format="1">
  <advance width="612"/>
  <unicode hex="00A4"/>
  <outline>
    <contour>
      <point x="49" y="297" type="curve" smooth="yes"/>
      <point x="49" y="270"/>
      <point x="53" y="245"/>
      <point x="62" y="223" type="curve"/>
      <point x="-13" y="160" type="line"/>
      <point x="52" y="78" type="line"/>
      <point x="127" y="140" type="line"/>
      <point x="162" y="114"/>
      <point x="207" y="100"/>
      <point x="259" y="100" type="curve" smooth="yes"/>
      <point x="311" y="100"/>
      <point x="359" y="111"/>
      <point x="399" y="131" type="curve"/>
      <point x="442" y="78" type="line"/>
      <point x="535" y="155" type="line"/>
      <point x="494" y="206" type="line"/>
      <point x="537" y="257"/>
      <point x="561" y="320"/>
      <point x="561" y="385" type="curve" smooth="yes"/>
      <point x="561" y="419"/>
      <point x="555" y="450"/>
      <point x="545" y="476" type="curve"/>
      <point x="622" y="540" type="line"/>
      <point x="557" y="622" type="line"/>
      <point x="481" y="559" type="line"/>
      <point x="444" y="586"/>
      <point x="397" y="600"/>
      <point x="347" y="600" type="curve" smooth="yes"/>
      <point x="297" y="600"/>
      <point x="251" y="588"/>
      <point x="210" y="567" type="curve"/>
      <point x="167" y="622" type="line"/>
      <point x="74" y="545" type="line"/>
      <point x="115" y="492" type="line"/>
      <point x="74" y="440"/>
      <point x="49" y="373"/>
    </contour>
    <contour>
      <point x="329" y="492" type="curve" smooth="yes"/>
      <point x="404" y="492"/>
      <point x="450" y="441"/>
      <point x="450" y="367" type="curve" smooth="yes"/>
      <point x="450" y="273"/>
      <point x="362" y="208"/>
      <point x="279" y="208" type="curve" smooth="yes"/>
      <point x="205" y="208"/>
      <point x="159" y="254"/>
      <point x="159" y="323" type="curve" smooth="yes"/>
      <point x="159" y="412"/>
      <point x="227" y="492"/>
    </contour>
  </outline>
</glyph>
<glyph name="guillemotleft" format="1">
  <advance width="612"/>
  <unicode hex="00AB"/>
  <outline>
    <contour>
      <point x="481" y="0" type="line"/>
      <point x="481" y="146" type="line"/>
      <point x="371" y="234" type="line"/>
      <point x="371" y="252" type="line"/>
      <point x="586" y="372" type="line"/>
      <point x="586" y="496" type="line"/>
      <point x="580" y="496" type="line"/>
      <point x="281" y="330" type="line"/>
      <point x="281" y="162" type="line"/>
      <point x="475" y="0" type="line"/>
    </contour>
    <contour>
      <point x="229" y="0" type="line"/>
      <point x="229" y="146" type="line"/>
      <point x="119" y="234" type="line"/>
      <point x="119" y="252" type="line"/>
      <point x="334" y="372" type="line"/>
      <point x="334" y="496" type="line"/>
      <point x="328" y="496" type="line"/>
      <point x="29" y="330" type="line"/>
      <point x="29" y="162" type="line"/>
      <point x="223" y="0" type="line"/>
    </contour>
  </outline>
</glyph>
<glyph name="registered" format="1">
  <advance width="612"/>
  <unicode hex="00AE"/>
  <outline>
    <contour>
      <point x="28" y="556" type="curve" smooth="yes"/>
      <point x="28" y="403"/>
      <point x="153" y="278"/>
      <point x="306" y="278" type="curve" smooth="yes"/>
      <point x="459" y="278"/>
      <point x="584" y="403"/>
      <point x="584" y="556" type="curve" smooth="yes"/>
      <point x="584" y="709"/>
      <point x="459" y="834"/>
      <point x="306" y="834" type="curve" smooth="yes"/>
      <point x="153" y="834"/>
      <point x="28" y="709"/>
    </contour>
    <contour>
      <point x="106" y="556" type="curve" smooth="yes"/>
      <point x="106" y="667"/>
      <point x="195" y="756"/>
      <point x="306" y="756" type="curve" smooth="yes"/>
      <point x="417" y="756"/>
      <point x="506" y="667"/>
      <point x="506" y="556" type="curve" smooth="yes"/>
      <point x="506" y="445"/>
      <point x="417" y="356"/>
      <point x="306" y="356" type="curve" smooth="yes"/>
      <point x="195" y="356"/>
      <point x="106" y="445"/>
    </contour>
    <contour>
      <point x="408" y="502" type="line" smooth="yes"/>
      <point x="408" y="521"/>
      <point x="398" y="540"/>
      <point x="374" y="542" type="curve"/>
      <point x="374" y="551" type="line"/>
      <point x="402" y="562"/>
      <point x="414" y="584"/>
      <point x="414" y="620" type="curve" smooth="yes"/>
      <point x="414" y="662"/>
      <point x="382" y="700"/>
      <point x="322" y="700" type="curve" smooth="yes"/>
      <point x="216" y="700" type="line"/>
      <point x="216" y="412" type="line"/>
      <point x="294" y="412" type="line"/>
      <point x="294" y="508" type="line"/>
      <point x="305" y="508" type="line" smooth="yes"/>
      <point x="321" y="508"/>
      <point x="330" y="497"/>
      <point x="330" y="483" type="curve" smooth="yes"/>
      <point x="330" y="412" type="line"/>
      <point x="408" y="412" type="line"/>
    </contour>
    <contour>
      <point x="294" y="628" type="line"/>
      <point x="310" y="628" type="line" smooth="yes"/>
      <point x="326" y="628"/>
      <point x="336" y="620"/>
      <point x="336" y="604" type="curve" smooth="yes"/>
      <point x="336" y="588"/>
      <point x="326" y="580"/>
      <point x="310" y="580" type="curve" smooth="yes"/>
      <point x="294" y="580" type="line"/>
    </contour>
  </outline>
</glyph>
<glyph name="degree" format="1">
  <advance width="612"/>
  <unicode hex="00B0"/>
  <outline>
    <contour>
      <point x="198" y="569" type="curve" smooth="yes"/>
      <point x="198" y="482"/>
      <point x="268" y="412"/>
      <point x="355" y="412" type="curve" smooth="yes"/>
      <point x="442" y="412"/>
      <point x="512" y="482"/>
      <point x="512" y="569" type="curve" smooth="yes"/>
      <point x="512" y="656"/>
      <point x="442" y="726"/>
      <point x="355" y="726" type="curve" smooth="yes"/>
      <point x="268" y="726"/>
      <point x="198" y="656"/>
    </contour>
    <contour>
      <point x="306" y="569" type="curve" smooth="yes"/>
      <point x="306" y="596"/>
      <point x="328" y="618"/>
      <point x="355" y="618" type="curve" smooth="yes"/>
      <point x="382" y="618"/>
      <point x="404" y="596"/>
      <point x="404" y="569" type="curve" smooth="yes"/>
      <point x="404" y="542"/>
      <point x="382" y="520"/>
      <point x="355" y="520" type="curve" smooth="yes"/>
      <point x="328" y="520"/>
      <point x="306" y="542"/>
    </contour>
  </outline>
</glyph>
<glyph name="mu" format="1">
  <advance width="612"/>
  <unicode hex="00B5"/>
  <outline>
    <contour>
      <point x="573" y="496" type="line"/>
      <point x="447" y="496" type="line"/>
      <point x="389" y="220" type="line" smooth="yes"/>
      <point x="375" y="154"/>
      <point x="338" y="100"/>
      <point x="258" y="100" type="curve" smooth="yes"/>
      <point x="196" y="100"/>
      <point x="174" y="132"/>
      <point x="174" y="178" type="curve" smooth="yes"/>
      <point x="174" y="191"/>
      <point x="176" y="205"/>
      <point x="179" y="220" type="curve" smooth="yes"/>
      <point x="237" y="496" type="line"/>
      <point x="111" y="496" type="line"/>
      <point x="-36" y="-200" type="line"/>
      <point x="90" y="-200" type="line"/>
      <point x="139" y="36" type="line"/>
      <point x="157" y="36" type="line"/>
      <point x="167" y="8"/>
      <point x="195" y="-14"/>
      <point x="253" y="-14" type="curve" smooth="yes"/>
      <point x="295" y="-14"/>
      <point x="345" y="6"/>
      <point x="357" y="60" type="curve"/>
      <point x="375" y="60" type="line"/>
      <point x="381" y="13"/>
      <point x="426" y="-14"/>
      <point x="476" y="-14" type="curve" smooth="yes"/>
      <point x="503" y="-14"/>
      <point x="531" y="-6"/>
      <point x="556" y="12" type="curve" smooth="yes"/>
      <point x="603" y="46" type="line"/>
      <point x="540" y="138" type="line"/>
      <point x="504" y="112" type="line"/>
      <point x="493" y="118" type="line"/>
    </contour>
  </outline>
</glyph>
<glyph name="paragraph" format="1">
  <advance width="612"/>
  <unicode hex="00B6"/>
  <outline>
    <contour>
      <point x="200" y="218" type="line"/>
      <point x="308" y="218" type="line"/>
      <point x="392" y="612" type="line"/>
      <point x="422" y="612" type="line"/>
      <point x="338" y="218" type="line"/>
      <point x="446" y="218" type="line"/>
      <point x="549" y="702" type="line"/>
      <point x="549" y="714" type="line"/>
      <point x="293" y="714" type="line" smooth="yes"/>
      <point x="178" y="714"/>
      <point x="115" y="634"/>
      <point x="115" y="551" type="curve" smooth="yes"/>
      <point x="115" y="480"/>
      <point x="168" y="424"/>
      <point x="235" y="424" type="curve" smooth="yes"/>
      <point x="244" y="424" type="line"/>
    </contour>
    <contour>
      <point x="253" y="526" type="line" smooth="yes"/>
      <point x="236" y="526"/>
      <point x="219" y="537"/>
      <point x="219" y="560" type="curve" smooth="yes"/>
      <point x="219" y="589"/>
      <point x="238" y="612"/>
      <point x="272" y="612" type="curve" smooth="yes"/>
      <point x="284" y="612" type="line"/>
      <point x="265" y="526" type="line"/>
    </contour>
  </outline>
</glyph>
<glyph name="periodcentered" format="1">
  <advance width="612"/>
  <unicode hex="00B7"/>
  <outline>
    <contour>
      <point x="401" y="350" type="curve" smooth="yes"/>
      <point x="401" y="403"/>
      <point x="358" y="445"/>
      <point x="306" y="445" type="curve" smooth="yes"/>
      <point x="254" y="445"/>
      <point x="211" y="403"/>
      <point x="211" y="350" type="curve" smooth="yes"/>
      <point x="211" y="297"/>
      <point x="254" y="255"/>
      <point x="306" y="255" type="curve" smooth="yes"/>
      <point x="358" y="255"/>
      <point x="401" y="297"/>
    </contour>
  </outline>
</glyph>
<glyph name="ordmasculine" format="1">
  <advance width="612"/>
  <unicode hex="00BA"/>
  <outline>
    <contour>
      <point x="200" y="536" type="curve" smooth="yes"/>
      <point x="200" y="445"/>
      <point x="261" y="406"/>
      <point x="335" y="406" type="curve" smooth="yes"/>
      <point x="426" y="406"/>
      <point x="506" y="474"/>
      <point x="506" y="583" type="curve" smooth="yes"/>
      <point x="506" y="663"/>
      <point x="446" y="706"/>
      <point x="377" y="706" type="curve" smooth="yes"/>
      <point x="268" y="706"/>
      <point x="200" y="624"/>
    </contour>
    <contour>
      <point x="340" y="484" type="curve" smooth="yes"/>
      <point x="308" y="484"/>
      <point x="285" y="500"/>
      <point x="285" y="539" type="curve" smooth="yes"/>
      <point x="285" y="586"/>
      <point x="318" y="628"/>
      <point x="366" y="628" type="curve" smooth="yes"/>
      <point x="404" y="628"/>
      <point x="420" y="604"/>
      <point x="420" y="570" type="curve" smooth="yes"/>
      <point x="420" y="522"/>
      <point x="388" y="484"/>
    </contour>
  </outline>
</glyph>
<glyph name="guillemotright" format="1">
  <advance width="612"/>
  <unicode hex="00BB"/>
  <outline>
    <contour>
      <point x="105" y="496" type="line"/>
      <point x="105" y="350" type="line"/>
      <point x="215" y="262" type="line"/>
      <point x="215" y="244" type="line"/>
      <point x="0" y="124" type="line"/>
      <point x="0" y="0" type="line"/>
      <point x="6" y="0" type="line"/>
      <point x="305" y="166" type="line"/>
      <point x="305" y="334" type="line"/>
      <point x="111" y="496" type="line"/>
    </contour>
    <contour>
      <point x="357" y="496" type="line"/>
      <point x="357" y="350" type="line"/>
      <point x="467" y="262" type="line"/>
      <point x="467" y="244" type="line"/>
      <point x="252" y="124" type="line"/>
      <point x="252" y="0" type="line"/>
      <point x="258" y="0" type="line"/>
      <point x="557" y="166" type="line"/>
      <point x="557" y="334" type="line"/>
      <point x="363" y="496" type="line"/>
    </contour>
  </outline>
</glyph>
<glyph name="Eth" format="1">
  <advance width="612"/>
  <unicode hex="00D0"/>
  <outline>
    <contour>
      <point x="51" y="290" type="line"/>
      <point x="109" y="290" type="line"/>
      <point x="74" y="126" type="line"/>
      <point x="2" y="126" type="line"/>
      <point x="2" y="0" type="line"/>
      <point x="223" y="0" type="line" smooth="yes"/>
      <point x="404" y="0"/>
      <point x="495" y="72"/>
      <point x="531" y="242" type="curve" smooth="yes"/>
      <point x="575" y="452" type="line" smooth="yes"/>
      <point x="579" y="473"/>
      <point x="582" y="493"/>
      <point x="582" y="512" type="curve" smooth="yes"/>
      <point x="582" y="625"/>
      <point x="503" y="700"/>
      <point x="368" y="700" type="curve" smooth="yes"/>
      <point x="103" y="700" type="line"/>
      <point x="103" y="574" type="line"/>
      <point x="169" y="574" type="line"/>
      <point x="134" y="410" type="line"/>
      <point x="51" y="410" type="line"/>
    </contour>
    <contour>
      <point x="250" y="126" type="curve"/>
      <point x="206" y="126" type="line"/>
      <point x="241" y="290" type="line"/>
      <point x="339" y="290" type="line"/>
      <point x="339" y="410" type="line"/>
      <point x="266" y="410" type="line"/>
      <point x="301" y="574" type="line"/>
      <point x="345" y="574" type="line" smooth="yes"/>
      <point x="415" y="574"/>
      <point x="448" y="544"/>
      <point x="448" y="490" type="curve" smooth="yes"/>
      <point x="448" y="478"/>
      <point x="445" y="462"/>
      <point x="443" y="452" type="curve" smooth="yes"/>
      <point x="402" y="260" type="line" smooth="yes"/>
      <point x="383" y="168"/>
      <point x="342" y="126"/>
    </contour>
  </outline>
</glyph>
<glyph name="Oslash" format="1">
  <advance width="612"/>
  <unicode hex="00D8"/>
  <outline>
    <contour>
      <point x="32" y="272" type="line" smooth="yes"/>
      <point x="27" y="249"/>
      <point x="25" y="226"/>
      <point x="25" y="204" type="curve" smooth="yes"/>
      <point x="25" y="140"/>
      <point x="46" y="85"/>
      <point x="85" y="46" type="curve"/>
      <point x="40" y="-37" type="line"/>
      <point x="131" y="-93" type="line"/>
      <point x="178" y="-6" type="line"/>
      <point x="198" y="-11"/>
      <point x="220" y="-14"/>
      <point x="245" y="-14" type="curve" smooth="yes"/>
      <point x="413" y="-14"/>
      <point x="507" y="76"/>
      <point x="548" y="272" type="curve" smooth="yes"/>
      <point x="581" y="428" type="line" smooth="yes"/>
      <point x="586" y="451"/>
      <point x="588" y="474"/>
      <point x="588" y="496" type="curve" smooth="yes"/>
      <point x="588" y="557"/>
      <point x="568" y="611"/>
      <point x="532" y="650" type="curve"/>
      <point x="574" y="728" type="line"/>
      <point x="482" y="781" type="line"/>
      <point x="440" y="704" type="line"/>
      <point x="418" y="710"/>
      <point x="394" y="714"/>
      <point x="368" y="714" type="curve" smooth="yes"/>
      <point x="200" y="714"/>
      <point x="106" y="624"/>
      <point x="65" y="428" type="curve" smooth="yes"/>
    </contour>
    <contour>
      <point x="156" y="214" type="curve" smooth="yes"/>
      <point x="156" y="229"/>
      <point x="158" y="246"/>
      <point x="162" y="264" type="curve" smooth="yes"/>
      <point x="199" y="436" type="line" smooth="yes"/>
      <point x="218" y="524"/>
      <point x="265" y="594"/>
      <point x="356" y="594" type="curve" smooth="yes"/>
      <point x="364" y="594"/>
      <point x="372" y="593"/>
      <point x="380" y="592" type="curve"/>
      <point x="159" y="183" type="line"/>
      <point x="157" y="192"/>
      <point x="156" y="203"/>
    </contour>
    <contour>
      <point x="257" y="106" type="curve" smooth="yes"/>
      <point x="251" y="106"/>
      <point x="244" y="106"/>
      <point x="239" y="107" type="curve"/>
      <point x="455" y="508" type="line"/>
      <point x="456" y="501"/>
      <point x="457" y="494"/>
      <point x="457" y="486" type="curve" smooth="yes"/>
      <point x="457" y="471"/>
      <point x="455" y="457"/>
      <point x="451" y="436" type="curve" smooth="yes"/>
      <point x="414" y="264" type="line" smooth="yes"/>
      <point x="395" y="176"/>
      <point x="348" y="106"/>
    </contour>
  </outline>
</glyph>
<glyph name="germandbls" format="1">
  <advance width="612"/>
  <unicode hex="00DF"/>
  <outline>
    <contour>
      <point x="350" y="364" type="line"/>
      <point x="463" y="375"/>
      <point x="545" y="438"/>
      <point x="545" y="553" type="curve" smooth="yes"/>
      <point x="545" y="657"/>
      <point x="469" y="714"/>
      <point x="352" y="714" type="curve" smooth="yes"/>
      <point x="227" y="714"/>
      <point x="131" y="650"/>
      <point x="108" y="514" type="curve" smooth="yes"/>
      <point x="105" y="496" type="line"/>
      <point x="31" y="496" type="line"/>
      <point x="31" y="376" type="line"/>
      <point x="79" y="376" type="line"/>
      <point x="0" y="0" type="line"/>
      <point x="125" y="0" type="line"/>
      <point x="231" y="496" type="line" smooth="yes"/>
      <point x="244" y="560"/>
      <point x="284" y="594"/>
      <point x="345" y="594" type="curve" smooth="yes"/>
      <point x="387" y="594"/>
      <point x="415" y="569"/>
      <point x="415" y="536" type="curve" smooth="yes"/>
      <point x="415" y="487"/>
      <point x="376" y="466"/>
      <point x="328" y="466" type="curve" smooth="yes"/>
      <point x="266" y="466" type="line"/>
      <point x="266" y="238" type="line"/>
      <point x="336" y="238" type="line" smooth="yes"/>
      <point x="387" y="238"/>
      <point x="418" y="216"/>
      <point x="418" y="173" type="curve" smooth="yes"/>
      <point x="418" y="133"/>
      <point x="392" y="106"/>
      <point x="352" y="106" type="curve" smooth="yes"/>
      <point x="321" y="106"/>
      <point x="306" y="124"/>
      <point x="306" y="154" type="curve"/>
      <point x="183" y="132" type="line"/>
      <point x="183" y="56"/>
      <point x="237" y="-14"/>
      <point x="343" y="-14" type="curve" smooth="yes"/>
      <point x="479" y="-14"/>
      <point x="548" y="76"/>
      <point x="548" y="187" type="curve" smooth="yes"/>
      <point x="548" y="293"/>
      <point x="468" y="346"/>
      <point x="377" y="346" type="curve" smooth="yes"/>
      <point x="350" y="346" type="line"/>
    </contour>
  </outline>
</glyph>
<glyph name="eth" format="1">
  <advance width="612"/>
  <unicode hex="00F0"/>
  <outline>
    <contour>
      <point x="427" y="464" type="curve"/>
      <point x="409" y="464" type="line"/>
      <point x="392" y="492"/>
      <point x="357" y="510"/>
      <point x="292" y="510" type="curve" smooth="yes"/>
      <point x="122" y="510"/>
      <point x="12" y="354"/>
      <point x="12" y="199" type="curve" smooth="yes"/>
      <point x="12" y="62"/>
      <point x="100" y="-14"/>
      <point x="230" y="-14" type="curve" smooth="yes"/>
      <point x="466" y="-14"/>
      <point x="560" y="202"/>
      <point x="560" y="388" type="curve" smooth="yes"/>
      <point x="560" y="538"/>
      <point x="504" y="632"/>
      <point x="409" y="683" type="curve"/>
      <point x="424" y="710" type="line"/>
      <point x="340" y="752" type="line"/>
      <point x="320" y="715" type="line"/>
      <point x="295" y="721"/>
      <point x="269" y="725"/>
      <point x="241" y="728" type="curve"/>
      <point x="197" y="614" type="line"/>
      <point x="220" y="612"/>
      <point x="241" y="609"/>
      <point x="262" y="605" type="curve"/>
      <point x="246" y="576" type="line"/>
      <point x="330" y="534" type="line"/>
      <point x="350" y="572" type="line"/>
      <point x="392" y="547"/>
      <point x="420" y="511"/>
    </contour>
    <contour>
      <point x="244" y="106" type="curve" smooth="yes"/>
      <point x="180" y="106"/>
      <point x="140" y="140"/>
      <point x="140" y="206" type="curve" smooth="yes"/>
      <point x="140" y="301"/>
      <point x="209" y="390"/>
      <point x="305" y="390" type="curve" smooth="yes"/>
      <point x="370" y="390"/>
      <point x="410" y="353"/>
      <point x="410" y="290" type="curve" smooth="yes"/>
      <point x="410" y="193"/>
      <point x="339" y="106"/>
    </contour>
  </outline>
</glyph>
<glyph name="thorn" format="1">
  <advance width="612"/>
  <unicode hex="00FE"/>
  <outline>
    <contour>
      <point x="140" y="72" type="line"/>
      <point x="158" y="72" type="line"/>
      <point x="170" y="30"/>
      <point x="214" y="-14"/>
      <point x="298" y="-14" type="curve" smooth="yes"/>
      <point x="480" y="-14"/>
      <point x="554" y="156"/>
      <point x="554" y="314" type="curve" smooth="yes"/>
      <point x="554" y="440"/>
      <point x="476" y="510"/>
      <point x="384" y="510" type="curve" smooth="yes"/>
      <point x="310" y="510"/>
      <point x="262" y="480"/>
      <point x="230" y="424" type="curve"/>
      <point x="212" y="424" type="line"/>
      <point x="276" y="714" type="line"/>
      <point x="150" y="714" type="line"/>
      <point x="-44" y="-200" type="line"/>
      <point x="82" y="-200" type="line"/>
    </contour>
    <contour>
      <point x="274" y="106" type="curve" smooth="yes"/>
      <point x="212" y="106"/>
      <point x="173" y="148"/>
      <point x="173" y="210" type="curve" smooth="yes"/>
      <point x="173" y="314"/>
      <point x="230" y="390"/>
      <point x="320" y="390" type="curve" smooth="yes"/>
      <point x="384" y="390"/>
      <point x="422" y="342"/>
      <point x="422" y="273" type="curve" smooth="yes"/>
      <point x="422" y="182"/>
      <point x="374" y="106"/>
    </contour>
  </outline>
</glyph>
<glyph name="aogonek" format="1">
  <advance width="612"/>
  <unicode hex="0105"/>
  <outline>
    <contour>
      <point x="559" y="496" type="line"/>
      <point x="433" y="496" type="line"/>
      <point x="419" y="430" type="line"/>
      <point x="401" y="430" type="line"/>
      <point x="386" y="478"/>
      <point x="344" y="510"/>
      <point x="271" y="510" type="curve" smooth="yes"/>
      <point x="105" y="510"/>
      <point x="6" y="368"/>
      <point x="6" y="190" type="curve" smooth="yes"/>
      <point x="6" y="74"/>
      <point x="85" y="-14"/>
      <point x="188" y="-14" type="curve" smooth="yes"/>
      <point x="274" y="-14"/>
      <point x="311" y="22"/>
      <point x="335" y="66" type="curve"/>
      <point x="353" y="66" type="line"/>
      <point x="358" y="40"/>
      <point x="372" y="20"/>
      <point x="392" y="6" type="curve"/>
      <point x="352" y="-23" type="line" smooth="yes"/>
      <point x="324" y="-44"/>
      <point x="311" y="-70"/>
      <point x="311" y="-95" type="curve" smooth="yes"/>
      <point x="311" y="-135"/>
      <point x="342" y="-170"/>
      <point x="390" y="-170" type="curve" smooth="yes"/>
      <point x="514" y="-170" type="line"/>
      <point x="514" y="-86" type="line"/>
      <point x="451" y="-86" type="line" smooth="yes"/>
      <point x="440" y="-86"/>
      <point x="434" y="-79"/>
      <point x="434" y="-72" type="curve" smooth="yes"/>
      <point x="434" y="-66"/>
      <point x="437" y="-62"/>
      <point x="442" y="-58" type="curve" smooth="yes"/>
      <point x="600" y="52" type="line"/>
      <point x="537" y="146" type="line"/>
      <point x="489" y="112" type="line"/>
      <point x="479" y="119" type="line"/>
    </contour>
    <contour>
      <point x="237" y="106" type="curve" smooth="yes"/>
      <point x="169" y="106"/>
      <point x="137" y="156"/>
      <point x="137" y="212" type="curve" smooth="yes"/>
      <point x="137" y="308"/>
      <point x="191" y="390"/>
      <point x="287" y="390" type="curve" smooth="yes"/>
      <point x="347" y="390"/>
      <point x="386" y="346"/>
      <point x="386" y="284" type="curve" smooth="yes"/>
      <point x="386" y="188"/>
      <point x="333" y="106"/>
    </contour>
  </outline>
</glyph>
<glyph name="Eogonek" format="1">
  <advance width="612"/>
  <unicode hex="0118"/>
  <outline>
    <contour>
      <point x="18" y="0" type="line"/>
      <point x="383" y="0" type="line"/>
      <point x="354" y="-66" type="line" smooth="yes"/>
      <point x="347" y="-82"/>
      <point x="344" y="-96"/>
      <point x="344" y="-109" type="curve" smooth="yes"/>
      <point x="344" y="-147"/>
      <point x="372" y="-170"/>
      <point x="414" y="-170" type="curve" smooth="yes"/>
      <point x="496" y="-170" type="line"/>
      <point x="496" y="-86" type="line"/>
      <point x="459" y="-86" type="line" smooth="yes"/>
      <point x="446" y="-86"/>
      <point x="440" y="-80"/>
      <point x="440" y="-70" type="curve" smooth="yes"/>
      <point x="440" y="-64"/>
      <point x="441" y="-61"/>
      <point x="443" y="-56" type="curve" smooth="yes"/>
      <point x="469" y="0" type="line"/>
      <point x="469" y="126" type="line"/>
      <point x="174" y="126" type="line"/>
      <point x="208" y="288" type="line"/>
      <point x="506" y="288" type="line"/>
      <point x="506" y="414" type="line"/>
      <point x="235" y="414" type="line"/>
      <point x="269" y="574" type="line"/>
      <point x="579" y="574" type="line"/>
      <point x="579" y="700" type="line"/>
      <point x="164" y="700" type="line"/>
      <point x="18" y="12" type="line"/>
    </contour>
  </outline>
</glyph>
<glyph name="uni0122" format="1">
  <advance width="612"/>
  <unicode hex="0122"/>
  <outline>
    <contour>
      <point x="105" y="-134" type="curve" smooth="yes"/>
      <point x="105" y="-192"/>
      <point x="150" y="-218"/>
      <point x="193" y="-218" type="curve"/>
      <point x="190" y="-237" type="line" smooth="yes"/>
      <point x="187" y="-256"/>
      <point x="176" y="-260"/>
      <point x="154" y="-260" type="curve" smooth="yes"/>
      <point x="112" y="-260" type="line"/>
      <point x="112" y="-338" type="line"/>
      <point x="160" y="-338" type="line" smooth="yes"/>
      <point x="212" y="-338"/>
      <point x="251" y="-316"/>
      <point x="261" y="-269" type="curve" smooth="yes"/>
      <point x="285" y="-155" type="line" smooth="yes"/>
      <point x="286" y="-148"/>
      <point x="287" y="-141"/>
      <point x="287" y="-135" type="curve" smooth="yes"/>
      <point x="287" y="-85"/>
      <point x="245" y="-44"/>
      <point x="196" y="-44" type="curve" smooth="yes"/>
      <point x="146" y="-44"/>
      <point x="105" y="-83"/>
    </contour>
    <component base="G"/>
  </outline>
</glyph>
<glyph name="uni0123" format="1">
  <advance width="612"/>
  <unicode hex="0123"/>
  <outline>
    <contour>
      <point x="435" y="664" type="curve" smooth="yes"/>
      <point x="435" y="724"/>
      <point x="390" y="748"/>
      <point x="347" y="748" type="curve"/>
      <point x="350" y="766" type="line" smooth="yes"/>
      <point x="354" y="785"/>
      <point x="365" y="790"/>
      <point x="386" y="790" type="curve" smooth="yes"/>
      <point x="453" y="790" type="line"/>
      <point x="453" y="868" type="line"/>
      <point x="380" y="868" type="line" smooth="yes"/>
      <point x="328" y="868"/>
      <point x="289" y="846"/>
      <point x="279" y="798" type="curve" smooth="yes"/>
      <point x="256" y="684" type="line" smooth="yes"/>
      <point x="255" y="678"/>
      <point x="254" y="671"/>
      <point x="254" y="665" type="curve" smooth="yes"/>
      <point x="254" y="614"/>
      <point x="295" y="574"/>
      <point x="345" y="574" type="curve" smooth="yes"/>
      <point x="394" y="574"/>
      <point x="435" y="612"/>
    </contour>
    <component base="g"/>
  </outline>
</glyph>
<glyph name="IJ" format="1">
  <advance width="612"/>
  <unicode hex="0132"/>
  <outline>
    <contour>
      <point x="133" y="700" type="line"/>
      <point x="57" y="342" type="line"/>
      <point x="189" y="342" type="line"/>
      <point x="265" y="700" type="line"/>
    </contour>
    <contour>
      <point x="557" y="576" type="line"/>
      <point x="624" y="576" type="line"/>
      <point x="624" y="700" type="line"/>
      <point x="350" y="700" type="line"/>
      <point x="350" y="576" type="line"/>
      <point x="425" y="576" type="line"/>
      <point x="347" y="210" type="line" smooth="yes"/>
      <point x="334" y="146"/>
      <point x="293" y="110"/>
      <point x="236" y="110" type="curve" smooth="yes"/>
      <point x="185" y="110"/>
      <point x="158" y="136"/>
      <point x="158" y="181" type="curve" smooth="yes"/>
      <point x="158" y="190"/>
      <point x="159" y="201"/>
      <point x="161" y="210" type="curve" smooth="yes"/>
      <point x="175" y="276" type="line"/>
      <point x="43" y="276" type="line"/>
      <point x="33" y="229" type="line" smooth="yes"/>
      <point x="28" y="207"/>
      <point x="26" y="186"/>
      <point x="26" y="167" type="curve" smooth="yes"/>
      <point x="26" y="51"/>
      <point x="107" y="-14"/>
      <point x="218" y="-14" type="curve" smooth="yes"/>
      <point x="366" y="-14"/>
      <point x="445" y="52"/>
      <point x="479" y="210" type="curve" smooth="yes"/>
    </contour>
  </outline>
</glyph>
<glyph name="jcircumflex" format="1">
  <advance width="612"/>
  <unicode hex="0135"/>
  <outline>
    <contour>
      <point x="461" y="370" type="line"/>
      <point x="463" y="381"/>
      <point x="464" y="392"/>
      <point x="464" y="402" type="curve" smooth="yes"/>
      <point x="464" y="470"/>
      <point x="415" y="510"/>
      <point x="356" y="510" type="curve" smooth="yes"/>
      <point x="329" y="510"/>
      <point x="301" y="502"/>
      <point x="274" y="484" type="curve" smooth="yes"/>
      <point x="129" y="386" type="line"/>
      <point x="192" y="292" type="line"/>
      <point x="326" y="384" type="line"/>
      <point x="336" y="377" type="line"/>
      <point x="242" y="-47" type="line" smooth="yes"/>
      <point x="237" y="-68"/>
      <point x="226" y="-80"/>
      <point x="205" y="-80" type="curve" smooth="yes"/>
      <point x="0" y="-80" type="line"/>
      <point x="0" y="-200" type="line"/>
      <point x="235" y="-200" type="line" smooth="yes"/>
      <point x="295" y="-200"/>
      <point x="342" y="-167"/>
      <point x="357" y="-98" type="curve" smooth="yes"/>
    </contour>
    <component base="circumflex" xOffset="44"/>
  </outline>
</glyph>
<glyph name="uni0136" format="1">
  <advance width="612"/>
  <unicode hex="0136"/>
  <outline>
    <contour>
      <point x="146" y="-134" type="curve" smooth="yes"/>
      <point x="146" y="-192"/>
      <point x="191" y="-218"/>
      <point x="234" y="-218" type="curve"/>
      <point x="231" y="-237" type="line" smooth="yes"/>
      <point x="228" y="-256"/>
      <point x="217" y="-260"/>
      <point x="195" y="-260" type="curve" smooth="yes"/>
      <point x="146" y="-260" type="line"/>
      <point x="146" y="-338" type="line"/>
      <point x="201" y="-338" type="line" smooth="yes"/>
      <point x="253" y="-338"/>
      <point x="292" y="-316"/>
      <point x="302" y="-269" type="curve" smooth="yes"/>
      <point x="326" y="-155" type="line" smooth="yes"/>
      <point x="327" y="-148"/>
      <point x="328" y="-141"/>
      <point x="328" y="-135" type="curve" smooth="yes"/>
      <point x="328" y="-85"/>
      <point x="286" y="-44"/>
      <point x="237" y="-44" type="curve" smooth="yes"/>
      <point x="187" y="-44"/>
      <point x="146" y="-83"/>
    </contour>
    <component base="K"/>
  </outline>
</glyph>
<glyph name="uni013C" format="1">
  <advance width="612"/>
  <unicode hex="013C"/>
  <outline>
    <contour>
      <point x="142" y="-134" type="curve" smooth="yes"/>
      <point x="142" y="-192"/>
      <point x="187" y="-218"/>
      <point x="230" y="-218" type="curve"/>
      <point x="227" y="-237" type="line" smooth="yes"/>
      <point x="224" y="-256"/>
      <point x="213" y="-260"/>
      <point x="191" y="-260" type="curve" smooth="yes"/>
      <point x="149" y="-260" type="line"/>
      <point x="149" y="-338" type="line"/>
      <point x="197" y="-338" type="line" smooth="yes"/>
      <point x="249" y="-338"/>
      <point x="288" y="-316"/>
      <point x="298" y="-269" type="curve" smooth="yes"/>
      <point x="322" y="-155" type="line" smooth="yes"/>
      <point x="323" y="-148"/>
      <point x="324" y="-141"/>
      <point x="324" y="-135" type="curve" smooth="yes"/>
      <point x="324" y="-85"/>
      <point x="282" y="-44"/>
      <point x="233" y="-44" type="curve" smooth="yes"/>
      <point x="183" y="-44"/>
      <point x="142" y="-83"/>
    </contour>
    <component base="l"/>
  </outline>
</glyph>
<glyph name="Lcaron" format="1">
  <advance width="612"/>
  <unicode hex="013D"/>
  <outline>
    <contour>
      <point x="15" y="0" type="line"/>
      <point x="475" y="0" type="line"/>
      <point x="475" y="126" type="line"/>
      <point x="171" y="126" type="line"/>
      <point x="293" y="700" type="line"/>
      <point x="161" y="700" type="line"/>
      <point x="15" y="12" type="line"/>
    </contour>
    <contour>
      <point x="415" y="610" type="curve" smooth="yes"/>
      <point x="415" y="550"/>
      <point x="459" y="523"/>
      <point x="503" y="523" type="curve"/>
      <point x="500" y="508" type="line" smooth="yes"/>
      <point x="497" y="491"/>
      <point x="486" y="484"/>
      <point x="467" y="484" type="curve" smooth="yes"/>
      <point x="392" y="484" type="line"/>
      <point x="392" y="406" type="line"/>
      <point x="470" y="406" type="line" smooth="yes"/>
      <point x="522" y="406"/>
      <point x="561" y="428"/>
      <point x="571" y="476" type="curve" smooth="yes"/>
      <point x="595" y="590" type="line" smooth="yes"/>
      <point x="596" y="596"/>
      <point x="597" y="603"/>
      <point x="597" y="609" type="curve" smooth="yes"/>
      <point x="597" y="660"/>
      <point x="555" y="700"/>
      <point x="506" y="700" type="curve" smooth="yes"/>
      <point x="456" y="700"/>
      <point x="415" y="662"/>
    </contour>
  </outline>
</glyph>
<glyph name="uni0145" format="1">
  <advance width="612"/>
  <unicode hex="0145"/>
  <outline>
    <contour>
      <point x="76" y="-134" type="curve" smooth="yes"/>
      <point x="76" y="-192"/>
      <point x="121" y="-218"/>
      <point x="164" y="-218" type="curve"/>
      <point x="161" y="-237" type="line" smooth="yes"/>
      <point x="158" y="-256"/>
      <point x="147" y="-260"/>
      <point x="125" y="-260" type="curve" smooth="yes"/>
      <point x="83" y="-260" type="line"/>
      <point x="83" y="-338" type="line"/>
      <point x="131" y="-338" type="line" smooth="yes"/>
      <point x="183" y="-338"/>
      <point x="222" y="-316"/>
      <point x="232" y="-269" type="curve" smooth="yes"/>
      <point x="256" y="-155" type="line" smooth="yes"/>
      <point x="257" y="-148"/>
      <point x="258" y="-141"/>
      <point x="258" y="-135" type="curve" smooth="yes"/>
      <point x="258" y="-85"/>
      <point x="216" y="-44"/>
      <point x="167" y="-44" type="curve" smooth="yes"/>
      <point x="117" y="-44"/>
      <point x="76" y="-83"/>
    </contour>
    <component base="N"/>
  </outline>
</glyph>
<glyph name="eng" format="1">
  <advance width="612"/>
  <unicode hex="014B"/>
  <outline>
    <contour>
      <point x="323" y="-47" type="line" smooth="yes"/>
      <point x="318" y="-68"/>
      <point x="307" y="-80"/>
      <point x="286" y="-80" type="curve" smooth="yes"/>
      <point x="205" y="-80" type="line"/>
      <point x="205" y="-200" type="line"/>
      <point x="316" y="-200" type="line" smooth="yes"/>
      <point x="376" y="-200"/>
      <point x="423" y="-167"/>
      <point x="438" y="-98" type="curve" smooth="yes"/>
      <point x="526" y="306" type="line" smooth="yes"/>
      <point x="530" y="326"/>
      <point x="532" y="344"/>
      <point x="532" y="361" type="curve" smooth="yes"/>
      <point x="532" y="456"/>
      <point x="470" y="510"/>
      <point x="384" y="510" type="curve" smooth="yes"/>
      <point x="314" y="510"/>
      <point x="267" y="482"/>
      <point x="233" y="422" type="curve"/>
      <point x="215" y="422" type="line"/>
      <point x="231" y="496" type="line"/>
      <point x="105" y="496" type="line"/>
      <point x="0" y="0" type="line"/>
      <point x="126" y="0" type="line"/>
      <point x="185" y="278" type="line" smooth="yes"/>
      <point x="200" y="350"/>
      <point x="253" y="396"/>
      <point x="313" y="396" type="curve" smooth="yes"/>
      <point x="363" y="396"/>
      <point x="399" y="366"/>
      <point x="399" y="315" type="curve" smooth="yes"/>
      <point x="399" y="306"/>
      <point x="398" y="299"/>
      <point x="396" y="288" type="curve" smooth="yes"/>
    </contour>
  </outline>
</glyph>
<glyph name="OE" format="1">
  <advance width="612"/>
  <unicode hex="0152"/>
  <outline>
    <contour>
      <point x="356" y="700" type="line" smooth="yes"/>
      <point x="181" y="700"/>
      <point x="80" y="617"/>
      <point x="37" y="414" type="curve" smooth="yes"/>
      <point x="10" y="286" type="line" smooth="yes"/>
      <point x="4" y="257"/>
      <point x="1" y="230"/>
      <point x="1" y="205" type="curve" smooth="yes"/>
      <point x="1" y="74"/>
      <point x="87" y="0"/>
      <point x="211" y="0" type="curve" smooth="yes"/>
      <point x="514" y="0" type="line"/>
      <point x="514" y="126" type="line"/>
      <point x="366" y="126" type="line"/>
      <point x="400" y="288" type="line"/>
      <point x="563" y="288" type="line"/>
      <point x="563" y="414" type="line"/>
      <point x="427" y="414" type="line"/>
      <point x="461" y="574" type="line"/>
      <point x="624" y="574" type="line"/>
      <point x="624" y="700" type="line"/>
    </contour>
    <contour>
      <point x="234" y="126" type="line"/>
      <point x="162" y="126"/>
      <point x="134" y="167"/>
      <point x="134" y="228" type="curve" smooth="yes"/>
      <point x="134" y="245"/>
      <point x="137" y="264"/>
      <point x="141" y="284" type="curve" smooth="yes"/>
      <point x="170" y="416" type="line" smooth="yes"/>
      <point x="190" y="506"/>
      <point x="239" y="573"/>
      <point x="329" y="574" type="curve"/>
    </contour>
  </outline>
</glyph>
<glyph name="oe" format="1">
  <advance width="612"/>
  <unicode hex="0153"/>
  <outline>
    <contour>
      <point x="33" y="204" type="curve" smooth="yes"/>
      <point x="33" y="62"/>
      <point x="144" y="-14"/>
      <point x="263" y="-14" type="curve"/>
      <point x="376" y="-14"/>
      <point x="450" y="18"/>
      <point x="512" y="88" type="curve"/>
      <point x="424" y="152" type="line"/>
      <point x="401" y="124"/>
      <point x="375" y="110"/>
      <point x="343" y="110" type="curve"/>
      <point x="360" y="188" type="line"/>
      <point x="552" y="188" type="line"/>
      <point x="563" y="240" type="line" smooth="yes"/>
      <point x="567" y="259"/>
      <point x="570" y="282"/>
      <point x="570" y="302" type="curve" smooth="yes"/>
      <point x="570" y="421"/>
      <point x="490" y="510"/>
      <point x="350" y="510" type="curve" smooth="yes"/>
      <point x="179" y="510"/>
      <point x="33" y="384"/>
    </contour>
    <contour>
      <point x="275" y="382" type="curve"/>
      <point x="218" y="116" type="line"/>
      <point x="183" y="132"/>
      <point x="162" y="163"/>
      <point x="162" y="208" type="curve" smooth="yes"/>
      <point x="162" y="284"/>
      <point x="196" y="351"/>
    </contour>
    <contour>
      <point x="385" y="308" type="line"/>
      <point x="402" y="386" type="line"/>
      <point x="432" y="383"/>
      <point x="453" y="357"/>
      <point x="453" y="325" type="curve" smooth="yes"/>
      <point x="453" y="318"/>
      <point x="452" y="311"/>
      <point x="451" y="308" type="curve"/>
    </contour>
  </outline>
</glyph>
<glyph name="uni0156" format="1">
  <advance width="612"/>
  <unicode hex="0156"/>
  <outline>
    <contour>
      <point x="121" y="-134" type="curve" smooth="yes"/>
      <point x="121" y="-192"/>
      <point x="166" y="-218"/>
      <point x="209" y="-218" type="curve"/>
      <point x="206" y="-237" type="line" smooth="yes"/>
      <point x="203" y="-256"/>
      <point x="192" y="-260"/>
      <point x="170" y="-260" type="curve" smooth="yes"/>
      <point x="121" y="-260" type="line"/>
      <point x="121" y="-338" type="line"/>
      <point x="176" y="-338" type="line" smooth="yes"/>
      <point x="228" y="-338"/>
      <point x="267" y="-316"/>
      <point x="277" y="-269" type="curve" smooth="yes"/>
      <point x="301" y="-155" type="line" smooth="yes"/>
      <point x="302" y="-148"/>
      <point x="303" y="-141"/>
      <point x="303" y="-135" type="curve" smooth="yes"/>
      <point x="303" y="-85"/>
      <point x="261" y="-44"/>
      <point x="212" y="-44" type="curve" smooth="yes"/>
      <point x="162" y="-44"/>
      <point x="121" y="-83"/>
    </contour>
    <component base="R" xOffset="-1"/>
  </outline>
</glyph>
<glyph name="uni0157" format="1">
  <advance width="612"/>
  <unicode hex="0157"/>
  <outline>
    <contour>
      <point x="48" y="-134" type="curve" smooth="yes"/>
      <point x="48" y="-192"/>
      <point x="93" y="-218"/>
      <point x="136" y="-218" type="curve"/>
      <point x="133" y="-237" type="line" smooth="yes"/>
      <point x="130" y="-256"/>
      <point x="119" y="-260"/>
      <point x="97" y="-260" type="curve" smooth="yes"/>
      <point x="55" y="-260" type="line"/>
      <point x="55" y="-338" type="line"/>
      <point x="103" y="-338" type="line" smooth="yes"/>
      <point x="155" y="-338"/>
      <point x="194" y="-316"/>
      <point x="204" y="-269" type="curve" smooth="yes"/>
      <point x="228" y="-155" type="line" smooth="yes"/>
      <point x="229" y="-148"/>
      <point x="230" y="-141"/>
      <point x="230" y="-135" type="curve" smooth="yes"/>
      <point x="230" y="-85"/>
      <point x="188" y="-44"/>
      <point x="139" y="-44" type="curve" smooth="yes"/>
      <point x="89" y="-44"/>
      <point x="48" y="-83"/>
    </contour>
    <component base="r"/>
  </outline>
</glyph>
<glyph name="Scedilla" format="1">
  <advance width="612"/>
  <unicode hex="015E"/>
  <outline>
    <contour>
      <point x="454" y="462" type="line"/>
      <point x="586" y="462" type="line"/>
      <point x="590" y="480" type="line" smooth="yes"/>
      <point x="594" y="499"/>
      <point x="595" y="512"/>
      <point x="595" y="527" type="curve" smooth="yes"/>
      <point x="595" y="634"/>
      <point x="507" y="714"/>
      <point x="358" y="714" type="curve" smooth="yes"/>
      <point x="183" y="714"/>
      <point x="87" y="620"/>
      <point x="87" y="494" type="curve" smooth="yes"/>
      <point x="87" y="371"/>
      <point x="180" y="318"/>
      <point x="273" y="304" type="curve" smooth="yes"/>
      <point x="371" y="289"/>
      <point x="410" y="263"/>
      <point x="410" y="213" type="curve" smooth="yes"/>
      <point x="410" y="149"/>
      <point x="357" y="110"/>
      <point x="270" y="110" type="curve" smooth="yes"/>
      <point x="189" y="110"/>
      <point x="148" y="149"/>
      <point x="148" y="212" type="curve" smooth="yes"/>
      <point x="148" y="228"/>
      <point x="149" y="241"/>
      <point x="152" y="255" type="curve" smooth="yes"/>
      <point x="156" y="272" type="line"/>
      <point x="24" y="272" type="line"/>
      <point x="19" y="249" type="line" smooth="yes"/>
      <point x="15" y="231"/>
      <point x="14" y="213"/>
      <point x="14" y="196" type="curve" smooth="yes"/>
      <point x="14" y="101"/>
      <point x="66" y="21"/>
      <point x="177" y="-5" type="curve"/>
      <point x="146" y="-92" type="line"/>
      <point x="146" y="-104" type="line"/>
      <point x="243" y="-104" type="line"/>
      <point x="247" y="-96"/>
      <point x="253" y="-90"/>
      <point x="264" y="-90" type="curve" smooth="yes"/>
      <point x="275" y="-90"/>
      <point x="282" y="-97"/>
      <point x="282" y="-109" type="curve" smooth="yes"/>
      <point x="282" y="-128"/>
      <point x="265" y="-138"/>
      <point x="242" y="-138" type="curve" smooth="yes"/>
      <point x="221" y="-138"/>
      <point x="204" y="-132"/>
      <point x="191" y="-123" type="curve"/>
      <point x="154" y="-192" type="line"/>
      <point x="174" y="-204"/>
      <point x="202" y="-212"/>
      <point x="247" y="-212" type="curve" smooth="yes"/>
      <point x="324" y="-212"/>
      <point x="368" y="-170"/>
      <point x="368" y="-102" type="curve" smooth="yes"/>
      <point x="368" y="-52"/>
      <point x="340" y="-24"/>
      <point x="301" y="-24" type="curve" smooth="yes"/>
      <point x="276" y="-24"/>
      <point x="260" y="-34"/>
      <point x="250" y="-46" type="curve"/>
      <point x="238" y="-46" type="line"/>
      <point x="252" y="-14" type="line"/>
      <point x="262" y="-14" type="line" smooth="yes"/>
      <point x="438" y="-14"/>
      <point x="550" y="80"/>
      <point x="550" y="231" type="curve" smooth="yes"/>
      <point x="550" y="345"/>
      <point x="474" y="400"/>
      <point x="350" y="420" type="curve" smooth="yes"/>
      <point x="262" y="434"/>
      <point x="225" y="459"/>
      <point x="225" y="506" type="curve" smooth="yes"/>
      <point x="225" y="563"/>
      <point x="284" y="590"/>
      <point x="346" y="590" type="curve" smooth="yes"/>
      <point x="423" y="590"/>
      <point x="460" y="554"/>
      <point x="460" y="502" type="curve" smooth="yes"/>
      <point x="460" y="493"/>
      <point x="459" y="485"/>
      <point x="457" y="475" type="curve" smooth="yes"/>
    </contour>
  </outline>
</glyph>
<glyph name="Uogonek" format="1">
  <advance width="612"/>
  <unicode hex="0172"/>
  <outline>
    <contour>
      <point x="494" y="700" type="line"/>
      <point x="397" y="242" type="line" smooth="yes"/>
      <point x="378" y="152"/>
      <point x="338" y="110"/>
      <point x="258" y="110" type="curve" smooth="yes"/>
      <point x="196" y="110"/>
      <point x="164" y="144"/>
      <point x="164" y="201" type="curve" smooth="yes"/>
      <point x="164" y="214"/>
      <point x="166" y="227"/>
      <point x="169" y="242" type="curve" smooth="yes"/>
      <point x="266" y="700" type="line"/>
      <point x="134" y="700" type="line"/>
      <point x="40" y="254" type="line" smooth="yes"/>
      <point x="34" y="227"/>
      <point x="33" y="208"/>
      <point x="33" y="187" type="curve" smooth="yes"/>
      <point x="33" y="67"/>
      <point x="112" y="-5"/>
      <point x="222" y="-13" type="curve"/>
      <point x="210" y="-23" type="line" smooth="yes"/>
      <point x="181" y="-45"/>
      <point x="168" y="-73"/>
      <point x="168" y="-99" type="curve" smooth="yes"/>
      <point x="168" y="-137"/>
      <point x="196" y="-170"/>
      <point x="243" y="-170" type="curve" smooth="yes"/>
      <point x="367" y="-170" type="line"/>
      <point x="367" y="-86" type="line"/>
      <point x="304" y="-86" type="line" smooth="yes"/>
      <point x="293" y="-86"/>
      <point x="287" y="-80"/>
      <point x="287" y="-72" type="curve" smooth="yes"/>
      <point x="287" y="-66"/>
      <point x="290" y="-62"/>
      <point x="295" y="-58" type="curve" smooth="yes"/>
      <point x="417" y="33" type="line" smooth="yes"/>
      <point x="472" y="74"/>
      <point x="508" y="142"/>
      <point x="529" y="242" type="curve" smooth="yes"/>
      <point x="626" y="700" type="line"/>
    </contour>
  </outline>
</glyph>
<glyph name="uogonek" format="1">
  <advance width="612"/>
  <unicode hex="0173"/>
  <outline>
    <contour>
      <point x="97" y="496" type="line"/>
      <point x="31" y="190" type="line" smooth="yes"/>
      <point x="27" y="171"/>
      <point x="25" y="153"/>
      <point x="25" y="136" type="curve" smooth="yes"/>
      <point x="25" y="42"/>
      <point x="86" y="-14"/>
      <point x="172" y="-14" type="curve" smooth="yes"/>
      <point x="234" y="-14"/>
      <point x="287" y="10"/>
      <point x="316" y="78" type="curve"/>
      <point x="334" y="78" type="line"/>
      <point x="337" y="47"/>
      <point x="352" y="23"/>
      <point x="373" y="7" type="curve"/>
      <point x="334" y="-23" type="line" smooth="yes"/>
      <point x="306" y="-44"/>
      <point x="294" y="-71"/>
      <point x="294" y="-96" type="curve" smooth="yes"/>
      <point x="294" y="-135"/>
      <point x="324" y="-170"/>
      <point x="372" y="-170" type="curve" smooth="yes"/>
      <point x="505" y="-170" type="line"/>
      <point x="505" y="-86" type="line"/>
      <point x="433" y="-86" type="line" smooth="yes"/>
      <point x="422" y="-86"/>
      <point x="416" y="-79"/>
      <point x="416" y="-72" type="curve" smooth="yes"/>
      <point x="416" y="-66"/>
      <point x="419" y="-62"/>
      <point x="424" y="-58" type="curve" smooth="yes"/>
      <point x="568" y="46" type="line"/>
      <point x="505" y="138" type="line"/>
      <point x="469" y="112" type="line"/>
      <point x="458" y="118" type="line"/>
      <point x="540" y="496" type="line"/>
      <point x="414" y="496" type="line"/>
      <point x="358" y="232" type="line" smooth="yes"/>
      <point x="340" y="148"/>
      <point x="304" y="100"/>
      <point x="234" y="100" type="curve" smooth="yes"/>
      <point x="187" y="100"/>
      <point x="157" y="125"/>
      <point x="157" y="175" type="curve" smooth="yes"/>
      <point x="157" y="185"/>
      <point x="158" y="195"/>
      <point x="161" y="208" type="curve" smooth="yes"/>
      <point x="223" y="496" type="line"/>
    </contour>
  </outline>
</glyph>
<glyph name="florin" format="1">
  <advance width="612"/>
  <unicode hex="0192"/>
  <outline>
    <contour>
      <point x="171" y="330" type="line"/>
      <point x="244" y="330" type="line"/>
      <point x="224" y="234" type="line" smooth="yes"/>
      <point x="220" y="215"/>
      <point x="209" y="204"/>
      <point x="190" y="204" type="curve" smooth="yes"/>
      <point x="88" y="204" type="line"/>
      <point x="88" y="96" type="line"/>
      <point x="208" y="96" type="line" smooth="yes"/>
      <point x="270" y="96"/>
      <point x="317" y="138"/>
      <point x="330" y="198" type="curve" smooth="yes"/>
      <point x="358" y="330" type="line"/>
      <point x="453" y="330" type="line"/>
      <point x="453" y="438" type="line"/>
      <point x="381" y="438" type="line"/>
      <point x="387" y="466" type="line" smooth="yes"/>
      <point x="391" y="485"/>
      <point x="402" y="496"/>
      <point x="421" y="496" type="curve" smooth="yes"/>
      <point x="523" y="496" type="line"/>
      <point x="523" y="604" type="line"/>
      <point x="403" y="604" type="line" smooth="yes"/>
      <point x="346" y="604"/>
      <point x="293" y="559"/>
      <point x="281" y="502" type="curve" smooth="yes"/>
      <point x="267" y="438" type="line"/>
      <point x="171" y="438" type="line"/>
    </contour>
  </outline>
</glyph>
<glyph name="uni01A1" format="1">
  <advance width="612"/>
  <unicode hex="01A1"/>
  <outline>
    <contour>
      <point x="460" y="406" type="curve" smooth="yes"/>
      <point x="460" y="356"/>
      <point x="500" y="322"/>
      <point x="536" y="322" type="curve"/>
      <point x="534" y="312" type="line" smooth="yes"/>
      <point x="530" y="293"/>
      <point x="518" y="282"/>
      <point x="499" y="282" type="curve" smooth="yes"/>
      <point x="428" y="282" type="line"/>
      <point x="431" y="303"/>
      <point x="433" y="322"/>
      <point x="433" y="340" type="curve" smooth="yes"/>
      <point x="433" y="447"/>
      <point x="377" y="510"/>
      <point x="269" y="510" type="curve" smooth="yes"/>
      <point x="135" y="510"/>
      <point x="55" y="414"/>
      <point x="21" y="254" type="curve" smooth="yes"/>
      <point x="18" y="242" type="line" smooth="yes"/>
      <point x="13" y="216"/>
      <point x="10" y="191"/>
      <point x="10" y="169" type="curve" smooth="yes"/>
      <point x="10" y="52"/>
      <point x="79" y="-14"/>
      <point x="177" y="-14" type="curve" smooth="yes"/>
      <point x="290" y="-14"/>
      <point x="380" y="63"/>
      <point x="411" y="204" type="curve"/>
      <point x="498" y="204" type="line" smooth="yes"/>
      <point x="557" y="204"/>
      <point x="594" y="229"/>
      <point x="606" y="286" type="curve" smooth="yes"/>
      <point x="628" y="388" type="line" smooth="yes"/>
      <point x="630" y="398"/>
      <point x="631" y="405"/>
      <point x="631" y="413" type="curve" smooth="yes"/>
      <point x="631" y="461"/>
      <point x="599" y="496"/>
      <point x="550" y="496" type="curve" smooth="yes"/>
      <point x="501" y="496"/>
      <point x="460" y="455"/>
    </contour>
    <contour>
      <point x="196" y="106" type="curve" smooth="yes"/>
      <point x="161" y="106"/>
      <point x="136" y="128"/>
      <point x="136" y="180" type="curve" smooth="yes"/>
      <point x="136" y="194"/>
      <point x="138" y="211"/>
      <point x="142" y="230" type="curve" smooth="yes"/>
      <point x="152" y="276" type="line" smooth="yes"/>
      <point x="168" y="354"/>
      <point x="202" y="390"/>
      <point x="247" y="390" type="curve" smooth="yes"/>
      <point x="281" y="390"/>
      <point x="306" y="370"/>
      <point x="306" y="322" type="curve" smooth="yes"/>
      <point x="306" y="306"/>
      <point x="304" y="291"/>
      <point x="299" y="266" type="curve" smooth="yes"/>
      <point x="288" y="212" type="line" smooth="yes"/>
      <point x="273" y="142"/>
      <point x="241" y="106"/>
    </contour>
  </outline>
</glyph>
<glyph name="uni01AF" format="1">
  <advance width="612"/>
  <unicode hex="01AF"/>
  <outline>
    <contour>
      <point x="490" y="610" type="curve" smooth="yes"/>
      <point x="490" y="560"/>
      <point x="530" y="526"/>
      <point x="566" y="526" type="curve"/>
      <point x="563" y="510" type="line" smooth="yes"/>
      <point x="559" y="491"/>
      <point x="547" y="480"/>
      <point x="528" y="480" type="curve" smooth="yes"/>
      <point x="431" y="480" type="line"/>
      <point x="477" y="700" type="line"/>
      <point x="345" y="700" type="line"/>
      <point x="236" y="184" type="line" smooth="yes"/>
      <point x="225" y="132"/>
      <point x="200" y="112"/>
      <point x="168" y="112" type="curve" smooth="yes"/>
      <point x="132" y="112"/>
      <point x="114" y="132"/>
      <point x="114" y="165" type="curve" smooth="yes"/>
      <point x="114" y="172"/>
      <point x="115" y="180"/>
      <point x="117" y="189" type="curve" smooth="yes"/>
      <point x="225" y="700" type="line"/>
      <point x="93" y="700" type="line"/>
      <point x="-9" y="213" type="line" smooth="yes"/>
      <point x="-14" y="190"/>
      <point x="-16" y="169"/>
      <point x="-16" y="150" type="curve" smooth="yes"/>
      <point x="-16" y="44"/>
      <point x="50" y="-14"/>
      <point x="155" y="-14" type="curve" smooth="yes"/>
      <point x="260" y="-14"/>
      <point x="338" y="40"/>
      <point x="368" y="182" type="curve" smooth="yes"/>
      <point x="414" y="402" type="line"/>
      <point x="527" y="402" type="line" smooth="yes"/>
      <point x="586" y="402"/>
      <point x="623" y="427"/>
      <point x="635" y="484" type="curve" smooth="yes"/>
      <point x="658" y="592" type="line" smooth="yes"/>
      <point x="660" y="601"/>
      <point x="661" y="609"/>
      <point x="661" y="617" type="curve" smooth="yes"/>
      <point x="661" y="665"/>
      <point x="629" y="700"/>
      <point x="580" y="700" type="curve" smooth="yes"/>
      <point x="531" y="700"/>
      <point x="490" y="659"/>
    </contour>
  </outline>
</glyph>
<glyph name="uni01EA" format="1">
  <advance width="612"/>
  <unicode hex="01EA"/>
  <outline>
    <contour>
      <point x="32" y="272" type="line" smooth="yes"/>
      <point x="27" y="249"/>
      <point x="25" y="226"/>
      <point x="25" y="204" type="curve" smooth="yes"/>
      <point x="25" y="87"/>
      <point x="95" y="-4"/>
      <point x="222" y="-13" type="curve"/>
      <point x="210" y="-23" type="line" smooth="yes"/>
      <point x="181" y="-45"/>
      <point x="168" y="-73"/>
      <point x="168" y="-99" type="curve" smooth="yes"/>
      <point x="168" y="-137"/>
      <point x="196" y="-170"/>
      <point x="243" y="-170" type="curve" smooth="yes"/>
      <point x="367" y="-170" type="line"/>
      <point x="367" y="-86" type="line"/>
      <point x="304" y="-86" type="line" smooth="yes"/>
      <point x="293" y="-86"/>
      <point x="287" y="-79"/>
      <point x="287" y="-72" type="curve" smooth="yes"/>
      <point x="287" y="-67"/>
      <point x="289" y="-63"/>
      <point x="295" y="-58" type="curve" smooth="yes"/>
      <point x="411" y="29" type="line" smooth="yes"/>
      <point x="488" y="87"/>
      <point x="523" y="154"/>
      <point x="548" y="272" type="curve" smooth="yes"/>
      <point x="581" y="428" type="line" smooth="yes"/>
      <point x="586" y="451"/>
      <point x="588" y="474"/>
      <point x="588" y="496" type="curve" smooth="yes"/>
      <point x="588" y="620"/>
      <point x="509" y="714"/>
      <point x="368" y="714" type="curve" smooth="yes"/>
      <point x="200" y="714"/>
      <point x="106" y="624"/>
      <point x="65" y="428" type="curve" smooth="yes"/>
    </contour>
    <contour>
      <point x="257" y="106" type="curve" smooth="yes"/>
      <point x="193" y="106"/>
      <point x="156" y="147"/>
      <point x="156" y="214" type="curve" smooth="yes"/>
      <point x="156" y="229"/>
      <point x="158" y="246"/>
      <point x="162" y="264" type="curve" smooth="yes"/>
      <point x="199" y="436" type="line" smooth="yes"/>
      <point x="218" y="524"/>
      <point x="265" y="594"/>
      <point x="356" y="594" type="curve" smooth="yes"/>
      <point x="420" y="594"/>
      <point x="457" y="553"/>
      <point x="457" y="486" type="curve" smooth="yes"/>
      <point x="457" y="471"/>
      <point x="455" y="457"/>
      <point x="451" y="436" type="curve" smooth="yes"/>
      <point x="414" y="264" type="line" smooth="yes"/>
      <point x="395" y="176"/>
      <point x="348" y="106"/>
    </contour>
  </outline>
</glyph>
<glyph name="uni0243" format="1">
  <advance width="612"/>
  <unicode hex="0243"/>
  <outline>
    <contour>
      <point x="27" y="156" type="line"/>
      <point x="78" y="156" type="line"/>
      <point x="72" y="126" type="line"/>
      <point x="6" y="126" type="line"/>
      <point x="6" y="0" type="line"/>
      <point x="278" y="0" type="line" smooth="yes"/>
      <point x="422" y="0"/>
      <point x="526" y="93"/>
      <point x="526" y="210" type="curve" smooth="yes"/>
      <point x="526" y="284"/>
      <point x="489" y="324"/>
      <point x="436" y="340" type="curve"/>
      <point x="436" y="358" type="line"/>
      <point x="523" y="379"/>
      <point x="595" y="437"/>
      <point x="595" y="537" type="curve" smooth="yes"/>
      <point x="595" y="628"/>
      <point x="534" y="700"/>
      <point x="400" y="700" type="curve" smooth="yes"/>
      <point x="101" y="700" type="line"/>
      <point x="101" y="574" type="line"/>
      <point x="167" y="574" type="line"/>
      <point x="100" y="258" type="line"/>
      <point x="27" y="258" type="line"/>
    </contour>
    <contour>
      <point x="297" y="574" type="line"/>
      <point x="383" y="574" type="line" smooth="yes"/>
      <point x="432" y="574"/>
      <point x="462" y="551"/>
      <point x="462" y="507" type="curve" smooth="yes"/>
      <point x="462" y="446"/>
      <point x="418" y="414"/>
      <point x="349" y="414" type="curve" smooth="yes"/>
      <point x="263" y="414" type="line"/>
    </contour>
    <contour>
      <point x="236" y="288" type="line"/>
      <point x="322" y="288" type="line" smooth="yes"/>
      <point x="371" y="288"/>
      <point x="402" y="268"/>
      <point x="402" y="219" type="curve" smooth="yes"/>
      <point x="402" y="159"/>
      <point x="353" y="126"/>
      <point x="288" y="126" type="curve" smooth="yes"/>
      <point x="202" y="126" type="line"/>
      <point x="208" y="156" type="line"/>
      <point x="288" y="156" type="line"/>
      <point x="288" y="258" type="line"/>
      <point x="229" y="258" type="line"/>
    </contour>
  </outline>
</glyph>
<glyph name="uni0252" format="1">
  <advance width="612"/>
  <unicode hex="0252"/>
  <outline>
    <contour>
      <point x="35" y="0" type="line"/>
      <point x="161" y="0" type="line"/>
      <point x="175" y="66" type="line"/>
      <point x="193" y="66" type="line"/>
      <point x="208" y="18"/>
      <point x="250" y="-14"/>
      <point x="323" y="-14" type="curve" smooth="yes"/>
      <point x="489" y="-14"/>
      <point x="588" y="128"/>
      <point x="588" y="306" type="curve" smooth="yes"/>
      <point x="588" y="424"/>
      <point x="511" y="510"/>
      <point x="401" y="510" type="curve" smooth="yes"/>
      <point x="325" y="510"/>
      <point x="281" y="472"/>
      <point x="259" y="430" type="curve"/>
      <point x="241" y="430" type="line"/>
      <point x="230" y="480"/>
      <point x="186" y="510"/>
      <point x="135" y="510" type="curve" smooth="yes"/>
      <point x="108" y="510"/>
      <point x="80" y="502"/>
      <point x="53" y="484" type="curve" smooth="yes"/>
      <point x="-6" y="444" type="line"/>
      <point x="57" y="350" type="line"/>
      <point x="105" y="384" type="line"/>
      <point x="115" y="377" type="line"/>
    </contour>
    <contour>
      <point x="357" y="390" type="curve" smooth="yes"/>
      <point x="425" y="390"/>
      <point x="457" y="340"/>
      <point x="457" y="284" type="curve" smooth="yes"/>
      <point x="457" y="188"/>
      <point x="403" y="106"/>
      <point x="307" y="106" type="curve" smooth="yes"/>
      <point x="247" y="106"/>
      <point x="208" y="150"/>
      <point x="208" y="212" type="curve" smooth="yes"/>
      <point x="208" y="308"/>
      <point x="261" y="390"/>
    </contour>
  </outline>
</glyph>
<glyph name="uni0254" format="1">
  <advance width="612"/>
  <unicode hex="0254"/>
  <outline>
    <contour>
      <point x="171" y="287" type="line"/>
      <point x="195" y="354"/>
      <point x="242" y="390"/>
      <point x="320" y="390" type="curve" smooth="yes"/>
      <point x="382" y="390"/>
      <point x="428" y="353"/>
      <point x="428" y="285" type="curve" smooth="yes"/>
      <point x="428" y="182"/>
      <point x="357" y="106"/>
      <point x="261" y="106" type="curve" smooth="yes"/>
      <point x="185" y="106"/>
      <point x="153" y="146"/>
      <point x="153" y="213" type="curve"/>
      <point x="25" y="188" type="line"/>
      <point x="25" y="69"/>
      <point x="99" y="-14"/>
      <point x="243" y="-14" type="curve" smooth="yes"/>
      <point x="444" y="-14"/>
      <point x="558" y="120"/>
      <point x="558" y="302" type="curve" smooth="yes"/>
      <point x="558" y="432"/>
      <point x="463" y="510"/>
      <point x="334" y="510" type="curve" smooth="yes"/>
      <point x="180" y="510"/>
      <point x="91" y="436"/>
      <point x="54" y="318" type="curve"/>
    </contour>
  </outline>
</glyph>
<glyph name="uni0258" format="1">
  <advance width="612"/>
  <unicode hex="0258"/>
  <outline>
    <contour>
      <point x="394" y="207" type="line"/>
      <point x="379" y="143"/>
      <point x="331" y="106"/>
      <point x="252" y="106" type="curve" smooth="yes"/>
      <point x="196" y="106"/>
      <point x="171" y="127"/>
      <point x="154" y="164" type="curve"/>
      <point x="33" y="105" type="line"/>
      <point x="46" y="55"/>
      <point x="109" y="-14"/>
      <point x="237" y="-14" type="curve" smooth="yes"/>
      <point x="422" y="-14"/>
      <point x="541" y="118"/>
      <point x="541" y="272" type="curve" smooth="yes"/>
      <point x="541" y="434"/>
      <point x="453" y="510"/>
      <point x="321" y="510" type="curve" smooth="yes"/>
      <point x="153" y="510"/>
      <point x="69" y="394"/>
      <point x="44" y="274" type="curve" smooth="yes"/>
      <point x="30" y="207" type="line"/>
    </contour>
    <contour>
      <point x="311" y="396" type="curve" smooth="yes"/>
      <point x="374" y="396"/>
      <point x="410" y="356"/>
      <point x="415" y="315" type="curve"/>
      <point x="181" y="315" type="line"/>
      <point x="199" y="362"/>
      <point x="239" y="396"/>
    </contour>
  </outline>
</glyph>
<glyph name="uni026F" format="1">
  <advance width="612"/>
  <unicode hex="026F"/>
  <outline>
    <contour>
      <point x="102" y="496" type="line"/>
      <point x="18" y="104" type="line" smooth="yes"/>
      <point x="16" y="94"/>
      <point x="15" y="87"/>
      <point x="15" y="78" type="curve" smooth="yes"/>
      <point x="15" y="27"/>
      <point x="47" y="-14"/>
      <point x="102" y="-14" type="curve" smooth="yes"/>
      <point x="150" y="-14"/>
      <point x="180" y="12"/>
      <point x="194" y="48" type="curve"/>
      <point x="212" y="48" type="line"/>
      <point x="219" y="14"/>
      <point x="249" y="-14"/>
      <point x="293" y="-14" type="curve" smooth="yes"/>
      <point x="330" y="-14"/>
      <point x="367" y="0"/>
      <point x="388" y="48" type="curve"/>
      <point x="406" y="48" type="line"/>
      <point x="423" y="8"/>
      <point x="461" y="-14"/>
      <point x="504" y="-14" type="curve" smooth="yes"/>
      <point x="530" y="-14"/>
      <point x="559" y="-5"/>
      <point x="585" y="12" type="curve" smooth="yes"/>
      <point x="630" y="42" type="line"/>
      <point x="567" y="136" type="line"/>
      <point x="533" y="112" type="line"/>
      <point x="523" y="119" type="line"/>
      <point x="603" y="496" type="line"/>
      <point x="478" y="496" type="line"/>
      <point x="402" y="142" type="line" smooth="yes"/>
      <point x="397" y="118"/>
      <point x="384" y="106"/>
      <point x="366" y="106" type="curve" smooth="yes"/>
      <point x="350" y="106"/>
      <point x="340" y="116"/>
      <point x="340" y="133" type="curve" smooth="yes"/>
      <point x="340" y="138"/>
      <point x="341" y="143"/>
      <point x="342" y="148" type="curve" smooth="yes"/>
      <point x="416" y="496" type="line"/>
      <point x="290" y="496" type="line"/>
      <point x="214" y="142" type="line" smooth="yes"/>
      <point x="210" y="122"/>
      <point x="200" y="106"/>
      <point x="179" y="106" type="curve" smooth="yes"/>
      <point x="161" y="106"/>
      <point x="152" y="115"/>
      <point x="152" y="132" type="curve" smooth="yes"/>
      <point x="152" y="137"/>
      <point x="153" y="143"/>
      <point x="154" y="148" type="curve" smooth="yes"/>
      <point x="228" y="496" type="line"/>
    </contour>
  </outline>
</glyph>
<glyph name="acutecomb" format="1">
  <advance width="612"/>
  <unicode hex="0301"/>
  <outline>
    <contour>
      <point x="502" y="836" type="line"/>
      <point x="372" y="836" type="line"/>
      <point x="291" y="700" type="line"/>
      <point x="393" y="700" type="line"/>
      <point x="502" y="824" type="line"/>
    </contour>
  </outline>
</glyph>
<glyph name="uni0309" format="1">
  <advance width="612"/>
  <unicode hex="0309"/>
  <outline>
    <contour>
      <point x="192" y="658" type="line"/>
      <point x="192" y="750" type="line"/>
      <point x="199" y="762" type="line"/>
      <point x="291" y="762" type="line"/>
      <point x="291" y="754"/>
      <point x="297" y="748"/>
      <point x="308" y="748" type="curve" smooth="yes"/>
      <point x="323" y="748"/>
      <point x="333" y="757"/>
      <point x="333" y="772" type="curve" smooth="yes"/>
      <point x="333" y="788"/>
      <point x="318" y="796"/>
      <point x="302" y="796" type="curve" smooth="yes"/>
      <point x="284" y="796"/>
      <point x="268" y="791"/>
      <point x="251" y="782" type="curve"/>
      <point x="235" y="849" type="line"/>
      <point x="259" y="861"/>
      <point x="289" y="870"/>
      <point x="322" y="870" type="curve" smooth="yes"/>
      <point x="376" y="870"/>
      <point x="419" y="841"/>
      <point x="419" y="781" type="curve" smooth="yes"/>
      <point x="419" y="716"/>
      <point x="377" y="682"/>
      <point x="327" y="682" type="curve" smooth="yes"/>
      <point x="302" y="682"/>
      <point x="282" y="692"/>
      <point x="274" y="704" type="curve"/>
      <point x="262" y="704" type="line"/>
      <point x="262" y="658" type="line"/>
    </contour>
  </outline>
</glyph>
<glyph name="uni032E" format="1">
  <advance width="612"/>
  <unicode hex="032E"/>
  <outline>
    <contour>
      <point x="350" y="-64" type="line"/>
      <point x="349" y="-70" type="line" smooth="yes"/>
      <point x="344" y="-98"/>
      <point x="326" y="-112"/>
      <point x="298" y="-112" type="curve" smooth="yes"/>
      <point x="274" y="-112"/>
      <point x="264" y="-100"/>
      <point x="264" y="-81" type="curve" smooth="yes"/>
      <point x="264" y="-74"/>
      <point x="265" y="-68"/>
      <point x="266" y="-64" type="curve"/>
      <point x="176" y="-64" type="line"/>
      <point x="172" y="-80"/>
      <point x="171" y="-93"/>
      <point x="171" y="-100" type="curve" smooth="yes"/>
      <point x="171" y="-157"/>
      <point x="218" y="-200"/>
      <point x="285" y="-200" type="curve" smooth="yes"/>
      <point x="369" y="-200"/>
      <point x="419" y="-162"/>
      <point x="437" y="-78" type="curve" smooth="yes"/>
      <point x="440" y="-64" type="line"/>
    </contour>
  </outline>
</glyph>
<glyph name="uni1EF5" format="1">
  <advance width="612"/>
  <unicode hex="1EF5"/>
  <outline>
    <contour>
      <point x="264" y="374" type="line" smooth="yes"/>
      <point x="266" y="385"/>
      <point x="267" y="395"/>
      <point x="267" y="404" type="curve" smooth="yes"/>
      <point x="267" y="470"/>
      <point x="216" y="510"/>
      <point x="157" y="510" type="curve" smooth="yes"/>
      <point x="131" y="510"/>
      <point x="103" y="502"/>
      <point x="78" y="485" type="curve" smooth="yes"/>
      <point x="5" y="436" type="line"/>
      <point x="68" y="342" type="line"/>
      <point x="128" y="384" type="line"/>
      <point x="138" y="377" type="line"/>
      <point x="99" y="192" type="line" smooth="yes"/>
      <point x="95" y="174"/>
      <point x="93" y="156"/>
      <point x="93" y="140" type="curve" smooth="yes"/>
      <point x="93" y="42"/>
      <point x="159" y="-14"/>
      <point x="238" y="-14" type="curve" smooth="yes"/>
      <point x="306" y="-14"/>
      <point x="350" y="12"/>
      <point x="379" y="72" type="curve"/>
      <point x="397" y="72" type="line"/>
      <point x="371" y="-50" type="line" smooth="yes"/>
      <point x="367" y="-69"/>
      <point x="357" y="-80"/>
      <point x="338" y="-80" type="curve" smooth="yes"/>
      <point x="224" y="-80" type="line"/>
      <point x="224" y="-200" type="line"/>
      <point x="389" y="-200" type="line" smooth="yes"/>
      <point x="434" y="-200"/>
      <point x="473" y="-167"/>
      <point x="482" y="-122" type="curve" smooth="yes"/>
      <point x="613" y="496" type="line"/>
      <point x="487" y="496" type="line"/>
      <point x="432" y="236" type="line" smooth="yes"/>
      <point x="413" y="148"/>
      <point x="378" y="100"/>
      <point x="306" y="100" type="curve" smooth="yes"/>
      <point x="256" y="100"/>
      <point x="224" y="127"/>
      <point x="224" y="177" type="curve" smooth="yes"/>
      <point x="224" y="187"/>
      <point x="226" y="199"/>
      <point x="228" y="208" type="curve" smooth="yes"/>
    </contour>
    <contour>
      <point x="188" y="-140" type="curve" smooth="yes"/>
      <point x="188" y="-87"/>
      <point x="145" y="-45"/>
      <point x="93" y="-45" type="curve" smooth="yes"/>
      <point x="41" y="-45"/>
      <point x="-2" y="-87"/>
      <point x="-2" y="-140" type="curve" smooth="yes"/>
      <point x="-2" y="-193"/>
      <point x="41" y="-235"/>
      <point x="93" y="-235" type="curve" smooth="yes"/>
      <point x="145" y="-235"/>
      <point x="188" y="-193"/>
    </contour>
  </outline>
</glyph>
<glyph name="endash" format="1">
  <advance width="612"/>
  <unicode hex="2013"/>
  <outline>
    <contour>
      <point x="67" y="218" type="line"/>
      <point x="545" y="218" type="line"/>
      <point x="545" y="332" type="line"/>
      <point x="67" y="332" type="line"/>
    </contour>
  </outline>
</glyph>
<glyph name="quoteleft" format="1">
  <advance width="612"/>
  <unicode hex="2018"/>
  <outline>
    <contour>
      <point x="430" y="502" type="curve" smooth="yes"/>
      <point x="430" y="564"/>
      <point x="384" y="592"/>
      <point x="338" y="592" type="curve"/>
      <point x="341" y="608" type="line" smooth="yes"/>
      <point x="345" y="628"/>
      <point x="356" y="636"/>
      <point x="378" y="636" type="curve" smooth="yes"/>
      <point x="448" y="636" type="line"/>
      <point x="448" y="714" type="line"/>
      <point x="372" y="714" type="line" smooth="yes"/>
      <point x="318" y="714"/>
      <point x="278" y="691"/>
      <point x="267" y="641" type="curve" smooth="yes"/>
      <point x="242" y="523" type="line" smooth="yes"/>
      <point x="241" y="516"/>
      <point x="240" y="509"/>
      <point x="240" y="503" type="curve" smooth="yes"/>
      <point x="240" y="450"/>
      <point x="283" y="408"/>
      <point x="335" y="408" type="curve" smooth="yes"/>
      <point x="387" y="408"/>
      <point x="430" y="448"/>
    </contour>
  </outline>
</glyph>
<glyph name="quoteright" format="1">
  <advance width="612"/>
  <unicode hex="2019"/>
  <outline>
    <contour>
      <point x="258" y="620" type="curve" smooth="yes"/>
      <point x="258" y="558"/>
      <point x="304" y="530"/>
      <point x="350" y="530" type="curve"/>
      <point x="347" y="514" type="line" smooth="yes"/>
      <point x="343" y="494"/>
      <point x="332" y="486"/>
      <point x="310" y="486" type="curve" smooth="yes"/>
      <point x="240" y="486" type="line"/>
      <point x="240" y="408" type="line"/>
      <point x="316" y="408" type="line" smooth="yes"/>
      <point x="370" y="408"/>
      <point x="410" y="431"/>
      <point x="421" y="481" type="curve" smooth="yes"/>
      <point x="446" y="599" type="line" smooth="yes"/>
      <point x="447" y="606"/>
      <point x="448" y="613"/>
      <point x="448" y="619" type="curve" smooth="yes"/>
      <point x="448" y="672"/>
      <point x="405" y="714"/>
      <point x="353" y="714" type="curve" smooth="yes"/>
      <point x="301" y="714"/>
      <point x="258" y="674"/>
    </contour>
  </outline>
</glyph>
<glyph name="quotesinglbase" format="1">
  <advance width="612"/>
  <unicode hex="201A"/>
  <outline>
    <contour>
      <point x="182" y="95" type="curve" smooth="yes"/>
      <point x="182" y="33"/>
      <point x="228" y="5"/>
      <point x="274" y="5" type="curve"/>
      <point x="271" y="-11" type="line" smooth="yes"/>
      <point x="267" y="-31"/>
      <point x="256" y="-39"/>
      <point x="234" y="-39" type="curve" smooth="yes"/>
      <point x="164" y="-39" type="line"/>
      <point x="164" y="-117" type="line"/>
      <point x="240" y="-117" type="line" smooth="yes"/>
      <point x="294" y="-117"/>
      <point x="334" y="-94"/>
      <point x="345" y="-44" type="curve" smooth="yes"/>
      <point x="370" y="74" type="line" smooth="yes"/>
      <point x="371" y="81"/>
      <point x="372" y="88"/>
      <point x="372" y="94" type="curve" smooth="yes"/>
      <point x="372" y="147"/>
      <point x="329" y="189"/>
      <point x="277" y="189" type="curve" smooth="yes"/>
      <point x="225" y="189"/>
      <point x="182" y="149"/>
    </contour>
  </outline>
</glyph>
<glyph name="quotedblbase" format="1">
  <advance width="612"/>
  <unicode hex="201E"/>
  <outline>
    <contour>
      <point x="54" y="95" type="curve" smooth="yes"/>
      <point x="54" y="33"/>
      <point x="100" y="5"/>
      <point x="146" y="5" type="curve"/>
      <point x="143" y="-11" type="line" smooth="yes"/>
      <point x="139" y="-31"/>
      <point x="128" y="-39"/>
      <point x="106" y="-39" type="curve" smooth="yes"/>
      <point x="36" y="-39" type="line"/>
      <point x="36" y="-117" type="line"/>
      <point x="112" y="-117" type="line" smooth="yes"/>
      <point x="166" y="-117"/>
      <point x="206" y="-94"/>
      <point x="217" y="-44" type="curve" smooth="yes"/>
      <point x="242" y="74" type="line" smooth="yes"/>
      <point x="243" y="81"/>
      <point x="244" y="88"/>
      <point x="244" y="94" type="curve" smooth="yes"/>
      <point x="244" y="147"/>
      <point x="201" y="189"/>
      <point x="149" y="189" type="curve" smooth="yes"/>
      <point x="97" y="189"/>
      <point x="54" y="149"/>
    </contour>
    <contour>
      <point x="280" y="95" type="curve" smooth="yes"/>
      <point x="280" y="33"/>
      <point x="326" y="5"/>
      <point x="372" y="5" type="curve"/>
      <point x="369" y="-11" type="line" smooth="yes"/>
      <point x="365" y="-31"/>
      <point x="354" y="-39"/>
      <point x="332" y="-39" type="curve" smooth="yes"/>
      <point x="262" y="-39" type="line"/>
      <point x="262" y="-117" type="line"/>
      <point x="338" y="-117" type="line" smooth="yes"/>
      <point x="392" y="-117"/>
      <point x="432" y="-94"/>
      <point x="443" y="-44" type="curve" smooth="yes"/>
      <point x="468" y="74" type="line" smooth="yes"/>
      <point x="469" y="81"/>
      <point x="470" y="88"/>
      <point x="470" y="94" type="curve" smooth="yes"/>
      <point x="470" y="147"/>
      <point x="427" y="189"/>
      <point x="375" y="189" type="curve" smooth="yes"/>
      <point x="323" y="189"/>
      <point x="280" y="149"/>
    </contour>
  </outline>
</glyph>
<glyph name="daggerdbl" format="1">
  <advance width="612"/>
  <unicode hex="2021"/>
  <outline>
    <contour>
      <point x="137" y="328" type="line"/>
      <point x="234" y="328" type="line"/>
      <point x="211" y="218" type="line"/>
      <point x="319" y="218" type="line"/>
      <point x="342" y="328" type="line"/>
      <point x="461" y="328" type="line"/>
      <point x="461" y="434" type="line"/>
      <point x="365" y="434" type="line"/>
      <point x="378" y="498" type="line"/>
      <point x="497" y="498" type="line"/>
      <point x="497" y="604" type="line"/>
      <point x="401" y="604" type="line"/>
      <point x="424" y="714" type="line"/>
      <point x="316" y="714" type="line"/>
      <point x="293" y="604" type="line"/>
      <point x="173" y="604" type="line"/>
      <point x="173" y="498" type="line"/>
      <point x="270" y="498" type="line"/>
      <point x="257" y="434" type="line"/>
      <point x="137" y="434" type="line"/>
    </contour>
  </outline>
</glyph>
<glyph name="perthousand" format="1">
  <advance width="612"/>
  <unicode hex="2030"/>
  <outline>
    <contour>
      <point x="230" y="105" type="line" smooth="yes"/>
      <point x="228" y="94"/>
      <point x="227" y="84"/>
      <point x="227" y="74" type="curve" smooth="yes"/>
      <point x="227" y="20"/>
      <point x="261" y="-12"/>
      <point x="314" y="-12" type="curve" smooth="yes"/>
      <point x="340" y="-12"/>
      <point x="363" y="-2"/>
      <point x="381" y="12" type="curve"/>
      <point x="393" y="12" type="line"/>
      <point x="405" y="-1"/>
      <point x="424" y="-12"/>
      <point x="455" y="-12" type="curve" smooth="yes"/>
      <point x="518" y="-12"/>
      <point x="566" y="25"/>
      <point x="580" y="96" type="curve" smooth="yes"/>
      <point x="597" y="180" type="line" smooth="yes"/>
      <point x="599" y="188"/>
      <point x="599" y="195"/>
      <point x="599" y="203" type="curve" smooth="yes"/>
      <point x="599" y="248"/>
      <point x="571" y="288"/>
      <point x="513" y="288" type="curve" smooth="yes"/>
      <point x="483" y="288"/>
      <point x="464" y="279"/>
      <point x="446" y="264" type="curve"/>
      <point x="434" y="264" type="line"/>
      <point x="422" y="278"/>
      <point x="403" y="288"/>
      <point x="369" y="288" type="curve" smooth="yes"/>
      <point x="303" y="288"/>
      <point x="261" y="252"/>
      <point x="246" y="180" type="curve" smooth="yes"/>
    </contour>
    <contour>
      <point x="337" y="583" type="curve" smooth="yes"/>
      <point x="337" y="670"/>
      <point x="273" y="712"/>
      <point x="206" y="712" type="curve" smooth="yes"/>
      <point x="89" y="712"/>
      <point x="23" y="630"/>
      <point x="23" y="537" type="curve" smooth="yes"/>
      <point x="23" y="454"/>
      <point x="87" y="412"/>
      <point x="165" y="412" type="curve" smooth="yes"/>
      <point x="249" y="412"/>
      <point x="337" y="482"/>
    </contour>
    <contour>
      <point x="171" y="496" type="curve" smooth="yes"/>
      <point x="138" y="496"/>
      <point x="115" y="513"/>
      <point x="115" y="548" type="curve" smooth="yes"/>
      <point x="115" y="589"/>
      <point x="147" y="628"/>
      <point x="189" y="628" type="curve" smooth="yes"/>
      <point x="223" y="628"/>
      <point x="245" y="610"/>
      <point x="245" y="574" type="curve" smooth="yes"/>
      <point x="245" y="529"/>
      <point x="211" y="496"/>
    </contour>
    <contour>
      <point x="466" y="69" type="curve" smooth="yes"/>
      <point x="456" y="69"/>
      <point x="447" y="75"/>
      <point x="447" y="87" type="curve" smooth="yes"/>
      <point x="447" y="89"/>
      <point x="447" y="90"/>
      <point x="448" y="96" type="curve" smooth="yes"/>
      <point x="465" y="180" type="line" smooth="yes"/>
      <point x="469" y="199"/>
      <point x="477" y="207"/>
      <point x="491" y="207" type="curve" smooth="yes"/>
      <point x="503" y="207"/>
      <point x="511" y="200"/>
      <point x="511" y="187" type="curve" smooth="yes"/>
      <point x="511" y="186"/>
      <point x="511" y="185"/>
      <point x="510" y="180" type="curve" smooth="yes"/>
      <point x="493" y="96" type="line" smooth="yes"/>
      <point x="489" y="76"/>
      <point x="478" y="69"/>
    </contour>
    <contour>
      <point x="334" y="69" type="curve" smooth="yes"/>
      <point x="324" y="69"/>
      <point x="315" y="75"/>
      <point x="315" y="87" type="curve" smooth="yes"/>
      <point x="315" y="89"/>
      <point x="315" y="90"/>
      <point x="316" y="96" type="curve" smooth="yes"/>
      <point x="333" y="180" type="line" smooth="yes"/>
      <point x="337" y="199"/>
      <point x="345" y="207"/>
      <point x="359" y="207" type="curve" smooth="yes"/>
      <point x="371" y="207"/>
      <point x="379" y="200"/>
      <point x="379" y="187" type="curve" smooth="yes"/>
      <point x="379" y="186"/>
      <point x="379" y="185"/>
      <point x="378" y="180" type="curve" smooth="yes"/>
      <point x="361" y="96" type="line" smooth="yes"/>
      <point x="357" y="76"/>
      <point x="346" y="69"/>
    </contour>
    <component base="fraction" xOffset="-29"/>
  </outline>
</glyph>
<glyph name="uni2032" format="1">
  <advance width="612"/>
  <unicode hex="2032"/>
  <outline>
    <contour>
      <point x="252" y="439" type="line"/>
      <point x="324" y="410" type="line"/>
      <point x="372" y="524" type="line"/>
      <point x="426" y="528"/>
      <point x="464" y="570"/>
      <point x="464" y="620" type="curve" smooth="yes"/>
      <point x="464" y="672"/>
      <point x="422" y="714"/>
      <point x="370" y="714" type="curve" smooth="yes"/>
      <point x="318" y="714"/>
      <point x="275" y="672"/>
      <point x="275" y="620" type="curve" smooth="yes"/>
      <point x="275" y="595"/>
      <point x="286" y="572"/>
      <point x="302" y="554" type="curve"/>
    </contour>
  </outline>
</glyph>
<glyph name="uni2033" format="1">
  <advance width="612"/>
  <unicode hex="2033"/>
  <outline>
    <contour>
      <point x="144" y="439" type="line"/>
      <point x="216" y="410" type="line"/>
      <point x="264" y="524" type="line"/>
      <point x="318" y="528"/>
      <point x="356" y="570"/>
      <point x="356" y="620" type="curve" smooth="yes"/>
      <point x="356" y="672"/>
      <point x="314" y="714"/>
      <point x="262" y="714" type="curve" smooth="yes"/>
      <point x="210" y="714"/>
      <point x="167" y="672"/>
      <point x="167" y="620" type="curve" smooth="yes"/>
      <point x="167" y="595"/>
      <point x="178" y="572"/>
      <point x="194" y="554" type="curve"/>
    </contour>
    <contour>
      <point x="375" y="439" type="line"/>
      <point x="447" y="410" type="line"/>
      <point x="495" y="524" type="line"/>
      <point x="549" y="528"/>
      <point x="587" y="570"/>
      <point x="587" y="620" type="curve" smooth="yes"/>
      <point x="587" y="672"/>
      <point x="545" y="714"/>
      <point x="493" y="714" type="curve" smooth="yes"/>
      <point x="441" y="714"/>
      <point x="398" y="672"/>
      <point x="398" y="620" type="curve" smooth="yes"/>
      <point x="398" y="595"/>
      <point x="409" y="572"/>
      <point x="425" y="554" type="curve"/>
    </contour>
  </outline>
</glyph>
<glyph name="fraction" format="1">
  <advance width="612"/>
  <unicode hex="2044"/>
  <outline>
    <contour>
      <point x="49" y="268" type="line"/>
      <point x="90" y="190" type="line"/>
      <point x="562" y="432" type="line"/>
      <point x="521" y="510" type="line"/>
    </contour>
  </outline>
</glyph>
<glyph name="uni2076" format="1">
  <advance width="612"/>
  <unicode hex="2076"/>
  <outline>
    <contour>
      <point x="415" y="614" type="line"/>
      <point x="416" y="624"/>
      <point x="416" y="625"/>
      <point x="416" y="628" type="curve" smooth="yes"/>
      <point x="416" y="671"/>
      <point x="385" y="706"/>
      <point x="330" y="706" type="curve" smooth="yes"/>
      <point x="267" y="706"/>
      <point x="223" y="670"/>
      <point x="209" y="604" type="curve" smooth="yes"/>
      <point x="192" y="524" type="line" smooth="yes"/>
      <point x="190" y="514"/>
      <point x="189" y="504"/>
      <point x="189" y="495" type="curve" smooth="yes"/>
      <point x="189" y="440"/>
      <point x="225" y="406"/>
      <point x="281" y="406" type="curve" smooth="yes"/>
      <point x="353" y="406"/>
      <point x="403" y="449"/>
      <point x="403" y="521" type="curve" smooth="yes"/>
      <point x="403" y="564"/>
      <point x="378" y="594"/>
      <point x="337" y="594" type="curve" smooth="yes"/>
      <point x="319" y="594"/>
      <point x="299" y="586"/>
      <point x="288" y="570" type="curve"/>
      <point x="279" y="570" type="line"/>
      <point x="288" y="610" type="line" smooth="yes"/>
      <point x="292" y="626"/>
      <point x="301" y="636"/>
      <point x="319" y="636" type="curve" smooth="yes"/>
      <point x="334" y="636"/>
      <point x="341" y="628"/>
      <point x="341" y="614" type="curve"/>
    </contour>
    <contour>
      <point x="297" y="522" type="curve" smooth="yes"/>
      <point x="311" y="522"/>
      <point x="321" y="515"/>
      <point x="321" y="503" type="curve" smooth="yes"/>
      <point x="321" y="485"/>
      <point x="305" y="478"/>
      <point x="290" y="478" type="curve" smooth="yes"/>
      <point x="275" y="478"/>
      <point x="264" y="484"/>
      <point x="264" y="497" type="curve" smooth="yes"/>
      <point x="264" y="512"/>
      <point x="277" y="522"/>
    </contour>
  </outline>
</glyph>
<glyph name="uni207E" format="1">
  <advance width="612"/>
  <unicode hex="207E"/>
  <outline>
    <contour>
      <point x="316" y="737" type="line" smooth="yes"/>
      <point x="373" y="737"/>
      <point x="405" y="703"/>
      <point x="405" y="653" type="curve" smooth="yes"/>
      <point x="405" y="644"/>
      <point x="404" y="634"/>
      <point x="402" y="624" type="curve" smooth="yes"/>
      <point x="373" y="488" type="line" smooth="yes"/>
      <point x="358" y="418"/>
      <point x="310" y="375"/>
      <point x="239" y="375" type="curve" smooth="yes"/>
      <point x="192" y="375" type="line"/>
      <point x="192" y="303" type="line"/>
      <point x="228" y="303" type="line" smooth="yes"/>
      <point x="338" y="303"/>
      <point x="417" y="360"/>
      <point x="444" y="486" type="curve" smooth="yes"/>
      <point x="471" y="610" type="line" smooth="yes"/>
      <point x="475" y="630"/>
      <point x="478" y="649"/>
      <point x="478" y="666" type="curve" smooth="yes"/>
      <point x="478" y="761"/>
      <point x="414" y="809"/>
      <point x="332" y="809" type="curve" smooth="yes"/>
      <point x="284" y="809" type="line"/>
      <point x="284" y="737" type="line"/>
    </contour>
  </outline>
</glyph>
<glyph name="uni207F" format="1">
  <advance width="612"/>
  <unicode hex="207F"/>
  <outline>
    <contour>
      <point x="298" y="572" type="line" smooth="yes"/>
      <point x="307" y="614"/>
      <point x="333" y="634"/>
      <point x="365" y="634" type="curve" smooth="yes"/>
      <point x="392" y="634"/>
      <point x="409" y="619"/>
      <point x="409" y="591" type="curve" smooth="yes"/>
      <point x="409" y="585"/>
      <point x="408" y="579"/>
      <point x="407" y="574" type="curve" smooth="yes"/>
      <point x="372" y="412" type="line"/>
      <point x="450" y="412" type="line"/>
      <point x="490" y="598" type="line" smooth="yes"/>
      <point x="491" y="603"/>
      <point x="493" y="614"/>
      <point x="493" y="622" type="curve" smooth="yes"/>
      <point x="493" y="667"/>
      <point x="464" y="706"/>
      <point x="408" y="706" type="curve" smooth="yes"/>
      <point x="366" y="706"/>
      <point x="338" y="688"/>
      <point x="323" y="661" type="curve"/>
      <point x="317" y="661" type="line"/>
      <point x="325" y="700" type="line"/>
      <point x="247" y="700" type="line"/>
      <point x="186" y="412" type="line"/>
      <point x="264" y="412" type="line"/>
    </contour>
  </outline>
</glyph>
<glyph name="uni2088" format="1">
  <advance width="612"/>
  <unicode hex="2088"/>
  <outline>
    <contour>
      <point x="218" y="-206" type="curve" smooth="yes"/>
      <point x="290" y="-206"/>
      <point x="336" y="-166"/>
      <point x="336" y="-112" type="curve" smooth="yes"/>
      <point x="336" y="-80"/>
      <point x="318" y="-63"/>
      <point x="301" y="-55" type="curve"/>
      <point x="301" y="-47" type="line"/>
      <point x="334" y="-42"/>
      <point x="359" y="-17"/>
      <point x="359" y="20" type="curve" smooth="yes"/>
      <point x="359" y="64"/>
      <point x="321" y="94"/>
      <point x="262" y="94" type="curve" smooth="yes"/>
      <point x="195" y="94"/>
      <point x="154" y="54"/>
      <point x="154" y="4" type="curve" smooth="yes"/>
      <point x="154" y="-24"/>
      <point x="170" y="-38"/>
      <point x="184" y="-47" type="curve"/>
      <point x="184" y="-55" type="line"/>
      <point x="142" y="-66"/>
      <point x="120" y="-94"/>
      <point x="120" y="-130" type="curve" smooth="yes"/>
      <point x="120" y="-182"/>
      <point x="167" y="-206"/>
    </contour>
    <contour>
      <point x="228" y="-134" type="curve" smooth="yes"/>
      <point x="213" y="-134"/>
      <point x="201" y="-127"/>
      <point x="201" y="-113" type="curve" smooth="yes"/>
      <point x="201" y="-96"/>
      <point x="216" y="-86"/>
      <point x="233" y="-86" type="curve" smooth="yes"/>
      <point x="248" y="-86"/>
      <point x="259" y="-93"/>
      <point x="259" y="-108" type="curve" smooth="yes"/>
      <point x="259" y="-124"/>
      <point x="244" y="-134"/>
    </contour>
    <contour>
      <point x="257" y="24" type="curve" smooth="yes"/>
      <point x="269" y="24"/>
      <point x="277" y="17"/>
      <point x="277" y="6" type="curve" smooth="yes"/>
      <point x="277" y="-7"/>
      <point x="266" y="-16"/>
      <point x="253" y="-16" type="curve" smooth="yes"/>
      <point x="241" y="-16"/>
      <point x="232" y="-10"/>
      <point x="232" y="1" type="curve" smooth="yes"/>
      <point x="232" y="16"/>
      <point x="244" y="24"/>
    </contour>
  </outline>
</glyph>
<glyph name="uni208E" format="1">
  <advance width="612"/>
  <unicode hex="208E"/>
  <outline>
    <contour>
      <point x="232" y="125" type="line" smooth="yes"/>
      <point x="289" y="125"/>
      <point x="321" y="91"/>
      <point x="321" y="41" type="curve" smooth="yes"/>
      <point x="321" y="32"/>
      <point x="320" y="22"/>
      <point x="318" y="12" type="curve" smooth="yes"/>
      <point x="289" y="-124" type="line" smooth="yes"/>
      <point x="274" y="-194"/>
      <point x="226" y="-237"/>
      <point x="155" y="-237" type="curve" smooth="yes"/>
      <point x="108" y="-237" type="line"/>
      <point x="108" y="-309" type="line"/>
      <point x="144" y="-309" type="line" smooth="yes"/>
      <point x="254" y="-309"/>
      <point x="333" y="-252"/>
      <point x="360" y="-126" type="curve" smooth="yes"/>
      <point x="387" y="-2" type="line" smooth="yes"/>
      <point x="391" y="18"/>
      <point x="394" y="37"/>
      <point x="394" y="54" type="curve" smooth="yes"/>
      <point x="394" y="149"/>
      <point x="330" y="197"/>
      <point x="248" y="197" type="curve" smooth="yes"/>
      <point x="200" y="197" type="line"/>
      <point x="200" y="125" type="line"/>
    </contour>
  </outline>
</glyph>
<glyph name="uni2094" format="1">
  <advance width="612"/>
  <unicode hex="2094"/>
  <outline>
    <contour>
      <point x="119" y="-34" type="line"/>
      <point x="111" y="-74" type="line" smooth="yes"/>
      <point x="109" y="-86"/>
      <point x="109" y="-90"/>
      <point x="109" y="-99" type="curve" smooth="yes"/>
      <point x="109" y="-150"/>
      <point x="139" y="-206"/>
      <point x="221" y="-206" type="curve" smooth="yes"/>
      <point x="343" y="-206"/>
      <point x="393" y="-116"/>
      <point x="393" y="-14" type="curve" smooth="yes"/>
      <point x="393" y="52"/>
      <point x="343" y="94"/>
      <point x="279" y="94" type="curve" smooth="yes"/>
      <point x="219" y="94"/>
      <point x="175" y="68"/>
      <point x="149" y="30" type="curve"/>
      <point x="201" y="-12" type="line"/>
      <point x="215" y="6"/>
      <point x="235" y="22"/>
      <point x="266" y="22" type="curve" smooth="yes"/>
      <point x="295" y="22"/>
      <point x="316" y="6"/>
      <point x="316" y="-23" type="curve" smooth="yes"/>
      <point x="316" y="-27"/>
      <point x="316" y="-29"/>
      <point x="315" y="-34" type="curve"/>
    </contour>
    <contour>
      <point x="233" y="-136" type="curve" smooth="yes"/>
      <point x="195" y="-136"/>
      <point x="184" y="-122"/>
      <point x="184" y="-96" type="curve"/>
      <point x="301" y="-96" type="line"/>
      <point x="293" y="-119"/>
      <point x="273" y="-136"/>
    </contour>
  </outline>
</glyph>
<glyph name="uni20A1" format="1">
  <advance width="612"/>
  <unicode hex="20A1"/>
  <outline>
    <contour>
      <point x="75" y="47" type="line"/>
      <point x="140" y="18" type="line"/>
      <point x="177" y="100" type="line"/>
      <point x="187" y="97"/>
      <point x="199" y="94"/>
      <point x="210" y="92" type="curve"/>
      <point x="191" y="48" type="line"/>
      <point x="257" y="18" type="line"/>
      <point x="289" y="89" type="line"/>
      <point x="429" y="100"/>
      <point x="511" y="174"/>
      <point x="546" y="284" type="curve"/>
      <point x="429" y="315" type="line"/>
      <point x="413" y="270"/>
      <point x="387" y="236"/>
      <point x="347" y="220" type="curve"/>
      <point x="441" y="429" type="line"/>
      <point x="445" y="416"/>
      <point x="447" y="401"/>
      <point x="447" y="385" type="curve"/>
      <point x="575" y="410" type="line"/>
      <point x="575" y="479"/>
      <point x="552" y="530"/>
      <point x="503" y="568" type="curve"/>
      <point x="541" y="653" type="line"/>
      <point x="476" y="682" type="line"/>
      <point x="439" y="600" type="line"/>
      <point x="428" y="603"/>
      <point x="417" y="606"/>
      <point x="405" y="608" type="curve"/>
      <point x="425" y="652" type="line"/>
      <point x="359" y="682" type="line"/>
      <point x="327" y="611" type="line"/>
      <point x="149" y="598"/>
      <point x="42" y="466"/>
      <point x="42" y="292" type="curve" smooth="yes"/>
      <point x="42" y="223"/>
      <point x="70" y="169"/>
      <point x="114" y="134" type="curve"/>
    </contour>
    <contour>
      <point x="229" y="216" type="curve"/>
      <point x="353" y="491" type="line"/>
      <point x="366" y="490"/>
      <point x="377" y="488"/>
      <point x="387" y="485" type="curve"/>
      <point x="263" y="208" type="line"/>
      <point x="251" y="209"/>
      <point x="239" y="212"/>
    </contour>
    <contour>
      <point x="172" y="309" type="curve" smooth="yes"/>
      <point x="172" y="383"/>
      <point x="209" y="446"/>
      <point x="266" y="475" type="curve"/>
      <point x="176" y="274" type="line"/>
      <point x="173" y="285"/>
      <point x="172" y="296"/>
    </contour>
  </outline>
</glyph>
<glyph name="uni20A4" format="1">
  <advance width="612"/>
  <unicode hex="20A4"/>
  <outline>
    <contour>
      <point x="112" y="350" type="line"/>
      <point x="162" y="350" type="line"/>
      <point x="155" y="320" type="line"/>
      <point x="89" y="320" type="line"/>
      <point x="89" y="242" type="line"/>
      <point x="139" y="242" type="line"/>
      <point x="132" y="210" type="line"/>
      <point x="59" y="210" type="line"/>
      <point x="59" y="102" type="line"/>
      <point x="451" y="102" type="line"/>
      <point x="451" y="210" type="line"/>
      <point x="246" y="210" type="line"/>
      <point x="253" y="242" type="line"/>
      <point x="332" y="242" type="line"/>
      <point x="332" y="320" type="line"/>
      <point x="270" y="320" type="line"/>
      <point x="276" y="350" type="line"/>
      <point x="355" y="350" type="line"/>
      <point x="355" y="428" type="line"/>
      <point x="293" y="428" type="line"/>
      <point x="296" y="442" type="line" smooth="yes"/>
      <point x="304" y="478"/>
      <point x="325" y="504"/>
      <point x="365" y="504" type="curve" smooth="yes"/>
      <point x="400" y="504"/>
      <point x="414" y="480"/>
      <point x="414" y="456" type="curve" smooth="yes"/>
      <point x="414" y="451"/>
      <point x="412" y="441"/>
      <point x="409" y="428" type="curve"/>
      <point x="522" y="428" type="line"/>
      <point x="524" y="440" type="line" smooth="yes"/>
      <point x="526" y="452"/>
      <point x="527" y="462"/>
      <point x="527" y="473" type="curve" smooth="yes"/>
      <point x="527" y="558"/>
      <point x="468" y="612"/>
      <point x="383" y="612" type="curve" smooth="yes"/>
      <point x="276" y="612"/>
      <point x="208" y="564"/>
      <point x="181" y="438" type="curve" smooth="yes"/>
      <point x="179" y="428" type="line"/>
      <point x="112" y="428" type="line"/>
    </contour>
  </outline>
</glyph>
<glyph name="uni20B1" format="1">
  <advance width="612"/>
  <unicode hex="20B1"/>
  <outline>
    <contour>
      <point x="82" y="371" type="line"/>
      <point x="134" y="371" type="line"/>
      <point x="127" y="336" type="line"/>
      <point x="57" y="336" type="line"/>
      <point x="57" y="252" type="line"/>
      <point x="109" y="252" type="line"/>
      <point x="77" y="102" type="line"/>
      <point x="191" y="102" type="line"/>
      <point x="223" y="252" type="line"/>
      <point x="529" y="252" type="line"/>
      <point x="529" y="336" type="line"/>
      <point x="453" y="336" type="line"/>
      <point x="453" y="342" type="line"/>
      <point x="466" y="350"/>
      <point x="475" y="361"/>
      <point x="478" y="371" type="curve"/>
      <point x="554" y="371" type="line"/>
      <point x="554" y="455" type="line"/>
      <point x="502" y="455" type="line"/>
      <point x="502" y="525"/>
      <point x="472" y="598"/>
      <point x="349" y="598" type="curve" smooth="yes"/>
      <point x="182" y="598" type="line"/>
      <point x="152" y="455" type="line"/>
      <point x="82" y="455" type="line"/>
    </contour>
    <contour>
      <point x="293" y="336" type="curve"/>
      <point x="241" y="336" type="line"/>
      <point x="248" y="371" type="line"/>
      <point x="361" y="371" type="line"/>
      <point x="346" y="350"/>
      <point x="327" y="336"/>
    </contour>
    <contour>
      <point x="273" y="490" type="line"/>
      <point x="325" y="490" type="line" smooth="yes"/>
      <point x="354" y="490"/>
      <point x="374" y="479"/>
      <point x="379" y="455" type="curve"/>
      <point x="266" y="455" type="line"/>
    </contour>
  </outline>
</glyph>
<glyph name="uni20B5" format="1">
  <advance width="612"/>
  <unicode hex="20B5"/>
  <outline>
    <contour>
      <point x="418" y="672" type="line"/>
      <point x="334" y="672" type="line"/>
      <point x="321" y="610" type="line"/>
      <point x="219" y="597"/>
      <point x="157" y="527"/>
      <point x="136" y="427" type="curve" smooth="yes"/>
      <point x="109" y="300" type="line" smooth="yes"/>
      <point x="104" y="275"/>
      <point x="102" y="257"/>
      <point x="102" y="238" type="curve" smooth="yes"/>
      <point x="102" y="155"/>
      <point x="146" y="106"/>
      <point x="210" y="92" type="curve"/>
      <point x="197" y="28" type="line"/>
      <point x="281" y="28" type="line"/>
      <point x="294" y="90" type="line"/>
      <point x="402" y="103"/>
      <point x="452" y="166"/>
      <point x="475" y="274" type="curve" smooth="yes"/>
      <point x="478" y="288" type="line"/>
      <point x="364" y="288" type="line"/>
      <point x="361" y="274" type="line" smooth="yes"/>
      <point x="354" y="241"/>
      <point x="342" y="217"/>
      <point x="319" y="205" type="curve"/>
      <point x="380" y="492" type="line"/>
      <point x="391" y="482"/>
      <point x="396" y="467"/>
      <point x="396" y="449" type="curve" smooth="yes"/>
      <point x="396" y="438"/>
      <point x="395" y="431"/>
      <point x="394" y="426" type="curve" smooth="yes"/>
      <point x="391" y="412" type="line"/>
      <point x="505" y="412" type="line"/>
      <point x="508" y="427" type="line" smooth="yes"/>
      <point x="511" y="442"/>
      <point x="512" y="455"/>
      <point x="512" y="469" type="curve" smooth="yes"/>
      <point x="512" y="537"/>
      <point x="475" y="590"/>
      <point x="404" y="606" type="curve"/>
    </contour>
    <contour>
      <point x="219" y="281" type="curve" smooth="yes"/>
      <point x="248" y="420" type="line" smooth="yes"/>
      <point x="256" y="456"/>
      <point x="271" y="481"/>
      <point x="296" y="494" type="curve"/>
      <point x="235" y="206" type="line"/>
      <point x="222" y="214"/>
      <point x="215" y="229"/>
      <point x="215" y="250" type="curve" smooth="yes"/>
      <point x="215" y="259"/>
      <point x="216" y="268"/>
    </contour>
  </outline>
</glyph>
<glyph name="uni2113" format="1">
  <advance width="612"/>
  <unicode hex="2113"/>
  <outline>
    <contour>
      <point x="288" y="208" type="line"/>
      <point x="448" y="264"/>
      <point x="567" y="414"/>
      <point x="567" y="570" type="curve" smooth="yes"/>
      <point x="567" y="650"/>
      <point x="520" y="714"/>
      <point x="422" y="714" type="curve" smooth="yes"/>
      <point x="324" y="714"/>
      <point x="259" y="653"/>
      <point x="237" y="552" type="curve" smooth="yes"/>
      <point x="182" y="304" type="line"/>
      <point x="167" y="303"/>
      <point x="151" y="302"/>
      <point x="134" y="302" type="curve" smooth="yes"/>
      <point x="24" y="302" type="line"/>
      <point x="24" y="182" type="line"/>
      <point x="120" y="182" type="line" smooth="yes"/>
      <point x="132" y="182"/>
      <point x="144" y="182"/>
      <point x="157" y="183" type="curve"/>
      <point x="136" y="96" type="line" smooth="yes"/>
      <point x="134" y="87"/>
      <point x="133" y="80"/>
      <point x="133" y="72" type="curve" smooth="yes"/>
      <point x="133" y="29"/>
      <point x="165" y="0"/>
      <point x="212" y="0" type="curve" smooth="yes"/>
      <point x="447" y="0" type="line"/>
      <point x="447" y="120" type="line"/>
      <point x="294" y="120" type="line" smooth="yes"/>
      <point x="278" y="120"/>
      <point x="269" y="128"/>
      <point x="273" y="146" type="curve" smooth="yes"/>
    </contour>
    <contour>
      <point x="360" y="540" type="line" smooth="yes"/>
      <point x="368" y="578"/>
      <point x="386" y="594"/>
      <point x="406" y="594" type="curve" smooth="yes"/>
      <point x="428" y="594"/>
      <point x="439" y="578"/>
      <point x="439" y="556" type="curve" smooth="yes"/>
      <point x="439" y="470"/>
      <point x="388" y="392"/>
      <point x="318" y="349" type="curve"/>
    </contour>
  </outline>
</glyph>
<glyph name="uni2120" format="1">
  <advance width="612"/>
  <unicode hex="2120"/>
  <outline>
    <contour>
      <point x="183" y="608" type="curve"/>
      <point x="259" y="608" type="line"/>
      <point x="260" y="615"/>
      <point x="261" y="622"/>
      <point x="261" y="630" type="curve" smooth="yes"/>
      <point x="261" y="671"/>
      <point x="233" y="706"/>
      <point x="169" y="706" type="curve" smooth="yes"/>
      <point x="95" y="706"/>
      <point x="50" y="660"/>
      <point x="50" y="607" type="curve" smooth="yes"/>
      <point x="50" y="560"/>
      <point x="86" y="541"/>
      <point x="113" y="535" type="curve" smooth="yes"/>
      <point x="155" y="525"/>
      <point x="165" y="517"/>
      <point x="165" y="505" type="curve" smooth="yes"/>
      <point x="165" y="483"/>
      <point x="146" y="476"/>
      <point x="127" y="476" type="curve" smooth="yes"/>
      <point x="108" y="476"/>
      <point x="96" y="484"/>
      <point x="96" y="498" type="curve" smooth="yes"/>
      <point x="96" y="501"/>
      <point x="96" y="502"/>
      <point x="97" y="507" type="curve" smooth="yes"/>
      <point x="99" y="514" type="line"/>
      <point x="23" y="514" type="line"/>
      <point x="20" y="502" type="line" smooth="yes"/>
      <point x="19" y="497"/>
      <point x="18" y="492"/>
      <point x="18" y="486" type="curve" smooth="yes"/>
      <point x="18" y="449"/>
      <point x="52" y="406"/>
      <point x="118" y="406" type="curve" smooth="yes"/>
      <point x="188" y="406"/>
      <point x="244" y="442"/>
      <point x="244" y="515" type="curve" smooth="yes"/>
      <point x="244" y="554"/>
      <point x="223" y="577"/>
      <point x="174" y="589" type="curve" smooth="yes"/>
      <point x="139" y="597"/>
      <point x="128" y="602"/>
      <point x="128" y="614" type="curve" smooth="yes"/>
      <point x="128" y="630"/>
      <point x="143" y="636"/>
      <point x="160" y="636" type="curve" smooth="yes"/>
      <point x="175" y="636"/>
      <point x="184" y="627"/>
      <point x="184" y="617" type="curve" smooth="yes"/>
      <point x="184" y="616"/>
      <point x="184" y="615"/>
    </contour>
    <contour>
      <point x="247" y="412" type="line"/>
      <point x="323" y="412" type="line"/>
      <point x="373" y="646" type="line"/>
      <point x="385" y="646" type="line"/>
      <point x="377" y="610" type="line"/>
      <point x="349" y="412" type="line"/>
      <point x="445" y="412" type="line"/>
      <point x="501" y="610" type="line"/>
      <point x="509" y="646" type="line"/>
      <point x="521" y="646" type="line"/>
      <point x="471" y="412" type="line"/>
      <point x="547" y="412" type="line"/>
      <point x="608" y="700" type="line"/>
      <point x="476" y="700" type="line"/>
      <point x="421" y="502" type="line"/>
      <point x="413" y="466" type="line"/>
      <point x="401" y="466" type="line"/>
      <point x="409" y="502" type="line"/>
      <point x="440" y="700" type="line"/>
      <point x="308" y="700" type="line"/>
    </contour>
  </outline>
</glyph>
<glyph name="uni2126" format="1">
  <advance width="612"/>
  <unicode hex="2126"/>
  <outline>
    <contour>
      <point x="-9" y="0" type="line"/>
      <point x="227" y="0" type="line"/>
      <point x="227" y="138" type="line"/>
      <point x="181" y="154"/>
      <point x="164" y="181"/>
      <point x="164" y="228" type="curve" smooth="yes"/>
      <point x="164" y="261"/>
      <point x="172" y="301"/>
      <point x="181" y="344" type="curve" smooth="yes"/>
      <point x="198" y="426" type="line" smooth="yes"/>
      <point x="222" y="536"/>
      <point x="281" y="588"/>
      <point x="358" y="588" type="curve" smooth="yes"/>
      <point x="420" y="588"/>
      <point x="457" y="555"/>
      <point x="457" y="485" type="curve" smooth="yes"/>
      <point x="457" y="468"/>
      <point x="455" y="448"/>
      <point x="450" y="426" type="curve" smooth="yes"/>
      <point x="433" y="344" type="line" smooth="yes"/>
      <point x="406" y="218"/>
      <point x="384" y="164"/>
      <point x="299" y="138" type="curve"/>
      <point x="299" y="0" type="line"/>
      <point x="530" y="0" type="line"/>
      <point x="530" y="126" type="line"/>
      <point x="426" y="126" type="line"/>
      <point x="426" y="144" type="line"/>
      <point x="490" y="168"/>
      <point x="538" y="218"/>
      <point x="561" y="326" type="curve" smooth="yes"/>
      <point x="585" y="438" type="line" smooth="yes"/>
      <point x="589" y="458"/>
      <point x="592" y="483"/>
      <point x="592" y="504" type="curve" smooth="yes"/>
      <point x="592" y="626"/>
      <point x="513" y="714"/>
      <point x="380" y="714" type="curve" smooth="yes"/>
      <point x="214" y="714"/>
      <point x="107" y="618"/>
      <point x="70" y="442" type="curve" smooth="yes"/>
      <point x="45" y="326" type="line" smooth="yes"/>
      <point x="40" y="301"/>
      <point x="37" y="280"/>
      <point x="37" y="261" type="curve" smooth="yes"/>
      <point x="37" y="201"/>
      <point x="62" y="165"/>
      <point x="98" y="144" type="curve"/>
      <point x="98" y="126" type="line"/>
      <point x="-9" y="126" type="line"/>
    </contour>
  </outline>
</glyph>
<glyph name="arrowleft" format="1">
  <advance width="612"/>
  <unicode hex="2190"/>
  <outline>
    <contour>
      <point x="24" y="450" type="line"/>
      <point x="24" y="250" type="line"/>
      <point x="181" y="94" type="line"/>
      <point x="262" y="175" type="line"/>
      <point x="165" y="272" type="line"/>
      <point x="96" y="300" type="line"/>
      <point x="103" y="317" type="line"/>
      <point x="165" y="293" type="line"/>
      <point x="588" y="293" type="line"/>
      <point x="588" y="407" type="line"/>
      <point x="165" y="407" type="line"/>
      <point x="103" y="383" type="line"/>
      <point x="96" y="400" type="line"/>
      <point x="165" y="428" type="line"/>
      <point x="262" y="525" type="line"/>
      <point x="181" y="606" type="line"/>
    </contour>
  </outline>
</glyph>
<glyph name="arrowup" format="1">
  <advance width="612"/>
  <unicode hex="2191"/>
  <outline>
    <contour>
      <point x="406" y="632" type="line"/>
      <point x="206" y="632" type="line"/>
      <point x="50" y="475" type="line"/>
      <point x="131" y="394" type="line"/>
      <point x="228" y="491" type="line"/>
      <point x="256" y="560" type="line"/>
      <point x="273" y="553" type="line"/>
      <point x="249" y="491" type="line"/>
      <point x="249" y="68" type="line"/>
      <point x="363" y="68" type="line"/>
      <point x="363" y="491" type="line"/>
      <point x="339" y="553" type="line"/>
      <point x="356" y="560" type="line"/>
      <point x="384" y="491" type="line"/>
      <point x="481" y="394" type="line"/>
      <point x="562" y="475" type="line"/>
    </contour>
  </outline>
</glyph>
<glyph name="partialdiff" format="1">
  <advance width="612"/>
  <unicode hex="2202"/>
  <outline>
    <contour>
      <point x="430" y="464" type="curve"/>
      <point x="412" y="464" type="line"/>
      <point x="395" y="492"/>
      <point x="360" y="510"/>
      <point x="295" y="510" type="curve" smooth="yes"/>
      <point x="125" y="510"/>
      <point x="15" y="354"/>
      <point x="15" y="200" type="curve" smooth="yes"/>
      <point x="15" y="62"/>
      <point x="103" y="-14"/>
      <point x="221" y="-14" type="curve" smooth="yes"/>
      <point x="469" y="-14"/>
      <point x="563" y="202"/>
      <point x="563" y="380" type="curve" smooth="yes"/>
      <point x="563" y="601"/>
      <point x="436" y="712"/>
      <point x="244" y="728" type="curve"/>
      <point x="200" y="614" type="line"/>
      <point x="327" y="606"/>
      <point x="416" y="556"/>
    </contour>
    <contour>
      <point x="247" y="106" type="curve" smooth="yes"/>
      <point x="192" y="106"/>
      <point x="143" y="140"/>
      <point x="143" y="216" type="curve" smooth="yes"/>
      <point x="143" y="301"/>
      <point x="212" y="390"/>
      <point x="308" y="390" type="curve" smooth="yes"/>
      <point x="373" y="390"/>
      <point x="413" y="353"/>
      <point x="413" y="290" type="curve" smooth="yes"/>
      <point x="413" y="193"/>
      <point x="342" y="106"/>
    </contour>
  </outline>
</glyph>
<glyph name="uni2206" format="1">
  <advance width="612"/>
  <unicode hex="2206"/>
  <outline>
    <contour>
      <point x="530" y="0" type="line"/>
      <point x="512" y="700" type="line"/>
      <point x="264" y="700" type="line"/>
      <point x="-48" y="12" type="line"/>
      <point x="-48" y="0" type="line"/>
    </contour>
    <contour>
      <point x="369" y="634" type="line"/>
      <point x="387" y="634" type="line"/>
      <point x="394" y="126" type="line"/>
      <point x="145" y="126" type="line"/>
    </contour>
  </outline>
</glyph>
<glyph name="infinity" format="1">
  <advance width="612"/>
  <unicode hex="221E"/>
  <outline>
    <contour>
      <point x="218" y="513" type="curve" smooth="yes"/>
      <point x="264" y="513"/>
      <point x="301" y="496"/>
      <point x="321" y="465" type="curve"/>
      <point x="339" y="465" type="line"/>
      <point x="369" y="498"/>
      <point x="408" y="513"/>
      <point x="454" y="513" type="curve" smooth="yes"/>
      <point x="529" y="513"/>
      <point x="582" y="458"/>
      <point x="582" y="384" type="curve" smooth="yes"/>
      <point x="582" y="258"/>
      <point x="496" y="187"/>
      <point x="398" y="187" type="curve" smooth="yes"/>
      <point x="346" y="187"/>
      <point x="312" y="204"/>
      <point x="290" y="235" type="curve"/>
      <point x="272" y="235" type="line"/>
      <point x="246" y="202"/>
      <point x="206" y="187"/>
      <point x="157" y="187" type="curve" smooth="yes"/>
      <point x="86" y="187"/>
      <point x="30" y="242"/>
      <point x="30" y="324" type="curve" smooth="yes"/>
      <point x="30" y="434"/>
      <point x="112" y="513"/>
    </contour>
    <contour>
      <point x="359" y="340" type="curve" smooth="yes"/>
      <point x="359" y="314"/>
      <point x="378" y="295"/>
      <point x="406" y="295" type="curve" smooth="yes"/>
      <point x="446" y="295"/>
      <point x="471" y="324"/>
      <point x="471" y="360" type="curve" smooth="yes"/>
      <point x="471" y="386"/>
      <point x="452" y="405"/>
      <point x="424" y="405" type="curve" smooth="yes"/>
      <point x="386" y="405"/>
      <point x="359" y="376"/>
    </contour>
    <contour>
      <point x="141" y="340" type="curve" smooth="yes"/>
      <point x="141" y="314"/>
      <point x="160" y="295"/>
      <point x="188" y="295" type="curve" smooth="yes"/>
      <point x="228" y="295"/>
      <point x="253" y="324"/>
      <point x="253" y="360" type="curve" smooth="yes"/>
      <point x="253" y="386"/>
      <point x="234" y="405"/>
      <point x="206" y="405" type="curve" smooth="yes"/>
      <point x="168" y="405"/>
      <point x="141" y="376"/>
    </contour>
  </outline>
</glyph>
<glyph name="integral" format="1">
  <advance width="612"/>
  <unicode hex="222B"/>
  <outline>
    <contour>
      <point x="418" y="550" type="line" smooth="yes"/>
      <point x="422" y="569"/>
      <point x="433" y="580"/>
      <point x="452" y="580" type="curve" smooth="yes"/>
      <point x="551" y="580" type="line"/>
      <point x="551" y="700" type="line"/>
      <point x="425" y="700" type="line" smooth="yes"/>
      <point x="364" y="700"/>
      <point x="315" y="660"/>
      <point x="302" y="598" type="curve" smooth="yes"/>
      <point x="161" y="-50" type="line" smooth="yes"/>
      <point x="157" y="-69"/>
      <point x="146" y="-80"/>
      <point x="127" y="-80" type="curve" smooth="yes"/>
      <point x="28" y="-80" type="line"/>
      <point x="28" y="-200" type="line"/>
      <point x="154" y="-200" type="line" smooth="yes"/>
      <point x="214" y="-200"/>
      <point x="264" y="-158"/>
      <point x="277" y="-98" type="curve" smooth="yes"/>
    </contour>
  </outline>
</glyph>
<glyph name="approxequal" format="1">
  <advance width="612"/>
  <unicode hex="2248"/>
  <outline>
    <contour>
      <point x="367" y="510" type="curve" smooth="yes"/>
      <point x="353" y="532"/>
      <point x="327" y="551"/>
      <point x="281" y="551" type="curve" smooth="yes"/>
      <point x="245" y="551"/>
      <point x="215" y="534"/>
      <point x="192" y="516" type="curve" smooth="yes"/>
      <point x="87" y="436" type="line"/>
      <point x="157" y="343" type="line"/>
      <point x="227" y="394" type="line" smooth="yes"/>
      <point x="240" y="404"/>
      <point x="253" y="413"/>
      <point x="266" y="413" type="curve" smooth="yes"/>
      <point x="285" y="413"/>
      <point x="292" y="404"/>
      <point x="308" y="378" type="curve" smooth="yes"/>
      <point x="322" y="356"/>
      <point x="348" y="337"/>
      <point x="394" y="337" type="curve" smooth="yes"/>
      <point x="430" y="337"/>
      <point x="460" y="354"/>
      <point x="483" y="372" type="curve" smooth="yes"/>
      <point x="588" y="452" type="line"/>
      <point x="518" y="545" type="line"/>
      <point x="448" y="494" type="line" smooth="yes"/>
      <point x="435" y="484"/>
      <point x="422" y="475"/>
      <point x="409" y="475" type="curve" smooth="yes"/>
      <point x="390" y="475"/>
      <point x="383" y="484"/>
    </contour>
    <contour>
      <point x="307" y="284" type="curve" smooth="yes"/>
      <point x="293" y="306"/>
      <point x="267" y="325"/>
      <point x="221" y="325" type="curve" smooth="yes"/>
      <point x="185" y="325"/>
      <point x="155" y="308"/>
      <point x="132" y="290" type="curve" smooth="yes"/>
      <point x="24" y="208" type="line"/>
      <point x="94" y="115" type="line"/>
      <point x="167" y="168" type="line" smooth="yes"/>
      <point x="180" y="178"/>
      <point x="193" y="187"/>
      <point x="206" y="187" type="curve" smooth="yes"/>
      <point x="225" y="187"/>
      <point x="232" y="178"/>
      <point x="248" y="152" type="curve" smooth="yes"/>
      <point x="262" y="130"/>
      <point x="288" y="111"/>
      <point x="334" y="111" type="curve" smooth="yes"/>
      <point x="370" y="111"/>
      <point x="400" y="128"/>
      <point x="423" y="146" type="curve" smooth="yes"/>
      <point x="528" y="226" type="line"/>
      <point x="458" y="319" type="line"/>
      <point x="388" y="268" type="line" smooth="yes"/>
      <point x="375" y="258"/>
      <point x="362" y="249"/>
      <point x="349" y="249" type="curve" smooth="yes"/>
      <point x="330" y="249"/>
      <point x="323" y="258"/>
    </contour>
  </outline>
</glyph>
<glyph name="fi" format="1">
  <advance width="612"/>
  <unicode hex="FB01"/>
  <outline>
    <contour>
      <point x="500" y="12" type="curve"/>
      <point x="597" y="78" type="line"/>
      <point x="534" y="172" type="line"/>
      <point x="448" y="112" type="line"/>
      <point x="438" y="119" type="line"/>
      <point x="494" y="352" type="line" smooth="yes"/>
      <point x="497" y="365"/>
      <point x="498" y="377"/>
      <point x="498" y="389" type="curve" smooth="yes"/>
      <point x="498" y="451"/>
      <point x="457" y="496"/>
      <point x="383" y="496" type="curve" smooth="yes"/>
      <point x="255" y="496" type="line"/>
      <point x="266" y="550" type="line" smooth="yes"/>
      <point x="270" y="569"/>
      <point x="280" y="580"/>
      <point x="299" y="580" type="curve" smooth="yes"/>
      <point x="355" y="580" type="line"/>
      <point x="355" y="700" type="line"/>
      <point x="273" y="700" type="line" smooth="yes"/>
      <point x="216" y="700"/>
      <point x="162" y="655"/>
      <point x="150" y="598" type="curve" smooth="yes"/>
      <point x="129" y="496" type="line"/>
      <point x="4" y="496" type="line"/>
      <point x="4" y="376" type="line"/>
      <point x="103" y="376" type="line"/>
      <point x="23" y="0" type="line"/>
      <point x="149" y="0" type="line"/>
      <point x="229" y="376" type="line"/>
      <point x="337" y="376" type="line" smooth="yes"/>
      <point x="356" y="376"/>
      <point x="366" y="369"/>
      <point x="366" y="354" type="curve" smooth="yes"/>
      <point x="366" y="351"/>
      <point x="366" y="349"/>
      <point x="365" y="344" type="curve" smooth="yes"/>
      <point x="313" y="126" type="line" smooth="yes"/>
      <point x="310" y="112"/>
      <point x="309" y="102"/>
      <point x="309" y="91" type="curve" smooth="yes"/>
      <point x="309" y="26"/>
      <point x="359" y="-14"/>
      <point x="418" y="-14" type="curve" smooth="yes"/>
      <point x="445" y="-14"/>
      <point x="474" y="-6"/>
    </contour>
    <contour>
      <point x="587" y="643" type="curve" smooth="yes"/>
      <point x="587" y="696"/>
      <point x="544" y="738"/>
      <point x="492" y="738" type="curve" smooth="yes"/>
      <point x="440" y="738"/>
      <point x="397" y="696"/>
      <point x="397" y="643" type="curve" smooth="yes"/>
      <point x="397" y="590"/>
      <point x="440" y="548"/>
      <point x="492" y="548" type="curve" smooth="yes"/>
      <point x="544" y="548"/>
      <point x="587" y="590"/>
    </contour>
  </outline>
</glyph>
<glyph name="B.alt" format="1">
  <advance width="612"/>
  <outline>
    <contour>
      <point x="275" y="0" type="line" smooth="yes"/>
      <point x="419" y="0"/>
      <point x="523" y="93"/>
      <point x="523" y="210" type="curve" smooth="yes"/>
      <point x="523" y="284"/>
      <point x="486" y="324"/>
      <point x="433" y="340" type="curve"/>
      <point x="433" y="358" type="line"/>
      <point x="520" y="379"/>
      <point x="592" y="437"/>
      <point x="592" y="537" type="curve" smooth="yes"/>
      <point x="592" y="628"/>
      <point x="531" y="700"/>
      <point x="397" y="700" type="curve" smooth="yes"/>
      <point x="161" y="700" type="line"/>
      <point x="12" y="0" type="line"/>
    </contour>
    <contour>
      <point x="203" y="288" type="line"/>
      <point x="319" y="288" type="line" smooth="yes"/>
      <point x="368" y="288"/>
      <point x="399" y="268"/>
      <point x="399" y="219" type="curve" smooth="yes"/>
      <point x="399" y="159"/>
      <point x="350" y="126"/>
      <point x="285" y="126" type="curve" smooth="yes"/>
      <point x="169" y="126" type="line"/>
    </contour>
    <contour>
      <point x="264" y="574" type="line"/>
      <point x="380" y="574" type="line" smooth="yes"/>
      <point x="429" y="574"/>
      <point x="459" y="551"/>
      <point x="459" y="507" type="curve" smooth="yes"/>
      <point x="459" y="446"/>
      <point x="415" y="414"/>
      <point x="346" y="414" type="curve" smooth="yes"/>
      <point x="230" y="414" type="line"/>
    </contour>
  </outline>
</glyph>
<glyph name="Dcroat.alt" format="1">
  <advance width="612"/>
  <outline>
    <contour>
      <point x="172" y="700" type="line"/>
      <point x="110" y="410" type="line"/>
      <point x="32" y="410" type="line"/>
      <point x="32" y="290" type="line"/>
      <point x="85" y="290" type="line"/>
      <point x="26" y="12" type="line"/>
      <point x="26" y="0" type="line"/>
      <point x="223" y="0" type="line" smooth="yes"/>
      <point x="404" y="0"/>
      <point x="495" y="72"/>
      <point x="531" y="242" type="curve" smooth="yes"/>
      <point x="575" y="452" type="line" smooth="yes"/>
      <point x="579" y="473"/>
      <point x="582" y="493"/>
      <point x="582" y="512" type="curve" smooth="yes"/>
      <point x="582" y="625"/>
      <point x="503" y="700"/>
      <point x="368" y="700" type="curve" smooth="yes"/>
    </contour>
    <contour>
      <point x="250" y="126" type="curve"/>
      <point x="182" y="126" type="line"/>
      <point x="217" y="290" type="line"/>
      <point x="328" y="290" type="line"/>
      <point x="328" y="410" type="line"/>
      <point x="242" y="410" type="line"/>
      <point x="277" y="574" type="line"/>
      <point x="345" y="574" type="line" smooth="yes"/>
      <point x="415" y="574"/>
      <point x="448" y="544"/>
      <point x="448" y="490" type="curve" smooth="yes"/>
      <point x="448" y="478"/>
      <point x="446" y="466"/>
      <point x="443" y="452" type="curve" smooth="yes"/>
      <point x="402" y="260" type="line" smooth="yes"/>
      <point x="383" y="168"/>
      <point x="342" y="126"/>
    </contour>
  </outline>
</glyph>
<glyph name="J.alt" format="1">
  <advance width="612"/>
  <outline>
    <contour>
      <point x="602" y="700" type="line"/>
      <point x="470" y="700" type="line"/>
      <point x="366" y="210" type="line" smooth="yes"/>
      <point x="352" y="146"/>
      <point x="312" y="110"/>
      <point x="255" y="110" type="curve" smooth="yes"/>
      <point x="204" y="110"/>
      <point x="177" y="136"/>
      <point x="177" y="181" type="curve" smooth="yes"/>
      <point x="177" y="190"/>
      <point x="178" y="201"/>
      <point x="180" y="210" type="curve" smooth="yes"/>
      <point x="194" y="276" type="line"/>
      <point x="62" y="276" type="line"/>
      <point x="52" y="229" type="line" smooth="yes"/>
      <point x="47" y="207"/>
      <point x="45" y="186"/>
      <point x="45" y="167" type="curve" smooth="yes"/>
      <point x="45" y="51"/>
      <point x="126" y="-14"/>
      <point x="237" y="-14" type="curve" smooth="yes"/>
      <point x="385" y="-14"/>
      <point x="464" y="52"/>
      <point x="498" y="210" type="curve" smooth="yes"/>
    </contour>
  </outline>
</glyph>
<glyph name="a.alt" format="1">
  <advance width="612"/>
  <outline>
    <contour>
      <point x="492" y="294" type="line" smooth="yes"/>
      <point x="495" y="309"/>
      <point x="497" y="324"/>
      <point x="497" y="338" type="curve" smooth="yes"/>
      <point x="497" y="440"/>
      <point x="417" y="510"/>
      <point x="306" y="510" type="curve" smooth="yes"/>
      <point x="202" y="510"/>
      <point x="134" y="458"/>
      <point x="98" y="398" type="curve"/>
      <point x="188" y="330" type="line"/>
      <point x="210" y="366"/>
      <point x="242" y="390"/>
      <point x="290" y="390" type="curve" smooth="yes"/>
      <point x="343" y="390"/>
      <point x="371" y="361"/>
      <point x="371" y="323" type="curve" smooth="yes"/>
      <point x="371" y="318"/>
      <point x="370" y="311"/>
      <point x="369" y="306" type="curve"/>
      <point x="235" y="306" type="line" smooth="yes"/>
      <point x="78" y="306"/>
      <point x="26" y="213"/>
      <point x="26" y="138" type="curve" smooth="yes"/>
      <point x="26" y="40"/>
      <point x="90" y="-14"/>
      <point x="174" y="-14" type="curve" smooth="yes"/>
      <point x="254" y="-14"/>
      <point x="290" y="22"/>
      <point x="312" y="66" type="curve"/>
      <point x="330" y="66" type="line"/>
      <point x="341" y="16"/>
      <point x="385" y="-14"/>
      <point x="436" y="-14" type="curve" smooth="yes"/>
      <point x="463" y="-14"/>
      <point x="491" y="-6"/>
      <point x="518" y="12" type="curve" smooth="yes"/>
      <point x="580" y="54" type="line"/>
      <point x="517" y="148" type="line"/>
      <point x="466" y="112" type="line"/>
      <point x="456" y="119" type="line"/>
    </contour>
    <contour>
      <point x="220" y="106" type="curve" smooth="yes"/>
      <point x="186" y="106"/>
      <point x="164" y="122"/>
      <point x="164" y="151" type="curve" smooth="yes"/>
      <point x="164" y="180"/>
      <point x="192" y="198"/>
      <point x="228" y="198" type="curve" smooth="yes"/>
      <point x="346" y="198" type="line"/>
      <point x="335" y="146"/>
      <point x="286" y="106"/>
    </contour>
  </outline>
</glyph>
<glyph name="aogonek.alt" format="1">
  <advance width="612"/>
  <outline>
    <contour>
      <point x="492" y="294" type="line" smooth="yes"/>
      <point x="495" y="309"/>
      <point x="497" y="324"/>
      <point x="497" y="338" type="curve" smooth="yes"/>
      <point x="497" y="440"/>
      <point x="417" y="510"/>
      <point x="306" y="510" type="curve" smooth="yes"/>
      <point x="202" y="510"/>
      <point x="134" y="458"/>
      <point x="98" y="398" type="curve"/>
      <point x="188" y="330" type="line"/>
      <point x="210" y="366"/>
      <point x="242" y="390"/>
      <point x="290" y="390" type="curve" smooth="yes"/>
      <point x="343" y="390"/>
      <point x="371" y="361"/>
      <point x="371" y="323" type="curve" smooth="yes"/>
      <point x="371" y="318"/>
      <point x="370" y="311"/>
      <point x="369" y="306" type="curve"/>
      <point x="235" y="306" type="line" smooth="yes"/>
      <point x="78" y="306"/>
      <point x="26" y="213"/>
      <point x="26" y="138" type="curve" smooth="yes"/>
      <point x="26" y="40"/>
      <point x="90" y="-14"/>
      <point x="174" y="-14" type="curve" smooth="yes"/>
      <point x="254" y="-14"/>
      <point x="290" y="22"/>
      <point x="312" y="66" type="curve"/>
      <point x="330" y="66" type="line"/>
      <point x="335" y="40"/>
      <point x="349" y="20"/>
      <point x="369" y="6" type="curve"/>
      <point x="329" y="-23" type="line" smooth="yes"/>
      <point x="301" y="-44"/>
      <point x="288" y="-70"/>
      <point x="288" y="-95" type="curve" smooth="yes"/>
      <point x="288" y="-135"/>
      <point x="319" y="-170"/>
      <point x="367" y="-170" type="curve" smooth="yes"/>
      <point x="491" y="-170" type="line"/>
      <point x="491" y="-86" type="line"/>
      <point x="428" y="-86" type="line" smooth="yes"/>
      <point x="417" y="-86"/>
      <point x="411" y="-79"/>
      <point x="411" y="-72" type="curve" smooth="yes"/>
      <point x="411" y="-66"/>
      <point x="414" y="-62"/>
      <point x="419" y="-58" type="curve" smooth="yes"/>
      <point x="580" y="54" type="line"/>
      <point x="517" y="148" type="line"/>
      <point x="466" y="112" type="line"/>
      <point x="456" y="119" type="line"/>
    </contour>
    <contour>
      <point x="220" y="106" type="curve" smooth="yes"/>
      <point x="186" y="106"/>
      <point x="164" y="122"/>
      <point x="164" y="151" type="curve" smooth="yes"/>
      <point x="164" y="180"/>
      <point x="192" y="198"/>
      <point x="228" y="198" type="curve" smooth="yes"/>
      <point x="346" y="198" type="line"/>
      <point x="335" y="146"/>
      <point x="286" y="106"/>
    </contour>
  </outline>
</glyph>
<glyph name="copyright.cap" format="1">
  <advance width="612"/>
  <outline>
    <contour>
      <point x="293" y="440" type="line"/>
      <point x="298" y="464"/>
      <point x="309" y="480"/>
      <point x="333" y="480" type="curve" smooth="yes"/>
      <point x="352" y="480"/>
      <point x="359" y="470"/>
      <point x="359" y="455" type="curve" smooth="yes"/>
      <point x="359" y="450"/>
      <point x="358" y="444"/>
      <point x="357" y="440" type="curve" smooth="yes"/>
      <point x="346" y="390" type="line"/>
      <point x="442" y="390" type="line"/>
      <point x="451" y="434" type="line" smooth="yes"/>
      <point x="454" y="448"/>
      <point x="455" y="461"/>
      <point x="455" y="474" type="curve" smooth="yes"/>
      <point x="455" y="532"/>
      <point x="424" y="570"/>
      <point x="350" y="570" type="curve" smooth="yes"/>
      <point x="268" y="570"/>
      <point x="214" y="526"/>
      <point x="193" y="424" type="curve" smooth="yes"/>
      <point x="162" y="276" type="line" smooth="yes"/>
      <point x="158" y="258"/>
      <point x="156" y="242"/>
      <point x="156" y="228" type="curve" smooth="yes"/>
      <point x="156" y="162"/>
      <point x="194" y="130"/>
      <point x="259" y="130" type="curve" smooth="yes"/>
      <point x="354" y="130"/>
      <point x="398" y="176"/>
      <point x="416" y="266" type="curve" smooth="yes"/>
      <point x="425" y="310" type="line"/>
      <point x="329" y="310" type="line"/>
      <point x="318" y="260" type="line" smooth="yes"/>
      <point x="313" y="236"/>
      <point x="302" y="220"/>
      <point x="278" y="220" type="curve" smooth="yes"/>
      <point x="259" y="220"/>
      <point x="252" y="230"/>
      <point x="252" y="245" type="curve" smooth="yes"/>
      <point x="252" y="250"/>
      <point x="253" y="255"/>
      <point x="254" y="260" type="curve"/>
    </contour>
    <contour>
      <point x="3" y="197" type="line" smooth="yes"/>
      <point x="-1" y="177"/>
      <point x="-3" y="158"/>
      <point x="-3" y="141" type="curve" smooth="yes"/>
      <point x="-3" y="42"/>
      <point x="61" y="-14"/>
      <point x="158" y="-14" type="curve" smooth="yes"/>
      <point x="304" y="-14" type="line" smooth="yes"/>
      <point x="432" y="-14"/>
      <point x="511" y="46"/>
      <point x="541" y="186" type="curve" smooth="yes"/>
      <point x="609" y="506" type="line" smooth="yes"/>
      <point x="613" y="523"/>
      <point x="614" y="539"/>
      <point x="614" y="555" type="curve" smooth="yes"/>
      <point x="614" y="650"/>
      <point x="549" y="714"/>
      <point x="454" y="714" type="curve" smooth="yes"/>
      <point x="307" y="714" type="line" smooth="yes"/>
      <point x="189" y="714"/>
      <point x="98" y="644"/>
      <point x="70" y="514" type="curve"/>
    </contour>
    <contour>
      <point x="162" y="494" type="line"/>
      <point x="179" y="574"/>
      <point x="224" y="618"/>
      <point x="302" y="618" type="curve" smooth="yes"/>
      <point x="422" y="618" type="line" smooth="yes"/>
      <point x="485" y="618"/>
      <point x="515" y="589"/>
      <point x="515" y="536" type="curve" smooth="yes"/>
      <point x="515" y="523"/>
      <point x="513" y="509"/>
      <point x="510" y="494" type="curve" smooth="yes"/>
      <point x="449" y="206" type="line" smooth="yes"/>
      <point x="432" y="126"/>
      <point x="387" y="82"/>
      <point x="309" y="82" type="curve" smooth="yes"/>
      <point x="189" y="82" type="line" smooth="yes"/>
      <point x="126" y="82"/>
      <point x="96" y="111"/>
      <point x="96" y="164" type="curve" smooth="yes"/>
      <point x="96" y="177"/>
      <point x="98" y="191"/>
      <point x="101" y="206" type="curve"/>
    </contour>
  </outline>
</glyph>
<glyph name="dagger.cap" format="1">
  <advance width="612"/>
  <outline>
    <contour>
      <point x="157" y="0" type="line"/>
      <point x="265" y="0" type="line"/>
      <point x="355" y="422" type="line"/>
      <point x="534" y="422" type="line"/>
      <point x="534" y="528" type="line"/>
      <point x="377" y="528" type="line"/>
      <point x="414" y="700" type="line"/>
      <point x="306" y="700" type="line"/>
      <point x="269" y="528" type="line"/>
      <point x="90" y="528" type="line"/>
      <point x="90" y="422" type="line"/>
      <point x="247" y="422" type="line"/>
    </contour>
  </outline>
</glyph>
<glyph name="dotlessi.alt" format="1">
  <advance width="612"/>
  <outline>
    <contour>
      <point x="333" y="0" type="line"/>
      <point x="420" y="370" type="line" smooth="yes"/>
      <point x="423" y="385"/>
      <point x="424" y="393"/>
      <point x="424" y="404" type="curve" smooth="yes"/>
      <point x="424" y="470"/>
      <point x="374" y="510"/>
      <point x="315" y="510" type="curve" smooth="yes"/>
      <point x="288" y="510"/>
      <point x="259" y="502"/>
      <point x="233" y="484" type="curve" smooth="yes"/>
      <point x="88" y="386" type="line"/>
      <point x="151" y="292" type="line"/>
      <point x="285" y="384" type="line"/>
      <point x="295" y="377" type="line"/>
      <point x="206" y="0" type="line"/>
    </contour>
  </outline>
</glyph>
<glyph name="five.tosn" format="1">
  <advance width="612"/>
  <outline>
    <contour>
      <point x="33" y="126" type="line"/>
      <point x="33" y="138" type="line"/>
      <point x="108" y="496" type="line"/>
      <point x="544" y="496" type="line"/>
      <point x="544" y="370" type="line"/>
      <point x="212" y="370" type="line"/>
      <point x="175" y="198" type="line"/>
      <point x="193" y="198" type="line"/>
      <point x="221" y="252"/>
      <point x="279" y="294"/>
      <point x="369" y="294" type="curve" smooth="yes"/>
      <point x="471" y="294"/>
      <point x="534" y="222"/>
      <point x="534" y="100" type="curve" smooth="yes"/>
      <point x="534" y="-64"/>
      <point x="429" y="-200"/>
      <point x="225" y="-200" type="curve" smooth="yes"/>
      <point x="76" y="-200"/>
      <point x="-6" y="-110"/>
      <point x="-6" y="-1" type="curve" smooth="yes"/>
      <point x="-6" y="5"/>
      <point x="-6" y="12"/>
      <point x="-5" y="18" type="curve"/>
      <point x="133" y="44" type="line"/>
      <point x="133" y="32" type="line"/>
      <point x="133" y="-27"/>
      <point x="164" y="-74"/>
      <point x="245" y="-74" type="curve" smooth="yes"/>
      <point x="339" y="-74"/>
      <point x="397" y="9"/>
      <point x="397" y="79" type="curve" smooth="yes"/>
      <point x="397" y="142"/>
      <point x="370" y="168"/>
      <point x="325" y="168" type="curve" smooth="yes"/>
      <point x="286" y="168"/>
      <point x="257" y="148"/>
      <point x="246" y="126" type="curve"/>
    </contour>
  </outline>
</glyph>
<glyph name="four.tosn" format="1">
  <advance width="612"/>
  <outline>
    <contour>
      <point x="282" y="496" type="line"/>
      <point x="282" y="496"/>
      <point x="539" y="496"/>
      <point x="539" y="496" type="curve"/>
      <point x="539" y="496"/>
      <point x="460" y="126"/>
      <point x="460" y="126" type="curve"/>
      <point x="460" y="126"/>
      <point x="550" y="126"/>
      <point x="550" y="126" type="curve"/>
      <point x="550" y="126"/>
      <point x="550" y="0"/>
      <point x="550" y="0" type="curve"/>
      <point x="550" y="0"/>
      <point x="433" y="0"/>
      <point x="433" y="0" type="curve"/>
      <point x="433" y="0"/>
      <point x="392" y="-194"/>
      <point x="392" y="-194" type="curve"/>
      <point x="392" y="-194"/>
      <point x="260" y="-194"/>
      <point x="260" y="-194" type="curve"/>
      <point x="260" y="-194"/>
      <point x="301" y="0"/>
      <point x="301" y="0" type="curve"/>
      <point x="301" y="0"/>
      <point x="24" y="0"/>
      <point x="24" y="0" type="curve"/>
      <point x="24" y="186" type="line"/>
    </contour>
    <contour>
      <point x="138" y="144" type="line"/>
      <point x="138" y="126" type="line"/>
      <point x="138" y="126"/>
      <point x="328" y="126"/>
      <point x="328" y="126" type="curve"/>
      <point x="328" y="126"/>
      <point x="393" y="430"/>
      <point x="393" y="430" type="curve"/>
      <point x="393" y="430"/>
      <point x="375" y="430"/>
      <point x="375" y="430" type="curve"/>
    </contour>
  </outline>
</glyph>
<glyph name="g.alt" format="1">
  <advance width="612"/>
  <outline>
    <contour>
      <point x="185" y="102" type="line" smooth="yes"/>
      <point x="165" y="102"/>
      <point x="154" y="110"/>
      <point x="154" y="124" type="curve" smooth="yes"/>
      <point x="154" y="140"/>
      <point x="167" y="152"/>
      <point x="185" y="154" type="curve"/>
      <point x="201" y="146"/>
      <point x="224" y="136"/>
      <point x="280" y="136" type="curve" smooth="yes"/>
      <point x="402" y="136"/>
      <point x="492" y="210"/>
      <point x="492" y="310" type="curve" smooth="yes"/>
      <point x="492" y="340"/>
      <point x="486" y="354"/>
      <point x="478" y="364" type="curve"/>
      <point x="478" y="382" type="line"/>
      <point x="566" y="382" type="line"/>
      <point x="566" y="496" type="line"/>
      <point x="414" y="496" type="line"/>
      <point x="398" y="504"/>
      <point x="361" y="510"/>
      <point x="335" y="510" type="curve" smooth="yes"/>
      <point x="189" y="510"/>
      <point x="100" y="428"/>
      <point x="100" y="297" type="curve" smooth="yes"/>
      <point x="100" y="249"/>
      <point x="113" y="225"/>
      <point x="123" y="210" type="curve"/>
      <point x="123" y="192" type="line"/>
      <point x="70" y="174"/>
      <point x="46" y="140"/>
      <point x="46" y="103" type="curve" smooth="yes"/>
      <point x="46" y="72"/>
      <point x="62" y="50"/>
      <point x="84" y="38" type="curve"/>
      <point x="84" y="20" type="line"/>
      <point x="32" y="-2"/>
      <point x="1" y="-37"/>
      <point x="1" y="-95" type="curve" smooth="yes"/>
      <point x="1" y="-163"/>
      <point x="55" y="-200"/>
      <point x="127" y="-200" type="curve" smooth="yes"/>
      <point x="275" y="-200" type="line" smooth="yes"/>
      <point x="408" y="-200"/>
      <point x="466" y="-118"/>
      <point x="466" y="-26" type="curve" smooth="yes"/>
      <point x="466" y="49"/>
      <point x="410" y="102"/>
      <point x="310" y="102" type="curve" smooth="yes"/>
    </contour>
    <contour>
      <point x="312" y="390" type="curve" smooth="yes"/>
      <point x="352" y="390"/>
      <point x="377" y="368"/>
      <point x="377" y="334" type="curve" smooth="yes"/>
      <point x="377" y="290"/>
      <point x="344" y="258"/>
      <point x="295" y="258" type="curve" smooth="yes"/>
      <point x="260" y="258"/>
      <point x="231" y="276"/>
      <point x="231" y="314" type="curve" smooth="yes"/>
      <point x="231" y="358"/>
      <point x="262" y="390"/>
    </contour>
    <contour>
      <point x="174" y="-80" type="line"/>
      <point x="154" y="-80"/>
      <point x="135" y="-72"/>
      <point x="135" y="-48" type="curve" smooth="yes"/>
      <point x="135" y="-25"/>
      <point x="154" y="-12"/>
      <point x="182" y="-12" type="curve" smooth="yes"/>
      <point x="301" y="-12" type="line" smooth="yes"/>
      <point x="324" y="-12"/>
      <point x="338" y="-22"/>
      <point x="338" y="-42" type="curve" smooth="yes"/>
      <point x="338" y="-67"/>
      <point x="317" y="-80"/>
      <point x="290" y="-80" type="curve"/>
    </contour>
  </outline>
</glyph>
<glyph name="jcircumflex.alt" format="1">
  <advance width="612"/>
  <outline>
    <contour>
      <point x="314" y="-200" type="line"/>
      <point x="441" y="370" type="line" smooth="yes"/>
      <point x="444" y="384"/>
      <point x="445" y="393"/>
      <point x="445" y="403" type="curve" smooth="yes"/>
      <point x="445" y="470"/>
      <point x="395" y="510"/>
      <point x="336" y="510" type="curve" smooth="yes"/>
      <point x="309" y="510"/>
      <point x="280" y="502"/>
      <point x="254" y="484" type="curve" smooth="yes"/>
      <point x="109" y="386" type="line"/>
      <point x="172" y="292" type="line"/>
      <point x="306" y="384" type="line"/>
      <point x="316" y="377" type="line"/>
      <point x="188" y="-200" type="line"/>
    </contour>
    <component base="circumflex" xOffset="7"/>
  </outline>
</glyph>
<glyph name="nine.tosn" format="1">
  <advance width="612"/>
  <outline>
    <contour>
      <point x="22" y="12" type="line"/>
      <point x="20" y="0"/>
      <point x="19" y="-12"/>
      <point x="19" y="-24" type="curve" smooth="yes"/>
      <point x="19" y="-122"/>
      <point x="94" y="-200"/>
      <point x="234" y="-200" type="curve" smooth="yes"/>
      <point x="381" y="-200"/>
      <point x="483" y="-114"/>
      <point x="511" y="23" type="curve" smooth="yes"/>
      <point x="559" y="255" type="line" smooth="yes"/>
      <point x="564" y="279"/>
      <point x="565" y="291"/>
      <point x="565" y="308" type="curve" smooth="yes"/>
      <point x="565" y="429"/>
      <point x="471" y="510"/>
      <point x="345" y="510" type="curve" smooth="yes"/>
      <point x="163" y="510"/>
      <point x="56" y="390"/>
      <point x="56" y="228" type="curve" smooth="yes"/>
      <point x="56" y="100"/>
      <point x="147" y="34"/>
      <point x="237" y="34" type="curve" smooth="yes"/>
      <point x="307" y="34"/>
      <point x="355" y="60"/>
      <point x="379" y="112" type="curve"/>
      <point x="397" y="112" type="line"/>
      <point x="382" y="40" type="line" smooth="yes"/>
      <point x="368" y="-28"/>
      <point x="320" y="-74"/>
      <point x="241" y="-74" type="curve" smooth="yes"/>
      <point x="177" y="-74"/>
      <point x="152" y="-42"/>
      <point x="152" y="-5" type="curve" smooth="yes"/>
      <point x="152" y="1"/>
      <point x="153" y="6"/>
      <point x="154" y="12" type="curve"/>
    </contour>
    <contour>
      <point x="329" y="384" type="curve" smooth="yes"/>
      <point x="389" y="384"/>
      <point x="434" y="352"/>
      <point x="434" y="291" type="curve" smooth="yes"/>
      <point x="434" y="214"/>
      <point x="372" y="160"/>
      <point x="297" y="160" type="curve" smooth="yes"/>
      <point x="231" y="160"/>
      <point x="194" y="201"/>
      <point x="194" y="254" type="curve" smooth="yes"/>
      <point x="194" y="341"/>
      <point x="261" y="384"/>
    </contour>
  </outline>
</glyph>
<glyph name="numbersign.cap" format="1">
  <advance width="612"/>
  <outline>
    <contour>
      <point x="178" y="0" type="line"/>
      <point x="218" y="188" type="line"/>
      <point x="326" y="188" type="line"/>
      <point x="286" y="0" type="line"/>
      <point x="394" y="0" type="line"/>
      <point x="434" y="188" type="line"/>
      <point x="573" y="188" type="line"/>
      <point x="573" y="296" type="line"/>
      <point x="457" y="296" type="line"/>
      <point x="480" y="404" type="line"/>
      <point x="619" y="404" type="line"/>
      <point x="619" y="512" type="line"/>
      <point x="503" y="512" type="line"/>
      <point x="543" y="700" type="line"/>
      <point x="435" y="700" type="line"/>
      <point x="395" y="512" type="line"/>
      <point x="287" y="512" type="line"/>
      <point x="327" y="700" type="line"/>
      <point x="219" y="700" type="line"/>
      <point x="179" y="512" type="line"/>
      <point x="39" y="512" type="line"/>
      <point x="39" y="404" type="line"/>
      <point x="156" y="404" type="line"/>
      <point x="133" y="296" type="line"/>
      <point x="-6" y="296" type="line"/>
      <point x="-6" y="188" type="line"/>
      <point x="110" y="188" type="line"/>
      <point x="70" y="0" type="line"/>
    </contour>
    <contour>
      <point x="264" y="404" type="line"/>
      <point x="372" y="404" type="line"/>
      <point x="349" y="296" type="line"/>
      <point x="241" y="296" type="line"/>
    </contour>
  </outline>
</glyph>
<glyph name="paragraph.cap" format="1">
  <advance width="612"/>
  <outline>
    <contour>
      <point x="336" y="700" type="line" smooth="yes"/>
      <point x="171" y="700"/>
      <point x="77" y="597"/>
      <point x="77" y="465" type="curve" smooth="yes"/>
      <point x="77" y="350"/>
      <point x="163" y="284"/>
      <point x="251" y="284" type="curve" smooth="yes"/>
      <point x="257" y="284" type="line"/>
      <point x="197" y="0" type="line"/>
      <point x="305" y="0" type="line"/>
      <point x="432" y="598" type="line"/>
      <point x="474" y="598" type="line"/>
      <point x="347" y="0" type="line"/>
      <point x="455" y="0" type="line"/>
      <point x="601" y="688" type="line"/>
      <point x="601" y="700" type="line"/>
    </contour>
    <contour>
      <point x="312" y="598" type="curve"/>
      <point x="324" y="598" type="line"/>
      <point x="279" y="386" type="line"/>
      <point x="267" y="386" type="line" smooth="yes"/>
      <point x="232" y="386"/>
      <point x="188" y="414"/>
      <point x="188" y="472" type="curve" smooth="yes"/>
      <point x="188" y="533"/>
      <point x="224" y="598"/>
    </contour>
  </outline>
</glyph>
<glyph name="r.alt" format="1">
  <advance width="612"/>
  <outline>
    <contour>
      <point x="99" y="0" type="line"/>
      <point x="224" y="0" type="line"/>
      <point x="286" y="288" type="line" smooth="yes"/>
      <point x="300" y="354"/>
      <point x="331" y="392"/>
      <point x="384" y="392" type="curve" smooth="yes"/>
      <point x="426" y="392"/>
      <point x="448" y="368"/>
      <point x="448" y="329" type="curve" smooth="yes"/>
      <point x="448" y="321"/>
      <point x="447" y="312"/>
      <point x="445" y="302" type="curve" smooth="yes"/>
      <point x="442" y="288" type="line"/>
      <point x="576" y="298" type="line"/>
      <point x="581" y="320" type="line" smooth="yes"/>
      <point x="586" y="344"/>
      <point x="588" y="359"/>
      <point x="588" y="376" type="curve" smooth="yes"/>
      <point x="588" y="460"/>
      <point x="536" y="510"/>
      <point x="460" y="510" type="curve" smooth="yes"/>
      <point x="401" y="510"/>
      <point x="350" y="482"/>
      <point x="323" y="426" type="curve"/>
      <point x="305" y="426" type="line"/>
      <point x="297" y="479"/>
      <point x="252" y="510"/>
      <point x="199" y="510" type="curve" smooth="yes"/>
      <point x="168" y="510"/>
      <point x="133" y="499"/>
      <point x="102" y="476" type="curve" smooth="yes"/>
      <point x="22" y="416" type="line"/>
      <point x="89" y="326" type="line"/>
      <point x="168" y="384" type="line"/>
      <point x="178" y="378" type="line"/>
    </contour>
  </outline>
</glyph>
<glyph name="registered.cap" format="1">
  <advance width="612"/>
  <outline>
    <contour>
      <point x="409" y="284" type="line" smooth="yes"/>
      <point x="410" y="290"/>
      <point x="411" y="295"/>
      <point x="411" y="300" type="curve" smooth="yes"/>
      <point x="411" y="319"/>
      <point x="401" y="331"/>
      <point x="383" y="334" type="curve"/>
      <point x="383" y="343" type="line"/>
      <point x="438" y="366"/>
      <point x="460" y="412"/>
      <point x="460" y="470" type="curve" smooth="yes"/>
      <point x="460" y="526"/>
      <point x="416" y="564"/>
      <point x="342" y="564" type="curve" smooth="yes"/>
      <point x="231" y="564" type="line"/>
      <point x="140" y="136" type="line"/>
      <point x="236" y="136" type="line"/>
      <point x="269" y="289" type="line"/>
      <point x="295" y="289" type="line" smooth="yes"/>
      <point x="306" y="289"/>
      <point x="310" y="282"/>
      <point x="310" y="273" type="curve" smooth="yes"/>
      <point x="310" y="270"/>
      <point x="310" y="269"/>
      <point x="309" y="264" type="curve" smooth="yes"/>
      <point x="282" y="136" type="line"/>
      <point x="378" y="136" type="line"/>
    </contour>
    <contour>
      <point x="308" y="474" type="line"/>
      <point x="325" y="474" type="line" smooth="yes"/>
      <point x="344" y="474"/>
      <point x="360" y="465"/>
      <point x="360" y="438" type="curve" smooth="yes"/>
      <point x="360" y="407"/>
      <point x="342" y="379"/>
      <point x="305" y="379" type="curve" smooth="yes"/>
      <point x="288" y="379" type="line"/>
    </contour>
    <contour>
      <point x="3" y="197" type="line" smooth="yes"/>
      <point x="-1" y="177"/>
      <point x="-3" y="158"/>
      <point x="-3" y="141" type="curve" smooth="yes"/>
      <point x="-3" y="42"/>
      <point x="61" y="-14"/>
      <point x="158" y="-14" type="curve" smooth="yes"/>
      <point x="304" y="-14" type="line" smooth="yes"/>
      <point x="432" y="-14"/>
      <point x="511" y="46"/>
      <point x="541" y="186" type="curve" smooth="yes"/>
      <point x="609" y="506" type="line" smooth="yes"/>
      <point x="613" y="523"/>
      <point x="614" y="539"/>
      <point x="614" y="555" type="curve" smooth="yes"/>
      <point x="614" y="650"/>
      <point x="549" y="714"/>
      <point x="454" y="714" type="curve" smooth="yes"/>
      <point x="307" y="714" type="line" smooth="yes"/>
      <point x="189" y="714"/>
      <point x="98" y="644"/>
      <point x="70" y="514" type="curve" smooth="yes"/>
    </contour>
    <contour>
      <point x="162" y="494" type="line" smooth="yes"/>
      <point x="179" y="574"/>
      <point x="224" y="618"/>
      <point x="302" y="618" type="curve" smooth="yes"/>
      <point x="422" y="618" type="line" smooth="yes"/>
      <point x="485" y="618"/>
      <point x="515" y="589"/>
      <point x="515" y="536" type="curve" smooth="yes"/>
      <point x="515" y="523"/>
      <point x="513" y="509"/>
      <point x="510" y="494" type="curve" smooth="yes"/>
      <point x="449" y="206" type="line" smooth="yes"/>
      <point x="432" y="126"/>
      <point x="387" y="82"/>
      <point x="309" y="82" type="curve" smooth="yes"/>
      <point x="189" y="82" type="line" smooth="yes"/>
      <point x="126" y="82"/>
      <point x="96" y="111"/>
      <point x="96" y="164" type="curve" smooth="yes"/>
      <point x="96" y="177"/>
      <point x="98" y="191"/>
      <point x="101" y="206" type="curve" smooth="yes"/>
    </contour>
  </outline>
</glyph>
<glyph name="section.cap" format="1">
  <advance width="612"/>
  <outline>
    <contour>
      <point x="130" y="366" type="curve" smooth="yes"/>
      <point x="130" y="293"/>
      <point x="185" y="242"/>
      <point x="278" y="225" type="curve" smooth="yes"/>
      <point x="335" y="214"/>
      <point x="357" y="198"/>
      <point x="357" y="169" type="curve" smooth="yes"/>
      <point x="357" y="113"/>
      <point x="305" y="88"/>
      <point x="257" y="88" type="curve" smooth="yes"/>
      <point x="200" y="88"/>
      <point x="174" y="116"/>
      <point x="174" y="158" type="curve" smooth="yes"/>
      <point x="174" y="167"/>
      <point x="175" y="176"/>
      <point x="177" y="186" type="curve" smooth="yes"/>
      <point x="179" y="198" type="line"/>
      <point x="71" y="198" type="line"/>
      <point x="68" y="184" type="line" smooth="yes"/>
      <point x="65" y="169"/>
      <point x="63" y="155"/>
      <point x="63" y="141" type="curve" smooth="yes"/>
      <point x="63" y="50"/>
      <point x="131" y="-14"/>
      <point x="251" y="-14" type="curve" smooth="yes"/>
      <point x="378" y="-14"/>
      <point x="472" y="58"/>
      <point x="472" y="185" type="curve" smooth="yes"/>
      <point x="472" y="213"/>
      <point x="469" y="225"/>
      <point x="465" y="237" type="curve"/>
      <point x="492" y="267"/>
      <point x="506" y="302"/>
      <point x="506" y="347" type="curve" smooth="yes"/>
      <point x="506" y="428"/>
      <point x="462" y="469"/>
      <point x="366" y="487" type="curve" smooth="yes"/>
      <point x="295" y="500"/>
      <point x="278" y="521"/>
      <point x="278" y="550" type="curve" smooth="yes"/>
      <point x="278" y="591"/>
      <point x="316" y="612"/>
      <point x="364" y="612" type="curve" smooth="yes"/>
      <point x="411" y="612"/>
      <point x="433" y="586"/>
      <point x="433" y="553" type="curve" smooth="yes"/>
      <point x="433" y="548"/>
      <point x="432" y="541"/>
      <point x="431" y="536" type="curve" smooth="yes"/>
      <point x="429" y="526" type="line"/>
      <point x="537" y="526" type="line"/>
      <point x="541" y="545" type="line" smooth="yes"/>
      <point x="543" y="556"/>
      <point x="545" y="568"/>
      <point x="545" y="579" type="curve" smooth="yes"/>
      <point x="545" y="657"/>
      <point x="483" y="714"/>
      <point x="373" y="714" type="curve" smooth="yes"/>
      <point x="240" y="714"/>
      <point x="164" y="629"/>
      <point x="164" y="540" type="curve" smooth="yes"/>
      <point x="164" y="505"/>
      <point x="171" y="488"/>
      <point x="178" y="475" type="curve"/>
      <point x="143" y="442"/>
      <point x="130" y="410"/>
    </contour>
    <contour>
      <point x="331" y="323" type="curve" smooth="yes"/>
      <point x="259" y="336"/>
      <point x="244" y="357"/>
      <point x="244" y="378" type="curve" smooth="yes"/>
      <point x="244" y="390"/>
      <point x="247" y="399"/>
      <point x="251" y="406" type="curve"/>
      <point x="269" y="399"/>
      <point x="290" y="393"/>
      <point x="313" y="389" type="curve" smooth="yes"/>
      <point x="370" y="378"/>
      <point x="390" y="361"/>
      <point x="390" y="331" type="curve" smooth="yes"/>
      <point x="390" y="322"/>
      <point x="388" y="316"/>
      <point x="385" y="309" type="curve"/>
      <point x="368" y="315"/>
      <point x="352" y="319"/>
    </contour>
  </outline>
</glyph>
<glyph name="seven.tosn" format="1">
  <advance width="612"/>
  <outline>
    <contour>
      <point x="62" y="370" type="line"/>
      <point x="428" y="370" type="line"/>
      <point x="428" y="352" type="line"/>
      <point x="94" y="-20" type="line" smooth="yes"/>
      <point x="31" y="-90"/>
      <point x="16" y="-116"/>
      <point x="6" y="-164" type="curve" smooth="yes"/>
      <point x="0" y="-194" type="line"/>
      <point x="158" y="-194" type="line"/>
      <point x="163" y="-170" type="line" smooth="yes"/>
      <point x="171" y="-134"/>
      <point x="191" y="-109"/>
      <point x="227" y="-70" type="curve" smooth="yes"/>
      <point x="558" y="297" type="line"/>
      <point x="558" y="496" type="line"/>
      <point x="62" y="496" type="line"/>
    </contour>
  </outline>
</glyph>
